0
SECTION
2
HEADER
9
$INSUNITS
70
4
9
$ACADVER
1
AC1014
9
$HANDSEED
5
FFFF
0
ENDSEC
0
SECTION
2
TABLES
0
TABLE
2
VPORT
5
8
100
AcDbSymbolTable
0
ENDTAB
0
TABLE
2
LTYPE
5
5
100
AcDbSymbolTable
0
LTYPE
5
14
100
AcDbSymbolTableRecord
100
AcDbLinetypeTableRecord
2
BYBLOCK
70
0
0
LTYPE
5
15
100
AcDbSymbolTableRecord
100
AcDbLinetypeTableRecord
2
BYLAYER
70
0
0
ENDTAB
0
TABLE
2
LAYER
5
2
100
AcDbSymbolTable
70
2
0
LAYER
5
50
100
AcDbSymbolTableRecord
100
AcDbLayerTableRecord
2
0
70
0
6
CONTINUOUS
0
ENDTAB
0
TABLE
2
STYLE
5
3
100
AcDbSymbolTable
70
1
0
STYLE
5
11
100
AcDbSymbolTableRecord
100
AcDbTextStyleTableRecord
2
STANDARD
70
0
0
ENDTAB
0
TABLE
2
VIEW
5
6
100
AcDbSymbolTable
70
0
0
ENDTAB
0
TABLE
2
UCS
5
7
100
AcDbSymbolTable
70
0
0
ENDTAB
0
TABLE
2
APPID
5
9
100
AcDbSymbolTable
70
2
0
APPID
5
12
100
AcDbSymbolTableRecord
100
AcDbRegAppTableRecord
2
ACAD
70
0
0
ENDTAB
0
TABLE
2
DIMSTYLE
5
A
100
AcDbSymbolTable
70
1
0
ENDTAB
0
TABLE
2
BLOCK_RECORD
5
1
100
AcDbSymbolTable
70
1
0
BLOCK_RECORD
5
1F
100
AcDbSymbolTableRecord
100
AcDbBlockTableRecord
2
*MODEL_SPACE
0
BLOCK_RECORD
5
1B
100
AcDbSymbolTableRecord
100
AcDbBlockTableRecord
2
*PAPER_SPACE
0
ENDTAB
0
ENDSEC
0
SECTION
2
BLOCKS
0
BLOCK
5
20
100
AcDbEntity
100
AcDbBlockBegin
2
*MODEL_SPACE
0
ENDBLK
5
21
100
AcDbEntity
100
AcDbBlockEnd
0
BLOCK
5
1C
100
AcDbEntity
100
AcDbBlockBegin
2
*PAPER_SPACE
0
ENDBLK
5
1D
100
AcDbEntity
100
AcDbBlockEnd
0
ENDSEC
0
SECTION
2
ENTITIES
0
LWPOLYLINE
5
100
100
AcDbEntity
8
0
100
AcDbPolyline
90
4
70
1
43
0.0
10
119.05008032649418
20
-51.011858073730977
10
119.0500803264942
20
-2.9118580737310209
10
3.6500803264942672
20
-2.9118580737310218
10
3.6500803264942583
20
-51.011858073730977
0
LWPOLYLINE
5
101
100
AcDbEntity
8
0
100
AcDbPolyline
90
4
70
1
43
0.0
10
138.76827864040979
20
-128.35979393223931
10
264.16827864040982
20
-128.35979393223931
10
264.16827864040988
20
-2.9597849269706433
10
138.76827864040985
20
-2.9597849269706344
0
LWPOLYLINE
5
102
100
AcDbEntity
8
0
100
AcDbPolyline
90
4
70
1
43
0.0
10
3.5720399940717318
20
-55.124682162200919
10
3.5720399940717229
20
-93.224682162200907
10
118.97203999407175
20
-93.224682162200907
10
118.97203999407175
20
-55.124682162200912
0
LWPOLYLINE
5
103
100
AcDbEntity
8
0
100
AcDbPolyline
90
6
70
1
43
0.0
10
129.32787348984573
20
-106.7178808723569
10
57.166147560686788
20
-106.7178808723569
10
57.166147560686788
20
-96.717880872356901
10
3.9278644845770661
20
-96.717880872356901
10
3.9278644845770749
20
-144.81788087235688
10
129.32787348984573
20
-144.81788087235688
0
LWPOLYLINE
5
104
100
AcDbEntity
8
0
100
AcDbPolyline
90
4
70
1
43
0.0
10
212.19593230642886
20
-165.9321953192761
10
212.19593230642886
20
-176.9321953192761
10
201.19593230642886
20
-176.9321953192761
10
201.19593230642886
20
-165.9321953192761
0
LWPOLYLINE
5
105
100
AcDbEntity
8
0
100
AcDbPolyline
90
4
70
1
43
0.0
10
201.19593230642886
20
-191.93219531927608
10
201.19593230642886
20
-180.9321953192761
10
212.19593230642886
20
-180.9321953192761
10
212.19593230642886
20
-191.9321953192761
0
LWPOLYLINE
5
106
100
AcDbEntity
8
0
100
AcDbPolyline
90
4
70
1
43
0.0
10
186.19593230642886
20
-191.93219531927608
10
186.19593230642886
20
-180.9321953192761
10
197.19593230642886
20
-180.93219531927613
10
197.19593230642886
20
-191.9321953192761
0
LWPOLYLINE
5
107
100
AcDbEntity
8
0
100
AcDbPolyline
90
4
70
1
43
0.0
10
186.19593230642886
20
-165.9321953192761
10
197.19593230642886
20
-165.9321953192761
10
197.19593230642886
20
-176.9321953192761
10
186.19593230642886
20
-176.9321953192761
0
LWPOLYLINE
5
108
100
AcDbEntity
8
0
100
AcDbPolyline
90
4
70
1
43
0.0
10
231.19593230642886
20
-180.9321953192761
10
242.19593230642886
20
-180.9321953192761
10
242.19593230642886
20
-191.9321953192761
10
231.19593230642886
20
-191.9321953192761
0
LWPOLYLINE
5
109
100
AcDbEntity
8
0
100
AcDbPolyline
90
4
70
1
43
0.0
10
227.19593230642886
20
-176.9321953192761
10
216.19593230642886
20
-176.9321953192761
10
216.19593230642886
20
-165.9321953192761
10
227.19593230642886
20
-165.9321953192761
0
LWPOLYLINE
5
110
100
AcDbEntity
8
0
100
AcDbPolyline
90
4
70
1
43
0.0
10
264.39593230642885
20
-133.73218631400744
10
138.99593230642884
20
-133.73218631400744
10
138.99593230642884
20
-205.89391224316637
10
264.39593230642885
20
-205.89391224316637
0
LWPOLYLINE
5
111
100
AcDbEntity
8
0
100
AcDbPolyline
90
4
70
1
43
0.0
10
231.19593230642886
20
-165.9321953192761
10
242.19593230642886
20
-165.9321953192761
10
242.19593230642886
20
-176.9321953192761
10
231.19593230642886
20
-176.9321953192761
0
LWPOLYLINE
5
112
100
AcDbEntity
8
0
100
AcDbPolyline
90
4
70
1
43
0.0
10
216.19593230642886
20
-180.9321953192761
10
227.19593230642886
20
-180.9321953192761
10
227.19593230642886
20
-191.9321953192761
10
216.19593230642886
20
-191.9321953192761
0
LWPOLYLINE
5
113
100
AcDbEntity
8
0
100
AcDbPolyline
90
6
70
1
43
0.0
10
76.168947321532144
20
-148.94900119118932
10
76.168947321532144
20
-158.94900119118932
10
4.0072213923732125
20
-158.94900119118932
10
4.0072213923732214
20
-197.04900119118932
10
129.40723039764185
20
-197.04900119118932
10
129.40723039764185
20
-148.94900119118932
0
LWPOLYLINE
5
114
100
AcDbEntity
8
0
100
AcDbPolyline
90
4
70
1
43
0.0
10
74.457230397641879
20
-169.19900119118935
10
74.457230397641879
20
-177.69900119118932
10
62.957230397641872
20
-177.69900119118938
10
62.957230397641872
20
-169.19900119118935
0
LWPOLYLINE
5
115
100
AcDbEntity
8
0
100
AcDbPolyline
90
4
70
1
43
0.0
10
264.68428489915658
20
-211.09520836816353
10
139.28428489915655
20
-211.09520836816353
10
139.28428489915655
20
-216.09520836816353
10
264.68428489915652
20
-216.09520836816353
0
CIRCLE
5
116
100
AcDbEntity
8
0
100
AcDbCircle
10
67.499364761038464
20
-236.90986139966691
30
0
40
4.0000000000000009
210
0
220
0
230
1
0
LWPOLYLINE
5
117
100
AcDbEntity
8
0
100
AcDbPolyline
90
4
70
1
43
0.0
10
109.99936476103846
20
-216.40986139966688
10
49.999364761038464
20
-216.40986139966688
10
49.999364761038464
20
-214.40986139966691
10
109.99936476103846
20
-214.40986139966691
0
CIRCLE
5
118
100
AcDbEntity
8
0
100
AcDbCircle
10
37.499364761038464
20
-236.90986139966691
30
0
40
3.9999999999999987
210
0
220
0
230
1
0
CIRCLE
5
119
100
AcDbEntity
8
0
100
AcDbCircle
10
97.499364761038464
20
-236.90986139966691
30
0
40
3.9999999999999987
210
0
220
0
230
1
0
LWPOLYLINE
5
120
100
AcDbEntity
8
0
100
AcDbPolyline
90
4
70
1
43
0.0
10
4.7993647610384116
20
-259.6098613996669
10
130.19936476103845
20
-259.6098613996669
10
130.19936476103845
20
-201.37157832355715
10
4.7993647610384294
20
-201.37157832355715
0
ENDSEC
0
SECTION
2
OBJECTS
0
DICTIONARY
5
C
100
AcDbDictionary
3
ACAD_GROUP
350
D
3
ACAD_MLINESTYLE
350
17
0
DICTIONARY
5
D
100
AcDbDictionary
0
DICTIONARY
5
1A
330
C
100
AcDbDictionary
0
DICTIONARY
5
17
100
AcDbDictionary
0
ENDSEC
0
EOF
