  0
SECTION
  2
HEADER
  9
$ACADVER
  1
AC1014
  9
$HANDSEED
  5
FFFF
  9
$MEASUREMENT
 70
     1
  0
ENDSEC
  0
SECTION
  2
TABLES
  0
TABLE
  2
VPORT
  5
8
330
0
100
AcDbSymbolTable
 70
     4
  0
VPORT
  5
2E
330
8
100
AcDbSymbolTableRecord
100
AcDbViewportTableRecord
  2
*ACTIVE
 70
     0
 10
0.0
 20
0.0
 11
1.0
 21
1.0
 12
210.0
 22
148.5
 13
0.0
 23
0.0
 14
10.0
 24
10.0
 15
10.0
 25
10.0
 16
0.0
 26
0.0
 36
1.0
 17
0.0
 27
0.0
 37
0.0
 40
341.0
 41
1.24
 42
50.0
 43
0.0
 44
0.0
 50
0.0
 51
0.0
 71
     0
 72
   100
 73
     1
 74
     3
 75
     0
 76
     0
 77
     0
 78
     0
  0
ENDTAB
  0
TABLE
  2
LTYPE
  5
5
330
0
100
AcDbSymbolTable
 70
     1
  0
LTYPE
  5
14
330
5
100
AcDbSymbolTableRecord
100
AcDbLinetypeTableRecord
  2
BYBLOCK
 70
     0
  3

 72
    65
 73
     0
 40
0.0
  0
LTYPE
  5
15
330
5
100
AcDbSymbolTableRecord
100
AcDbLinetypeTableRecord
  2
BYLAYER
 70
     0
  3

 72
    65
 73
     0
 40
0.0
  0
LTYPE
  5
16
330
5
100
AcDbSymbolTableRecord
100
AcDbLinetypeTableRecord
  2
CONTINUOUS
 70
     0
  3
Solid line
 72
    65
 73
     0
 40
0.0
  0
ENDTAB
  0
TABLE
  2
LAYER
  5
2
100
AcDbSymbolTable
 70
2
  0
LAYER
  5
50
100
AcDbSymbolTableRecord
100
AcDbLayerTableRecord
  2
0
 70
0
  6
CONTINUOUS
  0
LAYER
  5
51
100
AcDbSymbolTableRecord
100
AcDbLayerTableRecord
  2
Layer_1
 70
0
  6
CONTINUOUS
  0
ENDTAB
  0
TABLE
  2
STYLE
  5
3
330
0
100
AcDbSymbolTable
 70
     1
  0
STYLE
  5
11
330
3
100
AcDbSymbolTableRecord
100
AcDbTextStyleTableRecord
  2
STANDARD
 70
     0
 40
0.0
 41
1.0
 50
0.0
 71
     0
 42
2.5
  3
txt
  4

  0
ENDTAB
  0
TABLE
  2
VIEW
  5
6
330
0
100
AcDbSymbolTable
 70
     0
  0
ENDTAB
  0
TABLE
  2
UCS
  5
7
330
0
100
AcDbSymbolTable
 70
     0
  0
ENDTAB
  0
TABLE
  2
APPID
  5
9
330
0
100
AcDbSymbolTable
 70
     2
  0
APPID
  5
12
330
9
100
AcDbSymbolTableRecord
100
AcDbRegAppTableRecord
  2
ACAD
 70
     0
  0
ENDTAB
  0
TABLE
  2
DIMSTYLE
  5
A
330
0
100
AcDbSymbolTable
 70
     1
  0
DIMSTYLE
105
27
330
A
100
AcDbSymbolTableRecord
100
AcDbDimStyleTableRecord
  2
ISO-25
 70
     0
  3

  4

  5

  6

  7

 40
1.0
 41
2.5
 42
0.625
 43
3.75
 44
1.25
 45
0.0
 46
0.0
 47
0.0
 48
0.0
140
2.5
141
2.5
142
0.0
143
0.03937007874016
144
1.0
145
0.0
146
1.0
147
0.625
 71
     0
 72
     0
 73
     0
 74
     0
 75
     0
 76
     0
 77
     1
 78
     8
170
     0
171
     3
172
     1
173
     0
174
     0
175
     0
176
     0
177
     0
178
     0
270
     2
271
     2
272
     2
273
     2
274
     3
340
11
275
     0
280
     0
281
     0
282
     0
283
     0
284
     8
285
     0
286
     0
287
     3
288
     0
  0
ENDTAB
  0
TABLE
  2
BLOCK_RECORD
  5
1
330
0
100
AcDbSymbolTable
 70
     1
  0
BLOCK_RECORD
  5
1F
330
1
100
AcDbSymbolTableRecord
100
AcDbBlockTableRecord
  2
*MODEL_SPACE
  0
BLOCK_RECORD
  5
1B
330
1
100
AcDbSymbolTableRecord
100
AcDbBlockTableRecord
  2
*PAPER_SPACE
  0
ENDTAB
  0
ENDSEC
  0
SECTION
  2
BLOCKS
  0
BLOCK
  5
20
330
1F
100
AcDbEntity
  8
0
100
AcDbBlockBegin
  2
*MODEL_SPACE
 70
     0
 10
0.0
 20
0.0
 30
0.0
  3
*MODEL_SPACE
  1

  0
ENDBLK
  5
21
330
1F
100
AcDbEntity
  8
0
100
AcDbBlockEnd
  0
BLOCK
  5
1C
330
1B
100
AcDbEntity
 67
     1
  8
0
100
AcDbBlockBegin
  2
*PAPER_SPACE
  1

  0
ENDBLK
  5
1D
330
1B
100
AcDbEntity
 67
     1
  8
0
100
AcDbBlockEnd
  0
ENDSEC
  0
SECTION
  2
ENTITIES
  0
LINE
  5
100
100
AcDbEntity
  8
Layer_1
 62
7
100
AcDbLine
 10
71.521119
 20
186.608975
 30
0.0
 11
71.511327
 21
186.608975
 31
0.0
  0
SPLINE
  5
101
100
AcDbEntity
  8
Layer_1
 62
7
100
AcDbSpline
 70
8
 71
3
 72
8
 73
4
 74
0
 40
0
 40
0
 40
0
 40
0
 40
1
 40
1
 40
1
 40
1
 10
71.511327
 20
186.608975
 30
0.0
 10
71.485235
 20
186.615503
 30
0.0
 10
71.460775
 20
186.620070
 30
0.0
 10
71.437946
 20
186.622675
 30
0.0
  0
SPLINE
  5
102
100
AcDbEntity
  8
Layer_1
 62
7
100
AcDbSpline
 70
8
 71
3
 72
8
 73
4
 74
0
 40
0
 40
0
 40
0
 40
0
 40
1
 40
1
 40
1
 40
1
 10
71.437946
 20
186.622675
 30
0.0
 10
71.415770
 20
186.625932
 30
0.0
 10
71.388700
 20
186.627560
 30
0.0
 10
71.356738
 20
186.627560
 30
0.0
  0
SPLINE
  5
103
100
AcDbEntity
  8
Layer_1
 62
7
100
AcDbSpline
 70
8
 71
3
 72
8
 73
4
 74
0
 40
0
 40
0
 40
0
 40
0
 40
1
 40
1
 40
1
 40
1
 10
71.356738
 20
186.627560
 30
0.0
 10
71.295424
 20
186.627560
 30
0.0
 10
71.234437
 20
186.613536
 30
0.0
 10
71.173776
 20
186.585487
 30
0.0
  0
SPLINE
  5
104
100
AcDbEntity
  8
Layer_1
 62
7
100
AcDbSpline
 70
8
 71
3
 72
8
 73
4
 74
0
 40
0
 40
0
 40
0
 40
0
 40
1
 40
1
 40
1
 40
1
 10
71.173776
 20
186.585487
 30
0.0
 10
71.113768
 20
186.558093
 30
0.0
 10
71.056043
 20
186.524827
 30
0.0
 10
71.000600
 20
186.485689
 30
0.0
  0
LINE
  5
105
100
AcDbEntity
  8
Layer_1
 62
7
100
AcDbLine
 10
71.000600
 20
186.485689
 30
0.0
 11
70.824486
 21
185.709815
 31
0.0
  0
LINE
  5
106
100
AcDbEntity
  8
Layer_1
 62
7
100
AcDbLine
 10
70.824486
 20
185.709815
 30
0.0
 11
70.638588
 21
185.709815
 31
0.0
  0
LINE
  5
107
100
AcDbEntity
  8
Layer_1
 62
7
100
AcDbLine
 10
70.638588
 20
185.709815
 30
0.0
 11
70.888081
 21
186.802695
 31
0.0
  0
LINE
  5
108
100
AcDbEntity
  8
Layer_1
 62
7
100
AcDbLine
 10
70.888081
 20
186.802695
 30
0.0
 11
71.073978
 21
186.802695
 31
0.0
  0
LINE
  5
109
100
AcDbEntity
  8
Layer_1
 62
7
100
AcDbLine
 10
71.073978
 20
186.802695
 30
0.0
 11
71.036799
 21
186.641258
 31
0.0
  0
SPLINE
  5
10a
100
AcDbEntity
  8
Layer_1
 62
7
100
AcDbSpline
 70
8
 71
3
 72
8
 73
4
 74
0
 40
0
 40
0
 40
0
 40
0
 40
1
 40
1
 40
1
 40
1
 10
71.036799
 20
186.641258
 30
0.0
 10
71.123552
 20
186.701919
 30
0.0
 10
71.196932
 20
186.743990
 30
0.0
 10
71.256940
 20
186.767472
 30
0.0
  0
SPLINE
  5
10b
100
AcDbEntity
  8
Layer_1
 62
7
100
AcDbSpline
 70
8
 71
3
 72
8
 73
4
 74
0
 40
0
 40
0
 40
0
 40
0
 40
1
 40
1
 40
1
 40
1
 10
71.256940
 20
186.767472
 30
0.0
 10
71.317603
 20
186.790954
 30
0.0
 10
71.375655
 20
186.802695
 30
0.0
 10
71.431098
 20
186.802695
 30
0.0
  0
SPLINE
  5
10c
100
AcDbEntity
  8
Layer_1
 62
7
100
AcDbSpline
 70
8
 71
3
 72
8
 73
4
 74
0
 40
0
 40
0
 40
0
 40
0
 40
1
 40
1
 40
1
 40
1
 10
71.431098
 20
186.802695
 30
0.0
 10
71.463059
 20
186.802695
 30
0.0
 10
71.486215
 20
186.801718
 30
0.0
 10
71.500565
 20
186.799764
 30
0.0
  0
SPLINE
  5
10d
100
AcDbEntity
  8
Layer_1
 62
7
100
AcDbSpline
 70
8
 71
3
 72
8
 73
4
 74
0
 40
0
 40
0
 40
0
 40
0
 40
1
 40
1
 40
1
 40
1
 10
71.500565
 20
186.799764
 30
0.0
 10
71.514909
 20
186.798401
 30
0.0
 10
71.535781
 20
186.795462
 30
0.0
 10
71.563183
 20
186.790948
 30
0.0
  0
LINE
  5
10e
100
AcDbEntity
  8
Layer_1
 62
7
100
AcDbLine
 10
71.563183
 20
186.790948
 30
0.0
 11
71.521119
 21
186.608975
 31
0.0
  0
SPLINE
  5
10f
100
AcDbEntity
  8
Layer_1
 62
7
100
AcDbSpline
 70
8
 71
3
 72
8
 73
4
 74
0
 40
0
 40
0
 40
0
 40
0
 40
1
 40
1
 40
1
 40
1
 10
70.329421
 20
186.375136
 30
0.0
 10
70.332678
 20
186.394051
 30
0.0
 10
70.334957
 20
186.410032
 30
0.0
 10
70.336260
 20
186.423078
 30
0.0
  0
SPLINE
  5
110
100
AcDbEntity
  8
Layer_1
 62
7
100
AcDbSpline
 70
8
 71
3
 72
8
 73
4
 74
0
 40
0
 40
0
 40
0
 40
0
 40
1
 40
1
 40
1
 40
1
 10
70.336260
 20
186.423078
 30
0.0
 10
70.337623
 20
186.436119
 30
0.0
 10
70.338305
 20
186.450469
 30
0.0
 10
70.338305
 20
186.466127
 30
0.0
  0
SPLINE
  5
111
100
AcDbEntity
  8
Layer_1
 62
7
100
AcDbSpline
 70
8
 71
3
 72
8
 73
4
 74
0
 40
0
 40
0
 40
0
 40
0
 40
1
 40
1
 40
1
 40
1
 10
70.338305
 20
186.466127
 30
0.0
 10
70.338305
 20
186.535920
 30
0.0
 10
70.319063
 20
186.590385
 30
0.0
 10
70.280580
 20
186.629521
 30
0.0
  0
SPLINE
  5
112
100
AcDbEntity
  8
Layer_1
 62
7
100
AcDbSpline
 70
8
 71
3
 72
8
 73
4
 74
0
 40
0
 40
0
 40
0
 40
0
 40
1
 40
1
 40
1
 40
1
 10
70.280580
 20
186.629521
 30
0.0
 10
70.242748
 20
186.668657
 30
0.0
 10
70.181761
 20
186.688225
 30
0.0
 10
70.097618
 20
186.688225
 30
0.0
  0
SPLINE
  5
113
100
AcDbEntity
  8
Layer_1
 62
7
100
AcDbSpline
 70
8
 71
3
 72
8
 73
4
 74
0
 40
0
 40
0
 40
0
 40
0
 40
1
 40
1
 40
1
 40
1
 10
70.097618
 20
186.688225
 30
0.0
 10
70.004995
 20
186.688225
 30
0.0
 10
69.922808
 20
186.659525
 30
0.0
 10
69.851059
 20
186.602125
 30
0.0
  0
SPLINE
  5
114
100
AcDbEntity
  8
Layer_1
 62
7
100
AcDbSpline
 70
8
 71
3
 72
8
 73
4
 74
0
 40
0
 40
0
 40
0
 40
0
 40
1
 40
1
 40
1
 40
1
 10
69.851059
 20
186.602125
 30
0.0
 10
69.779309
 20
186.544725
 30
0.0
 10
69.730715
 20
186.469062
 30
0.0
 10
69.705276
 20
186.375136
 30
0.0
  0
LINE
  5
115
100
AcDbEntity
  8
Layer_1
 62
7
100
AcDbLine
 10
69.705276
 20
186.375136
 30
0.0
 11
70.329421
 21
186.375136
 31
0.0
  0
SPLINE
  5
116
100
AcDbEntity
  8
Layer_1
 62
7
100
AcDbSpline
 70
8
 71
3
 72
8
 73
4
 74
0
 40
0
 40
0
 40
0
 40
0
 40
1
 40
1
 40
1
 40
1
 10
69.961539
 20
185.684380
 30
0.0
 10
69.810213
 20
185.684380
 30
0.0
 10
69.691501
 20
185.719928
 30
0.0
 10
69.605401
 20
185.791025
 30
0.0
  0
SPLINE
  5
117
100
AcDbEntity
  8
Layer_1
 62
7
100
AcDbSpline
 70
8
 71
3
 72
8
 73
4
 74
0
 40
0
 40
0
 40
0
 40
0
 40
1
 40
1
 40
1
 40
1
 10
69.605401
 20
185.791025
 30
0.0
 10
69.519300
 20
185.862124
 30
0.0
 10
69.476249
 20
185.966161
 30
0.0
 10
69.476249
 20
186.103137
 30
0.0
  0
SPLINE
  5
118
100
AcDbEntity
  8
Layer_1
 62
7
100
AcDbSpline
 70
8
 71
3
 72
8
 73
4
 74
0
 40
0
 40
0
 40
0
 40
0
 40
1
 40
1
 40
1
 40
1
 10
69.476249
 20
186.103137
 30
0.0
 10
69.476249
 20
186.303385
 30
0.0
 10
69.539520
 20
186.474932
 30
0.0
 10
69.666061
 20
186.617779
 30
0.0
  0
SPLINE
  5
119
100
AcDbEntity
  8
Layer_1
 62
7
100
AcDbSpline
 70
8
 71
3
 72
8
 73
4
 74
0
 40
0
 40
0
 40
0
 40
0
 40
1
 40
1
 40
1
 40
1
 10
69.666061
 20
186.617779
 30
0.0
 10
69.792602
 20
186.761278
 30
0.0
 10
69.949148
 20
186.833028
 30
0.0
 10
70.135697
 20
186.833028
 30
0.0
  0
SPLINE
  5
11a
100
AcDbEntity
  8
Layer_1
 62
7
100
AcDbSpline
 70
8
 71
3
 72
8
 73
4
 74
0
 40
0
 40
0
 40
0
 40
0
 40
1
 40
1
 40
1
 40
1
 10
70.135697
 20
186.833028
 30
0.0
 10
70.259629
 20
186.833028
 30
0.0
 10
70.354534
 20
186.802046
 30
0.0
 10
70.420413
 20
186.740081
 30
0.0
  0
SPLINE
  5
11b
100
AcDbEntity
  8
Layer_1
 62
7
100
AcDbSpline
 70
8
 71
3
 72
8
 73
4
 74
0
 40
0
 40
0
 40
0
 40
0
 40
1
 40
1
 40
1
 40
1
 10
70.420413
 20
186.740081
 30
0.0
 10
70.486292
 20
186.678767
 30
0.0
 10
70.519231
 20
186.592341
 30
0.0
 10
70.519231
 20
186.480802
 30
0.0
  0
SPLINE
  5
11c
100
AcDbEntity
  8
Layer_1
 62
7
100
AcDbSpline
 70
8
 71
3
 72
8
 73
4
 74
0
 40
0
 40
0
 40
0
 40
0
 40
1
 40
1
 40
1
 40
1
 10
70.519231
 20
186.480802
 30
0.0
 10
70.519231
 20
186.461234
 30
0.0
 10
70.516293
 20
186.430252
 30
0.0
 10
70.510416
 20
186.387855
 30
0.0
  0
SPLINE
  5
11d
100
AcDbEntity
  8
Layer_1
 62
7
100
AcDbSpline
 70
8
 71
3
 72
8
 73
4
 74
0
 40
0
 40
0
 40
0
 40
0
 40
1
 40
1
 40
1
 40
1
 10
70.510416
 20
186.387855
 30
0.0
 10
70.505205
 20
186.345456
 30
0.0
 10
70.496400
 20
186.296210
 30
0.0
 10
70.483999
 20
186.240116
 30
0.0
  0
LINE
  5
11e
100
AcDbEntity
  8
Layer_1
 62
7
100
AcDbLine
 10
70.483999
 20
186.240116
 30
0.0
 11
69.678771
 21
186.240116
 31
0.0
  0
SPLINE
  5
11f
100
AcDbEntity
  8
Layer_1
 62
7
100
AcDbSpline
 70
8
 71
3
 72
8
 73
4
 74
0
 40
0
 40
0
 40
0
 40
0
 40
1
 40
1
 40
1
 40
1
 10
69.678771
 20
186.240116
 30
0.0
 10
69.674863
 20
186.221199
 30
0.0
 10
69.671932
 20
186.202609
 30
0.0
 10
69.669978
 20
186.184345
 30
0.0
  0
SPLINE
  5
120
100
AcDbEntity
  8
Layer_1
 62
7
100
AcDbSpline
 70
8
 71
3
 72
8
 73
4
 74
0
 40
0
 40
0
 40
0
 40
0
 40
1
 40
1
 40
1
 40
1
 10
69.669978
 20
186.184345
 30
0.0
 10
69.668615
 20
186.166083
 30
0.0
 10
69.667933
 20
186.149124
 30
0.0
 10
69.667933
 20
186.133468
 30
0.0
  0
SPLINE
  5
121
100
AcDbEntity
  8
Layer_1
 62
7
100
AcDbSpline
 70
8
 71
3
 72
8
 73
4
 74
0
 40
0
 40
0
 40
0
 40
0
 40
1
 40
1
 40
1
 40
1
 10
69.667933
 20
186.133468
 30
0.0
 10
69.667933
 20
186.041497
 30
0.0
 10
69.695981
 20
185.969096
 30
0.0
 10
69.752077
 20
185.916263
 30
0.0
  0
SPLINE
  5
122
100
AcDbEntity
  8
Layer_1
 62
7
100
AcDbSpline
 70
8
 71
3
 72
8
 73
4
 74
0
 40
0
 40
0
 40
0
 40
0
 40
1
 40
1
 40
1
 40
1
 10
69.752077
 20
185.916263
 30
0.0
 10
69.808172
 20
185.864081
 30
0.0
 10
69.887749
 20
185.837990
 30
0.0
 10
69.990807
 20
185.837990
 30
0.0
  0
SPLINE
  5
123
100
AcDbEntity
  8
Layer_1
 62
7
100
AcDbSpline
 70
8
 71
3
 72
8
 73
4
 74
0
 40
0
 40
0
 40
0
 40
0
 40
1
 40
1
 40
1
 40
1
 10
69.990807
 20
185.837990
 30
0.0
 10
70.062557
 20
185.837990
 30
0.0
 10
70.136264
 20
185.852013
 30
0.0
 10
70.211927
 20
185.880061
 30
0.0
  0
SPLINE
  5
124
100
AcDbEntity
  8
Layer_1
 62
7
100
AcDbSpline
 70
8
 71
3
 72
8
 73
4
 74
0
 40
0
 40
0
 40
0
 40
0
 40
1
 40
1
 40
1
 40
1
 10
70.211927
 20
185.880061
 30
0.0
 10
70.288244
 20
185.908109
 30
0.0
 10
70.352166
 20
185.939744
 30
0.0
 10
70.403695
 20
185.974966
 30
0.0
  0
LINE
  5
125
100
AcDbEntity
  8
Layer_1
 62
7
100
AcDbLine
 10
70.403695
 20
185.974966
 30
0.0
 11
70.414465
 21
185.974966
 31
0.0
  0
LINE
  5
126
100
AcDbEntity
  8
Layer_1
 62
7
100
AcDbLine
 10
70.414465
 20
185.974966
 30
0.0
 11
70.374350
 21
185.776351
 31
0.0
  0
SPLINE
  5
127
100
AcDbEntity
  8
Layer_1
 62
7
100
AcDbSpline
 70
8
 71
3
 72
8
 73
4
 74
0
 40
0
 40
0
 40
0
 40
0
 40
1
 40
1
 40
1
 40
1
 10
70.374350
 20
185.776351
 30
0.0
 10
70.341736
 20
185.764612
 30
0.0
 10
70.312384
 20
185.753849
 30
0.0
 10
70.286294
 20
185.744063
 30
0.0
  0
SPLINE
  5
128
100
AcDbEntity
  8
Layer_1
 62
7
100
AcDbSpline
 70
8
 71
3
 72
8
 73
4
 74
0
 40
0
 40
0
 40
0
 40
0
 40
1
 40
1
 40
1
 40
1
 10
70.286294
 20
185.744063
 30
0.0
 10
70.260203
 20
185.734278
 30
0.0
 10
70.226937
 20
185.724494
 30
0.0
 10
70.186497
 20
185.714711
 30
0.0
  0
SPLINE
  5
129
100
AcDbEntity
  8
Layer_1
 62
7
100
AcDbSpline
 70
8
 71
3
 72
8
 73
4
 74
0
 40
0
 40
0
 40
0
 40
0
 40
1
 40
1
 40
1
 40
1
 10
70.186497
 20
185.714711
 30
0.0
 10
70.146055
 20
185.704926
 30
0.0
 10
70.110180
 20
185.697421
 30
0.0
 10
70.078872
 20
185.692196
 30
0.0
  0
SPLINE
  5
12a
100
AcDbEntity
  8
Layer_1
 62
7
100
AcDbSpline
 70
8
 71
3
 72
8
 73
4
 74
0
 40
0
 40
0
 40
0
 40
0
 40
1
 40
1
 40
1
 40
1
 10
70.078872
 20
185.692196
 30
0.0
 10
70.047562
 20
185.686985
 30
0.0
 10
70.008426
 20
185.684380
 30
0.0
 10
69.961462
 20
185.684380
 30
0.0
  0
LINE
  5
12b
100
AcDbEntity
  8
Layer_1
 62
7
100
AcDbLine
 10
69.961462
 20
185.684380
 30
0.0
 11
69.961539
 21
185.684380
 31
0.0
  0
LINE
  5
12c
100
AcDbEntity
  8
Layer_1
 62
7
100
AcDbLine
 10
69.435158
 20
187.232219
 30
0.0
 11
69.082932
 21
185.709820
 31
0.0
  0
LINE
  5
12d
100
AcDbEntity
  8
Layer_1
 62
7
100
AcDbLine
 10
69.082932
 20
185.709820
 30
0.0
 11
68.898991
 21
185.709820
 31
0.0
  0
LINE
  5
12e
100
AcDbEntity
  8
Layer_1
 62
7
100
AcDbLine
 10
68.898991
 20
185.709820
 30
0.0
 11
68.925407
 21
185.824292
 31
0.0
  0
SPLINE
  5
12f
100
AcDbEntity
  8
Layer_1
 62
7
100
AcDbSpline
 70
8
 71
3
 72
8
 73
4
 74
0
 40
0
 40
0
 40
0
 40
0
 40
1
 40
1
 40
1
 40
1
 10
68.925407
 20
185.824292
 30
0.0
 10
68.842569
 20
185.767545
 30
0.0
 10
68.775711
 20
185.729388
 30
0.0
 10
68.724835
 20
185.709820
 30
0.0
  0
SPLINE
  5
130
100
AcDbEntity
  8
Layer_1
 62
7
100
AcDbSpline
 70
8
 71
3
 72
8
 73
4
 74
0
 40
0
 40
0
 40
0
 40
0
 40
1
 40
1
 40
1
 40
1
 10
68.724835
 20
185.709820
 30
0.0
 10
68.674610
 20
185.689599
 30
0.0
 10
68.619819
 20
185.679488
 30
0.0
 10
68.560463
 20
185.679488
 30
0.0
  0
SPLINE
  5
131
100
AcDbEntity
  8
Layer_1
 62
7
100
AcDbSpline
 70
8
 71
3
 72
8
 73
4
 74
0
 40
0
 40
0
 40
0
 40
0
 40
1
 40
1
 40
1
 40
1
 10
68.560463
 20
185.679488
 30
0.0
 10
68.457403
 20
185.679488
 30
0.0
 10
68.375543
 20
185.712101
 30
0.0
 10
68.314882
 20
185.777327
 30
0.0
  0
SPLINE
  5
132
100
AcDbEntity
  8
Layer_1
 62
7
100
AcDbSpline
 70
8
 71
3
 72
8
 73
4
 74
0
 40
0
 40
0
 40
0
 40
0
 40
1
 40
1
 40
1
 40
1
 10
68.314882
 20
185.777327
 30
0.0
 10
68.254873
 20
185.842555
 30
0.0
 10
68.224868
 20
185.937461
 30
0.0
 10
68.224868
 20
186.062045
 30
0.0
  0
SPLINE
  5
133
100
AcDbEntity
  8
Layer_1
 62
7
100
AcDbSpline
 70
8
 71
3
 72
8
 73
4
 74
0
 40
0
 40
0
 40
0
 40
0
 40
1
 40
1
 40
1
 40
1
 10
68.224868
 20
186.062045
 30
0.0
 10
68.224868
 20
186.167060
 30
0.0
 10
68.241175
 20
186.266205
 30
0.0
 10
68.273788
 20
186.359480
 30
0.0
  0
SPLINE
  5
134
100
AcDbEntity
  8
Layer_1
 62
7
100
AcDbSpline
 70
8
 71
3
 72
8
 73
4
 74
0
 40
0
 40
0
 40
0
 40
0
 40
1
 40
1
 40
1
 40
1
 10
68.273788
 20
186.359480
 30
0.0
 10
68.306402
 20
186.453407
 30
0.0
 10
68.350757
 20
186.535594
 30
0.0
 10
68.406853
 20
186.606039
 30
0.0
  0
SPLINE
  5
135
100
AcDbEntity
  8
Layer_1
 62
7
100
AcDbSpline
 70
8
 71
3
 72
8
 73
4
 74
0
 40
0
 40
0
 40
0
 40
0
 40
1
 40
1
 40
1
 40
1
 10
68.406853
 20
186.606039
 30
0.0
 10
68.462296
 20
186.675832
 30
0.0
 10
68.527849
 20
186.730949
 30
0.0
 10
68.603512
 20
186.771389
 30
0.0
  0
SPLINE
  5
136
100
AcDbEntity
  8
Layer_1
 62
7
100
AcDbSpline
 70
8
 71
3
 72
8
 73
4
 74
0
 40
0
 40
0
 40
0
 40
0
 40
1
 40
1
 40
1
 40
1
 10
68.603512
 20
186.771389
 30
0.0
 10
68.679176
 20
186.812482
 30
0.0
 10
68.759405
 20
186.833028
 30
0.0
 10
68.844199
 20
186.833028
 30
0.0
  0
SPLINE
  5
137
100
AcDbEntity
  8
Layer_1
 62
7
100
AcDbSpline
 70
8
 71
3
 72
8
 73
4
 74
0
 40
0
 40
0
 40
0
 40
0
 40
1
 40
1
 40
1
 40
1
 10
68.844199
 20
186.833028
 30
0.0
 10
68.902252
 20
186.833028
 30
0.0
 10
68.955738
 20
186.826833
 30
0.0
 10
69.004659
 20
186.814443
 30
0.0
  0
SPLINE
  5
138
100
AcDbEntity
  8
Layer_1
 62
7
100
AcDbSpline
 70
8
 71
3
 72
8
 73
4
 74
0
 40
0
 40
0
 40
0
 40
0
 40
1
 40
1
 40
1
 40
1
 10
69.004659
 20
186.814443
 30
0.0
 10
69.053578
 20
186.802053
 30
0.0
 10
69.099237
 20
186.783464
 30
0.0
 10
69.141636
 20
186.758675
 30
0.0
  0
LINE
  5
139
100
AcDbEntity
  8
Layer_1
 62
7
100
AcDbLine
 10
69.141636
 20
186.758675
 30
0.0
 11
69.251217
 21
187.232223
 31
0.0
  0
LINE
  5
13a
100
AcDbEntity
  8
Layer_1
 62
7
100
AcDbLine
 10
69.251217
 20
187.232223
 30
0.0
 11
69.435158
 21
187.232219
 31
0.0
  0
SPLINE
  5
13b
100
AcDbEntity
  8
Layer_1
 62
7
100
AcDbSpline
 70
8
 71
3
 72
8
 73
4
 74
0
 40
0
 40
0
 40
0
 40
0
 40
1
 40
1
 40
1
 40
1
 10
69.106413
 20
186.606039
 30
0.0
 10
69.062710
 20
186.628869
 30
0.0
 10
69.019660
 20
186.645501
 30
0.0
 10
68.977263
 20
186.655937
 30
0.0
  0
SPLINE
  5
13c
100
AcDbEntity
  8
Layer_1
 62
7
100
AcDbSpline
 70
8
 71
3
 72
8
 73
4
 74
0
 40
0
 40
0
 40
0
 40
0
 40
1
 40
1
 40
1
 40
1
 10
68.977263
 20
186.655937
 30
0.0
 10
68.935518
 20
186.667025
 30
0.0
 10
68.890837
 20
186.672568
 30
0.0
 10
68.843222
 20
186.672568
 30
0.0
  0
SPLINE
  5
13d
100
AcDbEntity
  8
Layer_1
 62
7
100
AcDbSpline
 70
8
 71
3
 72
8
 73
4
 74
0
 40
0
 40
0
 40
0
 40
0
 40
1
 40
1
 40
1
 40
1
 10
68.843222
 20
186.672568
 30
0.0
 10
68.775385
 20
186.672568
 30
0.0
 10
68.714723
 20
186.656261
 30
0.0
 10
68.661237
 20
186.623647
 30
0.0
  0
SPLINE
  5
13e
100
AcDbEntity
  8
Layer_1
 62
7
100
AcDbSpline
 70
8
 71
3
 72
8
 73
4
 74
0
 40
0
 40
0
 40
0
 40
0
 40
1
 40
1
 40
1
 40
1
 10
68.661237
 20
186.623647
 30
0.0
 10
68.608404
 20
186.591034
 30
0.0
 10
68.563072
 20
186.546353
 30
0.0
 10
68.525240
 20
186.489606
 30
0.0
  0
SPLINE
  5
13f
100
AcDbEntity
  8
Layer_1
 62
7
100
AcDbSpline
 70
8
 71
3
 72
8
 73
4
 74
0
 40
0
 40
0
 40
0
 40
0
 40
1
 40
1
 40
1
 40
1
 10
68.525240
 20
186.489606
 30
0.0
 10
68.490669
 20
186.438077
 30
0.0
 10
68.463926
 20
186.376112
 30
0.0
 10
68.445011
 20
186.303709
 30
0.0
  0
SPLINE
  5
140
100
AcDbEntity
  8
Layer_1
 62
7
100
AcDbSpline
 70
8
 71
3
 72
8
 73
4
 74
0
 40
0
 40
0
 40
0
 40
0
 40
1
 40
1
 40
1
 40
1
 10
68.445011
 20
186.303709
 30
0.0
 10
68.426747
 20
186.231306
 30
0.0
 10
68.417615
 20
186.161187
 30
0.0
 10
68.417615
 20
186.093351
 30
0.0
  0
SPLINE
  5
141
100
AcDbEntity
  8
Layer_1
 62
7
100
AcDbSpline
 70
8
 71
3
 72
8
 73
4
 74
0
 40
0
 40
0
 40
0
 40
0
 40
1
 40
1
 40
1
 40
1
 10
68.417615
 20
186.093351
 30
0.0
 10
68.417615
 20
186.013774
 30
0.0
 10
68.434574
 20
185.952786
 30
0.0
 10
68.468492
 20
185.910389
 30
0.0
  0
SPLINE
  5
142
100
AcDbEntity
  8
Layer_1
 62
7
100
AcDbSpline
 70
8
 71
3
 72
8
 73
4
 74
0
 40
0
 40
0
 40
0
 40
0
 40
1
 40
1
 40
1
 40
1
 10
68.468492
 20
185.910389
 30
0.0
 10
68.503063
 20
185.868644
 30
0.0
 10
68.558832
 20
185.847771
 30
0.0
 10
68.635800
 20
185.847771
 30
0.0
  0
SPLINE
  5
143
100
AcDbEntity
  8
Layer_1
 62
7
100
AcDbSpline
 70
8
 71
3
 72
8
 73
4
 74
0
 40
0
 40
0
 40
0
 40
0
 40
1
 40
1
 40
1
 40
1
 10
68.635800
 20
185.847771
 30
0.0
 10
68.690590
 20
185.847771
 30
0.0
 10
68.746359
 20
185.861469
 30
0.0
 10
68.803108
 20
185.888865
 30
0.0
  0
SPLINE
  5
144
100
AcDbEntity
  8
Layer_1
 62
7
100
AcDbSpline
 70
8
 71
3
 72
8
 73
4
 74
0
 40
0
 40
0
 40
0
 40
0
 40
1
 40
1
 40
1
 40
1
 10
68.803108
 20
185.888865
 30
0.0
 10
68.860507
 20
185.916260
 30
0.0
 10
68.913341
 20
185.946265
 30
0.0
 10
68.961609
 20
185.978879
 30
0.0
  0
LINE
  5
145
100
AcDbEntity
  8
Layer_1
 62
7
100
AcDbLine
 10
68.961609
 20
185.978879
 30
0.0
 11
69.106413
 21
186.606039
 31
0.0
  0
LINE
  5
146
100
AcDbEntity
  8
Layer_1
 62
7
100
AcDbLine
 10
68.223889
 20
186.608970
 30
0.0
 11
68.214096
 21
186.608970
 31
0.0
  0
SPLINE
  5
147
100
AcDbEntity
  8
Layer_1
 62
7
100
AcDbSpline
 70
8
 71
3
 72
8
 73
4
 74
0
 40
0
 40
0
 40
0
 40
0
 40
1
 40
1
 40
1
 40
1
 10
68.214096
 20
186.608970
 30
0.0
 10
68.188006
 20
186.615499
 30
0.0
 10
68.163546
 20
186.620065
 30
0.0
 10
68.140715
 20
186.622671
 30
0.0
  0
SPLINE
  5
148
100
AcDbEntity
  8
Layer_1
 62
7
100
AcDbSpline
 70
8
 71
3
 72
8
 73
4
 74
0
 40
0
 40
0
 40
0
 40
0
 40
1
 40
1
 40
1
 40
1
 10
68.140715
 20
186.622671
 30
0.0
 10
68.118539
 20
186.625927
 30
0.0
 10
68.091470
 20
186.627555
 30
0.0
 10
68.059507
 20
186.627555
 30
0.0
  0
SPLINE
  5
149
100
AcDbEntity
  8
Layer_1
 62
7
100
AcDbSpline
 70
8
 71
3
 72
8
 73
4
 74
0
 40
0
 40
0
 40
0
 40
0
 40
1
 40
1
 40
1
 40
1
 10
68.059507
 20
186.627555
 30
0.0
 10
67.998195
 20
186.627555
 30
0.0
 10
67.937208
 20
186.613531
 30
0.0
 10
67.876545
 20
186.585482
 30
0.0
  0
SPLINE
  5
14a
100
AcDbEntity
  8
Layer_1
 62
7
100
AcDbSpline
 70
8
 71
3
 72
8
 73
4
 74
0
 40
0
 40
0
 40
0
 40
0
 40
1
 40
1
 40
1
 40
1
 10
67.876545
 20
186.585482
 30
0.0
 10
67.816537
 20
186.558088
 30
0.0
 10
67.758812
 20
186.524822
 30
0.0
 10
67.703369
 20
186.485685
 30
0.0
  0
LINE
  5
14b
100
AcDbEntity
  8
Layer_1
 62
7
100
AcDbLine
 10
67.703369
 20
186.485685
 30
0.0
 11
67.527255
 21
185.709810
 31
0.0
  0
LINE
  5
14c
100
AcDbEntity
  8
Layer_1
 62
7
100
AcDbLine
 10
67.527255
 20
185.709810
 30
0.0
 11
67.341357
 21
185.709810
 31
0.0
  0
LINE
  5
14d
100
AcDbEntity
  8
Layer_1
 62
7
100
AcDbLine
 10
67.341357
 20
185.709810
 30
0.0
 11
67.590850
 21
186.802690
 31
0.0
  0
LINE
  5
14e
100
AcDbEntity
  8
Layer_1
 62
7
100
AcDbLine
 10
67.590850
 20
186.802690
 30
0.0
 11
67.776748
 21
186.802690
 31
0.0
  0
LINE
  5
14f
100
AcDbEntity
  8
Layer_1
 62
7
100
AcDbLine
 10
67.776748
 20
186.802690
 30
0.0
 11
67.739569
 21
186.641253
 31
0.0
  0
SPLINE
  5
150
100
AcDbEntity
  8
Layer_1
 62
7
100
AcDbSpline
 70
8
 71
3
 72
8
 73
4
 74
0
 40
0
 40
0
 40
0
 40
0
 40
1
 40
1
 40
1
 40
1
 10
67.739569
 20
186.641253
 30
0.0
 10
67.826321
 20
186.701914
 30
0.0
 10
67.899701
 20
186.743985
 30
0.0
 10
67.959709
 20
186.767467
 30
0.0
  0
SPLINE
  5
151
100
AcDbEntity
  8
Layer_1
 62
7
100
AcDbSpline
 70
8
 71
3
 72
8
 73
4
 74
0
 40
0
 40
0
 40
0
 40
0
 40
1
 40
1
 40
1
 40
1
 10
67.959709
 20
186.767467
 30
0.0
 10
68.020372
 20
186.790949
 30
0.0
 10
68.078425
 20
186.802690
 30
0.0
 10
68.133867
 20
186.802690
 30
0.0
  0
SPLINE
  5
152
100
AcDbEntity
  8
Layer_1
 62
7
100
AcDbSpline
 70
8
 71
3
 72
8
 73
4
 74
0
 40
0
 40
0
 40
0
 40
0
 40
1
 40
1
 40
1
 40
1
 10
68.133867
 20
186.802690
 30
0.0
 10
68.165828
 20
186.802690
 30
0.0
 10
68.188984
 20
186.801713
 30
0.0
 10
68.203334
 20
186.799759
 30
0.0
  0
SPLINE
  5
153
100
AcDbEntity
  8
Layer_1
 62
7
100
AcDbSpline
 70
8
 71
3
 72
8
 73
4
 74
0
 40
0
 40
0
 40
0
 40
0
 40
1
 40
1
 40
1
 40
1
 10
68.203334
 20
186.799759
 30
0.0
 10
68.217678
 20
186.798396
 30
0.0
 10
68.238551
 20
186.795458
 30
0.0
 10
68.265952
 20
186.790944
 30
0.0
  0
LINE
  5
154
100
AcDbEntity
  8
Layer_1
 62
7
100
AcDbLine
 10
68.265952
 20
186.790944
 30
0.0
 11
68.223889
 21
186.608970
 31
0.0
  0
SPLINE
  5
155
100
AcDbEntity
  8
Layer_1
 62
7
100
AcDbSpline
 70
8
 71
3
 72
8
 73
4
 74
0
 40
0
 40
0
 40
0
 40
0
 40
1
 40
1
 40
1
 40
1
 10
67.199498
 20
186.416223
 30
0.0
 10
67.199498
 20
186.318383
 30
0.0
 10
67.184496
 20
186.224456
 30
0.0
 10
67.154492
 20
186.134443
 30
0.0
  0
SPLINE
  5
156
100
AcDbEntity
  8
Layer_1
 62
7
100
AcDbSpline
 70
8
 71
3
 72
8
 73
4
 74
0
 40
0
 40
0
 40
0
 40
0
 40
1
 40
1
 40
1
 40
1
 10
67.154492
 20
186.134443
 30
0.0
 10
67.124487
 20
186.044429
 30
0.0
 10
67.082089
 20
185.966156
 30
0.0
 10
67.027299
 20
185.899625
 30
0.0
  0
SPLINE
  5
157
100
AcDbEntity
  8
Layer_1
 62
7
100
AcDbSpline
 70
8
 71
3
 72
8
 73
4
 74
0
 40
0
 40
0
 40
0
 40
0
 40
1
 40
1
 40
1
 40
1
 10
67.027299
 20
185.899625
 30
0.0
 10
66.970550
 20
185.830485
 30
0.0
 10
66.904997
 20
185.776346
 30
0.0
 10
66.830639
 20
185.737209
 30
0.0
  0
SPLINE
  5
158
100
AcDbEntity
  8
Layer_1
 62
7
100
AcDbSpline
 70
8
 71
3
 72
8
 73
4
 74
0
 40
0
 40
0
 40
0
 40
0
 40
1
 40
1
 40
1
 40
1
 10
66.830639
 20
185.737209
 30
0.0
 10
66.756280
 20
185.698725
 30
0.0
 10
66.669527
 20
185.679484
 30
0.0
 10
66.570381
 20
185.679484
 30
0.0
  0
SPLINE
  5
159
100
AcDbEntity
  8
Layer_1
 62
7
100
AcDbSpline
 70
8
 71
3
 72
8
 73
4
 74
0
 40
0
 40
0
 40
0
 40
0
 40
1
 40
1
 40
1
 40
1
 10
66.570381
 20
185.679484
 30
0.0
 10
66.440581
 20
185.679484
 30
0.0
 10
66.339152
 20
185.716337
 30
0.0
 10
66.266097
 20
185.790044
 30
0.0
  0
SPLINE
  5
15a
100
AcDbEntity
  8
Layer_1
 62
7
100
AcDbSpline
 70
8
 71
3
 72
8
 73
4
 74
0
 40
0
 40
0
 40
0
 40
0
 40
1
 40
1
 40
1
 40
1
 10
66.266097
 20
185.790044
 30
0.0
 10
66.193696
 20
185.864402
 30
0.0
 10
66.157495
 20
185.966809
 30
0.0
 10
66.157495
 20
186.097264
 30
0.0
  0
SPLINE
  5
15b
100
AcDbEntity
  8
Layer_1
 62
7
100
AcDbSpline
 70
8
 71
3
 72
8
 73
4
 74
0
 40
0
 40
0
 40
0
 40
0
 40
1
 40
1
 40
1
 40
1
 10
66.157495
 20
186.097264
 30
0.0
 10
66.157495
 20
186.195104
 30
0.0
 10
66.172171
 20
186.288378
 30
0.0
 10
66.201522
 20
186.377088
 30
0.0
  0
SPLINE
  5
15c
100
AcDbEntity
  8
Layer_1
 62
7
100
AcDbSpline
 70
8
 71
3
 72
8
 73
4
 74
0
 40
0
 40
0
 40
0
 40
0
 40
1
 40
1
 40
1
 40
1
 10
66.201522
 20
186.377088
 30
0.0
 10
66.231528
 20
186.465796
 30
0.0
 10
66.274578
 20
186.544720
 30
0.0
 10
66.330672
 20
186.613862
 30
0.0
  0
SPLINE
  5
15d
100
AcDbEntity
  8
Layer_1
 62
7
100
AcDbSpline
 70
8
 71
3
 72
8
 73
4
 74
0
 40
0
 40
0
 40
0
 40
0
 40
1
 40
1
 40
1
 40
1
 10
66.330672
 20
186.613862
 30
0.0
 10
66.384811
 20
186.680394
 30
0.0
 10
66.451017
 20
186.733554
 30
0.0
 10
66.529290
 20
186.773343
 30
0.0
  0
SPLINE
  5
15e
100
AcDbEntity
  8
Layer_1
 62
7
100
AcDbSpline
 70
8
 71
3
 72
8
 73
4
 74
0
 40
0
 40
0
 40
0
 40
0
 40
1
 40
1
 40
1
 40
1
 10
66.529290
 20
186.773343
 30
0.0
 10
66.608215
 20
186.813130
 30
0.0
 10
66.694315
 20
186.833024
 30
0.0
 10
66.787589
 20
186.833024
 30
0.0
  0
SPLINE
  5
15f
100
AcDbEntity
  8
Layer_1
 62
7
100
AcDbSpline
 70
8
 71
3
 72
8
 73
4
 74
0
 40
0
 40
0
 40
0
 40
0
 40
1
 40
1
 40
1
 40
1
 10
66.787589
 20
186.833024
 30
0.0
 10
66.913478
 20
186.833024
 30
0.0
 10
67.013601
 20
186.797149
 30
0.0
 10
67.087959
 20
186.725399
 30
0.0
  0
SPLINE
  5
160
100
AcDbEntity
  8
Layer_1
 62
7
100
AcDbSpline
 70
8
 71
3
 72
8
 73
4
 74
0
 40
0
 40
0
 40
0
 40
0
 40
1
 40
1
 40
1
 40
1
 10
67.087959
 20
186.725399
 30
0.0
 10
67.162319
 20
186.653649
 30
0.0
 10
67.199498
 20
186.550591
 30
0.0
 10
67.199498
 20
186.416223
 30
0.0
  0
LINE
  5
161
100
AcDbEntity
  8
Layer_1
 62
7
100
AcDbLine
 10
67.199498
 20
186.416223
 30
0.0
 11
67.199498
 21
186.416223
 31
0.0
  0
SPLINE
  5
162
100
AcDbEntity
  8
Layer_1
 62
7
100
AcDbSpline
 70
8
 71
3
 72
8
 73
4
 74
0
 40
0
 40
0
 40
0
 40
0
 40
1
 40
1
 40
1
 40
1
 10
66.900105
 20
186.003337
 30
0.0
 10
66.935328
 20
186.055517
 30
0.0
 10
66.962070
 20
186.115852
 30
0.0
 10
66.980334
 20
186.184340
 30
0.0
  0
SPLINE
  5
163
100
AcDbEntity
  8
Layer_1
 62
7
100
AcDbSpline
 70
8
 71
3
 72
8
 73
4
 74
0
 40
0
 40
0
 40
0
 40
0
 40
1
 40
1
 40
1
 40
1
 10
66.980334
 20
186.184340
 30
0.0
 10
66.999251
 20
186.252829
 30
0.0
 10
67.008709
 20
186.325232
 30
0.0
 10
67.008709
 20
186.401548
 30
0.0
  0
SPLINE
  5
164
100
AcDbEntity
  8
Layer_1
 62
7
100
AcDbSpline
 70
8
 71
3
 72
8
 73
4
 74
0
 40
0
 40
0
 40
0
 40
0
 40
1
 40
1
 40
1
 40
1
 10
67.008709
 20
186.401548
 30
0.0
 10
67.008709
 20
186.492866
 30
0.0
 10
66.986858
 20
186.562007
 30
0.0
 10
66.943155
 20
186.608970
 30
0.0
  0
SPLINE
  5
165
100
AcDbEntity
  8
Layer_1
 62
7
100
AcDbSpline
 70
8
 71
3
 72
8
 73
4
 74
0
 40
0
 40
0
 40
0
 40
0
 40
1
 40
1
 40
1
 40
1
 10
66.943155
 20
186.608970
 30
0.0
 10
66.899453
 20
186.655934
 30
0.0
 10
66.837813
 20
186.679416
 30
0.0
 10
66.758237
 20
186.679416
 30
0.0
  0
SPLINE
  5
166
100
AcDbEntity
  8
Layer_1
 62
7
100
AcDbSpline
 70
8
 71
3
 72
8
 73
4
 74
0
 40
0
 40
0
 40
0
 40
0
 40
1
 40
1
 40
1
 40
1
 10
66.758237
 20
186.679416
 30
0.0
 10
66.694967
 20
186.679416
 30
0.0
 10
66.638219
 20
186.664088
 30
0.0
 10
66.587994
 20
186.633431
 30
0.0
  0
SPLINE
  5
167
100
AcDbEntity
  8
Layer_1
 62
7
100
AcDbSpline
 70
8
 71
3
 72
8
 73
4
 74
0
 40
0
 40
0
 40
0
 40
0
 40
1
 40
1
 40
1
 40
1
 10
66.587994
 20
186.633431
 30
0.0
 10
66.537769
 20
186.603425
 30
0.0
 10
66.494393
 20
186.562006
 30
0.0
 10
66.457865
 20
186.509173
 30
0.0
  0
SPLINE
  5
168
100
AcDbEntity
  8
Layer_1
 62
7
100
AcDbSpline
 70
8
 71
3
 72
8
 73
4
 74
0
 40
0
 40
0
 40
0
 40
0
 40
1
 40
1
 40
1
 40
1
 10
66.457865
 20
186.509173
 30
0.0
 10
66.422643
 20
186.457642
 30
0.0
 10
66.395574
 20
186.397307
 30
0.0
 10
66.376657
 20
186.328167
 30
0.0
  0
SPLINE
  5
169
100
AcDbEntity
  8
Layer_1
 62
7
100
AcDbSpline
 70
8
 71
3
 72
8
 73
4
 74
0
 40
0
 40
0
 40
0
 40
0
 40
1
 40
1
 40
1
 40
1
 10
66.376657
 20
186.328167
 30
0.0
 10
66.357742
 20
186.259026
 30
0.0
 10
66.348284
 20
186.187276
 30
0.0
 10
66.348284
 20
186.112918
 30
0.0
  0
SPLINE
  5
16a
100
AcDbEntity
  8
Layer_1
 62
7
100
AcDbSpline
 70
8
 71
3
 72
8
 73
4
 74
0
 40
0
 40
0
 40
0
 40
0
 40
1
 40
1
 40
1
 40
1
 10
66.348284
 20
186.112918
 30
0.0
 10
66.348284
 20
186.022904
 30
0.0
 10
66.370136
 20
185.953763
 30
0.0
 10
66.413838
 20
185.905496
 30
0.0
  0
SPLINE
  5
16b
100
AcDbEntity
  8
Layer_1
 62
7
100
AcDbSpline
 70
8
 71
3
 72
8
 73
4
 74
0
 40
0
 40
0
 40
0
 40
0
 40
1
 40
1
 40
1
 40
1
 10
66.413838
 20
185.905496
 30
0.0
 10
66.457540
 20
185.857228
 30
0.0
 10
66.519505
 20
185.833094
 30
0.0
 10
66.599736
 20
185.833094
 30
0.0
  0
SPLINE
  5
16c
100
AcDbEntity
  8
Layer_1
 62
7
100
AcDbSpline
 70
8
 71
3
 72
8
 73
4
 74
0
 40
0
 40
0
 40
0
 40
0
 40
1
 40
1
 40
1
 40
1
 10
66.599736
 20
185.833094
 30
0.0
 10
66.662354
 20
185.833094
 30
0.0
 10
66.719101
 20
185.848096
 30
0.0
 10
66.769977
 20
185.878100
 30
0.0
  0
SPLINE
  5
16d
100
AcDbEntity
  8
Layer_1
 62
7
100
AcDbSpline
 70
8
 71
3
 72
8
 73
4
 74
0
 40
0
 40
0
 40
0
 40
0
 40
1
 40
1
 40
1
 40
1
 10
66.769977
 20
185.878100
 30
0.0
 10
66.820854
 20
185.908104
 30
0.0
 10
66.864231
 20
185.949850
 30
0.0
 10
66.900105
 20
186.003337
 30
0.0
  0
LINE
  5
16e
100
AcDbEntity
  8
Layer_1
 62
7
100
AcDbLine
 10
66.900105
 20
186.003337
 30
0.0
 11
66.900105
 21
186.003337
 31
0.0
  0
SPLINE
  5
16f
100
AcDbEntity
  8
Layer_1
 62
7
100
AcDbSpline
 70
8
 71
3
 72
8
 73
4
 74
0
 40
0
 40
0
 40
0
 40
0
 40
1
 40
1
 40
1
 40
1
 10
65.952029
 20
186.553200
 30
0.0
 10
65.952029
 20
186.537546
 30
0.0
 10
65.950401
 20
186.516347
 30
0.0
 10
65.947145
 20
186.489604
 30
0.0
  0
SPLINE
  5
170
100
AcDbEntity
  8
Layer_1
 62
7
100
AcDbSpline
 70
8
 71
3
 72
8
 73
4
 74
0
 40
0
 40
0
 40
0
 40
0
 40
1
 40
1
 40
1
 40
1
 10
65.947145
 20
186.489604
 30
0.0
 10
65.944539
 20
186.462861
 30
0.0
 10
65.940624
 20
186.439379
 30
0.0
 10
65.935398
 20
186.419158
 30
0.0
  0
LINE
  5
171
100
AcDbEntity
  8
Layer_1
 62
7
100
AcDbLine
 10
65.935398
 20
186.419158
 30
0.0
 11
65.771026
 21
185.709815
 31
0.0
  0
LINE
  5
172
100
AcDbEntity
  8
Layer_1
 62
7
100
AcDbLine
 10
65.771026
 20
185.709815
 30
0.0
 11
65.587087
 21
185.709815
 31
0.0
  0
LINE
  5
173
100
AcDbEntity
  8
Layer_1
 62
7
100
AcDbLine
 10
65.587087
 20
185.709815
 30
0.0
 11
65.730912
 21
186.332079
 31
0.0
  0
SPLINE
  5
174
100
AcDbEntity
  8
Layer_1
 62
7
100
AcDbSpline
 70
8
 71
3
 72
8
 73
4
 74
0
 40
0
 40
0
 40
0
 40
0
 40
1
 40
1
 40
1
 40
1
 10
65.730912
 20
186.332079
 30
0.0
 10
65.738742
 20
186.366650
 30
0.0
 10
65.744612
 20
186.396655
 30
0.0
 10
65.748520
 20
186.422094
 30
0.0
  0
SPLINE
  5
175
100
AcDbEntity
  8
Layer_1
 62
7
100
AcDbSpline
 70
8
 71
3
 72
8
 73
4
 74
0
 40
0
 40
0
 40
0
 40
0
 40
1
 40
1
 40
1
 40
1
 10
65.748520
 20
186.422094
 30
0.0
 10
65.753079
 20
186.448185
 30
0.0
 10
65.755358
 20
186.473950
 30
0.0
 10
65.755358
 20
186.499387
 30
0.0
  0
SPLINE
  5
176
100
AcDbEntity
  8
Layer_1
 62
7
100
AcDbSpline
 70
8
 71
3
 72
8
 73
4
 74
0
 40
0
 40
0
 40
0
 40
0
 40
1
 40
1
 40
1
 40
1
 10
65.755358
 20
186.499387
 30
0.0
 10
65.755358
 20
186.554179
 30
0.0
 10
65.741660
 20
186.595272
 30
0.0
 10
65.714265
 20
186.622668
 30
0.0
  0
SPLINE
  5
177
100
AcDbEntity
  8
Layer_1
 62
7
100
AcDbSpline
 70
8
 71
3
 72
8
 73
4
 74
0
 40
0
 40
0
 40
0
 40
0
 40
1
 40
1
 40
1
 40
1
 10
65.714265
 20
186.622668
 30
0.0
 10
65.687522
 20
186.650715
 30
0.0
 10
65.638928
 20
186.664739
 30
0.0
 10
65.568484
 20
186.664739
 30
0.0
  0
SPLINE
  5
178
100
AcDbEntity
  8
Layer_1
 62
7
100
AcDbSpline
 70
8
 71
3
 72
8
 73
4
 74
0
 40
0
 40
0
 40
0
 40
0
 40
1
 40
1
 40
1
 40
1
 10
65.568484
 20
186.664739
 30
0.0
 10
65.518910
 20
186.664739
 30
0.0
 10
65.464120
 20
186.651041
 30
0.0
 10
65.404112
 20
186.623645
 30
0.0
  0
SPLINE
  5
179
100
AcDbEntity
  8
Layer_1
 62
7
100
AcDbSpline
 70
8
 71
3
 72
8
 73
4
 74
0
 40
0
 40
0
 40
0
 40
0
 40
1
 40
1
 40
1
 40
1
 10
65.404112
 20
186.623645
 30
0.0
 10
65.344755
 20
186.596249
 30
0.0
 10
65.286702
 20
186.563636
 30
0.0
 10
65.229954
 20
186.525806
 30
0.0
  0
LINE
  5
17a
100
AcDbEntity
  8
Layer_1
 62
7
100
AcDbLine
 10
65.229954
 20
186.525806
 30
0.0
 11
65.041121
 21
185.709815
 31
0.0
  0
LINE
  5
17b
100
AcDbEntity
  8
Layer_1
 62
7
100
AcDbLine
 10
65.041121
 20
185.709815
 30
0.0
 11
64.857182
 21
185.709815
 31
0.0
  0
LINE
  5
17c
100
AcDbEntity
  8
Layer_1
 62
7
100
AcDbLine
 10
64.857182
 20
185.709815
 30
0.0
 11
65.208429
 21
187.232214
 31
0.0
  0
LINE
  5
17d
100
AcDbEntity
  8
Layer_1
 62
7
100
AcDbLine
 10
65.208429
 20
187.232214
 30
0.0
 11
65.392370
 21
187.232214
 31
0.0
  0
LINE
  5
17e
100
AcDbEntity
  8
Layer_1
 62
7
100
AcDbLine
 10
65.392370
 20
187.232214
 30
0.0
 11
65.265177
 21
186.681372
 31
0.0
  0
SPLINE
  5
17f
100
AcDbEntity
  8
Layer_1
 62
7
100
AcDbSpline
 70
8
 71
3
 72
8
 73
4
 74
0
 40
0
 40
0
 40
0
 40
0
 40
1
 40
1
 40
1
 40
1
 10
65.265177
 20
186.681372
 30
0.0
 10
65.334969
 20
186.730293
 30
0.0
 10
65.400196
 20
186.767798
 30
0.0
 10
65.460857
 20
186.793888
 30
0.0
  0
SPLINE
  5
180
100
AcDbEntity
  8
Layer_1
 62
7
100
AcDbSpline
 70
8
 71
3
 72
8
 73
4
 74
0
 40
0
 40
0
 40
0
 40
0
 40
1
 40
1
 40
1
 40
1
 10
65.460857
 20
186.793888
 30
0.0
 10
65.522171
 20
186.819979
 30
0.0
 10
65.585115
 20
186.833024
 30
0.0
 10
65.649690
 20
186.833024
 30
0.0
  0
SPLINE
  5
181
100
AcDbEntity
  8
Layer_1
 62
7
100
AcDbSpline
 70
8
 71
3
 72
8
 73
4
 74
0
 40
0
 40
0
 40
0
 40
0
 40
1
 40
1
 40
1
 40
1
 10
65.649690
 20
186.833024
 30
0.0
 10
65.744921
 20
186.833024
 30
0.0
 10
65.818955
 20
186.808890
 30
0.0
 10
65.871789
 20
186.760622
 30
0.0
  0
SPLINE
  5
182
100
AcDbEntity
  8
Layer_1
 62
7
100
AcDbSpline
 70
8
 71
3
 72
8
 73
4
 74
0
 40
0
 40
0
 40
0
 40
0
 40
1
 40
1
 40
1
 40
1
 10
65.871789
 20
186.760622
 30
0.0
 10
65.925275
 20
186.713007
 30
0.0
 10
65.952018
 20
186.643866
 30
0.0
 10
65.952018
 20
186.553200
 30
0.0
  0
LINE
  5
183
100
AcDbEntity
  8
Layer_1
 62
7
100
AcDbLine
 10
65.952018
 20
186.553200
 30
0.0
 11
65.952029
 21
186.553200
 31
0.0
  0
SPLINE
  5
184
100
AcDbEntity
  8
Layer_1
 62
7
100
AcDbSpline
 70
8
 71
3
 72
8
 73
4
 74
0
 40
0
 40
0
 40
0
 40
0
 40
1
 40
1
 40
1
 40
1
 10
64.125344
 20
185.683396
 30
0.0
 10
63.940751
 20
185.683396
 30
0.0
 10
63.795948
 20
185.731012
 30
0.0
 10
63.690933
 20
185.826244
 30
0.0
  0
SPLINE
  5
185
100
AcDbEntity
  8
Layer_1
 62
7
100
AcDbSpline
 70
8
 71
3
 72
8
 73
4
 74
0
 40
0
 40
0
 40
0
 40
0
 40
1
 40
1
 40
1
 40
1
 10
63.690933
 20
185.826244
 30
0.0
 10
63.585916
 20
185.922128
 30
0.0
 10
63.533408
 20
186.057801
 30
0.0
 10
63.533408
 20
186.233261
 30
0.0
  0
SPLINE
  5
186
100
AcDbEntity
  8
Layer_1
 62
7
100
AcDbSpline
 70
8
 71
3
 72
8
 73
4
 74
0
 40
0
 40
0
 40
0
 40
0
 40
1
 40
1
 40
1
 40
1
 10
63.533408
 20
186.233261
 30
0.0
 10
63.533408
 20
186.367629
 30
0.0
 10
63.553629
 20
186.492865
 30
0.0
 10
63.594071
 20
186.608970
 30
0.0
  0
SPLINE
  5
187
100
AcDbEntity
  8
Layer_1
 62
7
100
AcDbSpline
 70
8
 71
3
 72
8
 73
4
 74
0
 40
0
 40
0
 40
0
 40
0
 40
1
 40
1
 40
1
 40
1
 10
63.594071
 20
186.608970
 30
0.0
 10
63.634511
 20
186.725074
 30
0.0
 10
63.692563
 20
186.826828
 30
0.0
 10
63.768226
 20
186.914232
 30
0.0
  0
SPLINE
  5
188
100
AcDbEntity
  8
Layer_1
 62
7
100
AcDbSpline
 70
8
 71
3
 72
8
 73
4
 74
0
 40
0
 40
0
 40
0
 40
0
 40
1
 40
1
 40
1
 40
1
 10
63.768226
 20
186.914232
 30
0.0
 10
63.843237
 20
187.000331
 30
0.0
 10
63.935533
 20
187.068168
 30
0.0
 10
64.045115
 20
187.117742
 30
0.0
  0
SPLINE
  5
189
100
AcDbEntity
  8
Layer_1
 62
7
100
AcDbSpline
 70
8
 71
3
 72
8
 73
4
 74
0
 40
0
 40
0
 40
0
 40
0
 40
1
 40
1
 40
1
 40
1
 10
64.045115
 20
187.117742
 30
0.0
 10
64.154696
 20
187.167966
 30
0.0
 10
64.276997
 20
187.193079
 30
0.0
 10
64.412018
 20
187.193079
 30
0.0
  0
SPLINE
  5
18a
100
AcDbEntity
  8
Layer_1
 62
7
100
AcDbSpline
 70
8
 71
3
 72
8
 73
4
 74
0
 40
0
 40
0
 40
0
 40
0
 40
1
 40
1
 40
1
 40
1
 10
64.412018
 20
187.193079
 30
0.0
 10
64.496161
 20
187.193079
 30
0.0
 10
64.575737
 20
187.182642
 30
0.0
 10
64.650748
 20
187.161768
 30
0.0
  0
SPLINE
  5
18b
100
AcDbEntity
  8
Layer_1
 62
7
100
AcDbSpline
 70
8
 71
3
 72
8
 73
4
 74
0
 40
0
 40
0
 40
0
 40
0
 40
1
 40
1
 40
1
 40
1
 10
64.650748
 20
187.161768
 30
0.0
 10
64.725759
 20
187.141549
 30
0.0
 10
64.802727
 20
187.109262
 30
0.0
 10
64.881652
 20
187.064906
 30
0.0
  0
LINE
  5
18c
100
AcDbEntity
  8
Layer_1
 62
7
100
AcDbLine
 10
64.881652
 20
187.064906
 30
0.0
 11
64.837625
 21
186.845745
 31
0.0
  0
LINE
  5
18d
100
AcDbEntity
  8
Layer_1
 62
7
100
AcDbLine
 10
64.837625
 20
186.845745
 30
0.0
 11
64.822948
 21
186.845745
 31
0.0
  0
SPLINE
  5
18e
100
AcDbEntity
  8
Layer_1
 62
7
100
AcDbSpline
 70
8
 71
3
 72
8
 73
4
 74
0
 40
0
 40
0
 40
0
 40
0
 40
1
 40
1
 40
1
 40
1
 10
64.822948
 20
186.845745
 30
0.0
 10
64.801423
 20
186.867270
 30
0.0
 10
64.779572
 20
186.887164
 30
0.0
 10
64.757396
 20
186.905428
 30
0.0
  0
SPLINE
  5
18f
100
AcDbEntity
  8
Layer_1
 62
7
100
AcDbSpline
 70
8
 71
3
 72
8
 73
4
 74
0
 40
0
 40
0
 40
0
 40
0
 40
1
 40
1
 40
1
 40
1
 10
64.757396
 20
186.905428
 30
0.0
 10
64.735871
 20
186.924343
 30
0.0
 10
64.703257
 20
186.944889
 30
0.0
 10
64.659554
 20
186.967067
 30
0.0
  0
SPLINE
  5
190
100
AcDbEntity
  8
Layer_1
 62
7
100
AcDbSpline
 70
8
 71
3
 72
8
 73
4
 74
0
 40
0
 40
0
 40
0
 40
0
 40
1
 40
1
 40
1
 40
1
 10
64.659554
 20
186.967067
 30
0.0
 10
64.623680
 20
186.985982
 30
0.0
 10
64.580956
 20
187.001636
 30
0.0
 10
64.531384
 20
187.014029
 30
0.0
  0
SPLINE
  5
191
100
AcDbEntity
  8
Layer_1
 62
7
100
AcDbSpline
 70
8
 71
3
 72
8
 73
4
 74
0
 40
0
 40
0
 40
0
 40
0
 40
1
 40
1
 40
1
 40
1
 10
64.531384
 20
187.014029
 30
0.0
 10
64.481811
 20
187.027071
 30
0.0
 10
64.427020
 20
187.033591
 30
0.0
 10
64.367012
 20
187.033591
 30
0.0
  0
SPLINE
  5
192
100
AcDbEntity
  8
Layer_1
 62
7
100
AcDbSpline
 70
8
 71
3
 72
8
 73
4
 74
0
 40
0
 40
0
 40
0
 40
0
 40
1
 40
1
 40
1
 40
1
 10
64.367012
 20
187.033591
 30
0.0
 10
64.275693
 20
187.033591
 30
0.0
 10
64.191875
 20
187.014349
 30
0.0
 10
64.115560
 20
186.975864
 30
0.0
  0
SPLINE
  5
193
100
AcDbEntity
  8
Layer_1
 62
7
100
AcDbSpline
 70
8
 71
3
 72
8
 73
4
 74
0
 40
0
 40
0
 40
0
 40
0
 40
1
 40
1
 40
1
 40
1
 10
64.115560
 20
186.975864
 30
0.0
 10
64.039244
 20
186.938034
 30
0.0
 10
63.973039
 20
186.884874
 30
0.0
 10
63.916944
 20
186.816386
 30
0.0
  0
SPLINE
  5
194
100
AcDbEntity
  8
Layer_1
 62
7
100
AcDbSpline
 70
8
 71
3
 72
8
 73
4
 74
0
 40
0
 40
0
 40
0
 40
0
 40
1
 40
1
 40
1
 40
1
 10
63.916944
 20
186.816386
 30
0.0
 10
63.862153
 20
186.749854
 30
0.0
 10
63.819103
 20
186.668972
 30
0.0
 10
63.787795
 20
186.573741
 30
0.0
  0
SPLINE
  5
195
100
AcDbEntity
  8
Layer_1
 62
7
100
AcDbSpline
 70
8
 71
3
 72
8
 73
4
 74
0
 40
0
 40
0
 40
0
 40
0
 40
1
 40
1
 40
1
 40
1
 10
63.787795
 20
186.573741
 30
0.0
 10
63.756485
 20
186.478509
 30
0.0
 10
63.740830
 20
186.377081
 30
0.0
 10
63.740830
 20
186.269456
 30
0.0
  0
SPLINE
  5
196
100
AcDbEntity
  8
Layer_1
 62
7
100
AcDbSpline
 70
8
 71
3
 72
8
 73
4
 74
0
 40
0
 40
0
 40
0
 40
0
 40
1
 40
1
 40
1
 40
1
 10
63.740830
 20
186.269456
 30
0.0
 10
63.740830
 20
186.135089
 30
0.0
 10
63.775727
 20
186.030399
 30
0.0
 10
63.845520
 20
185.955386
 30
0.0
  0
SPLINE
  5
197
100
AcDbEntity
  8
Layer_1
 62
7
100
AcDbSpline
 70
8
 71
3
 72
8
 73
4
 74
0
 40
0
 40
0
 40
0
 40
0
 40
1
 40
1
 40
1
 40
1
 10
63.845520
 20
185.955386
 30
0.0
 10
63.915312
 20
185.881028
 30
0.0
 10
64.016089
 20
185.843849
 30
0.0
 10
64.147848
 20
185.843849
 30
0.0
  0
SPLINE
  5
198
100
AcDbEntity
  8
Layer_1
 62
7
100
AcDbSpline
 70
8
 71
3
 72
8
 73
4
 74
0
 40
0
 40
0
 40
0
 40
0
 40
1
 40
1
 40
1
 40
1
 10
64.147848
 20
185.843849
 30
0.0
 10
64.209813
 20
185.843849
 30
0.0
 10
64.268518
 20
185.850696
 30
0.0
 10
64.323962
 20
185.864388
 30
0.0
  0
SPLINE
  5
199
100
AcDbEntity
  8
Layer_1
 62
7
100
AcDbSpline
 70
8
 71
3
 72
8
 73
4
 74
0
 40
0
 40
0
 40
0
 40
0
 40
1
 40
1
 40
1
 40
1
 10
64.323962
 20
185.864388
 30
0.0
 10
64.380056
 20
185.878732
 30
0.0
 10
64.430933
 20
185.896670
 30
0.0
 10
64.476593
 20
185.918201
 30
0.0
  0
SPLINE
  5
19a
100
AcDbEntity
  8
Layer_1
 62
7
100
AcDbSpline
 70
8
 71
3
 72
8
 73
4
 74
0
 40
0
 40
0
 40
0
 40
0
 40
1
 40
1
 40
1
 40
1
 10
64.476593
 20
185.918201
 30
0.0
 10
64.518990
 20
185.938421
 30
0.0
 10
64.557147
 20
185.959621
 30
0.0
 10
64.591065
 20
185.981798
 30
0.0
  0
SPLINE
  5
19b
100
AcDbEntity
  8
Layer_1
 62
7
100
AcDbSpline
 70
8
 71
3
 72
8
 73
4
 74
0
 40
0
 40
0
 40
0
 40
0
 40
1
 40
1
 40
1
 40
1
 10
64.591065
 20
185.981798
 30
0.0
 10
64.624983
 20
186.003975
 30
0.0
 10
64.654009
 20
186.024521
 30
0.0
 10
64.678144
 20
186.043438
 30
0.0
  0
LINE
  5
19c
100
AcDbEntity
  8
Layer_1
 62
7
100
AcDbLine
 10
64.678144
 20
186.043438
 30
0.0
 11
64.691844
 21
186.043438
 31
0.0
  0
LINE
  5
19d
100
AcDbEntity
  8
Layer_1
 62
7
100
AcDbLine
 10
64.691844
 20
186.043438
 30
0.0
 11
64.645859
 21
185.818403
 31
0.0
  0
SPLINE
  5
19e
100
AcDbEntity
  8
Layer_1
 62
7
100
AcDbSpline
 70
8
 71
3
 72
8
 73
4
 74
0
 40
0
 40
0
 40
0
 40
0
 40
1
 40
1
 40
1
 40
1
 10
64.645859
 20
185.818403
 30
0.0
 10
64.577370
 20
185.783832
 30
0.0
 10
64.498445
 20
185.752523
 30
0.0
 10
64.409085
 20
185.724476
 30
0.0
  0
SPLINE
  5
19f
100
AcDbEntity
  8
Layer_1
 62
7
100
AcDbSpline
 70
8
 71
3
 72
8
 73
4
 74
0
 40
0
 40
0
 40
0
 40
0
 40
1
 40
1
 40
1
 40
1
 10
64.409085
 20
185.724476
 30
0.0
 10
64.320375
 20
185.697080
 30
0.0
 10
64.225796
 20
185.683383
 30
0.0
 10
64.125346
 20
185.683383
 30
0.0
  0
LINE
  5
1a0
100
AcDbEntity
  8
Layer_1
 62
7
100
AcDbLine
 10
64.125346
 20
185.683383
 30
0.0
 11
64.125344
 21
185.683396
 31
0.0
  0
LINE
  5
1a1
100
AcDbEntity
  8
Layer_1
 62
7
100
AcDbLine
 10
63.254563
 20
186.258701
 30
0.0
 11
62.644036
 21
186.258701
 31
0.0
  0
LINE
  5
1a2
100
AcDbEntity
  8
Layer_1
 62
7
100
AcDbLine
 10
62.644036
 20
186.258701
 30
0.0
 11
62.685130
 21
186.435792
 31
0.0
  0
LINE
  5
1a3
100
AcDbEntity
  8
Layer_1
 62
7
100
AcDbLine
 10
62.685130
 20
186.435792
 30
0.0
 11
63.295655
 21
186.435792
 31
0.0
  0
LINE
  5
1a4
100
AcDbEntity
  8
Layer_1
 62
7
100
AcDbLine
 10
63.295655
 20
186.435792
 30
0.0
 11
63.254563
 21
186.258701
 31
0.0
  0
SPLINE
  5
1a5
100
AcDbEntity
  8
Layer_1
 62
7
100
AcDbSpline
 70
8
 71
3
 72
8
 73
4
 74
0
 40
0
 40
0
 40
0
 40
0
 40
1
 40
1
 40
1
 40
1
 10
62.374975
 20
186.561027
 30
0.0
 10
62.374975
 20
186.539502
 30
0.0
 10
62.373344
 20
186.516673
 30
0.0
 10
62.370083
 20
186.492539
 30
0.0
  0
SPLINE
  5
1a6
100
AcDbEntity
  8
Layer_1
 62
7
100
AcDbSpline
 70
8
 71
3
 72
8
 73
4
 74
0
 40
0
 40
0
 40
0
 40
0
 40
1
 40
1
 40
1
 40
1
 10
62.370083
 20
186.492539
 30
0.0
 10
62.367475
 20
186.468405
 30
0.0
 10
62.363235
 20
186.443944
 30
0.0
 10
62.357365
 20
186.419158
 30
0.0
  0
LINE
  5
1a7
100
AcDbEntity
  8
Layer_1
 62
7
100
AcDbLine
 10
62.357365
 20
186.419158
 30
0.0
 11
62.192992
 21
185.709815
 31
0.0
  0
LINE
  5
1a8
100
AcDbEntity
  8
Layer_1
 62
7
100
AcDbLine
 10
62.192992
 20
185.709815
 30
0.0
 11
62.009052
 21
185.709815
 31
0.0
  0
LINE
  5
1a9
100
AcDbEntity
  8
Layer_1
 62
7
100
AcDbLine
 10
62.009052
 20
185.709815
 30
0.0
 11
62.152878
 21
186.332079
 31
0.0
  0
SPLINE
  5
1aa
100
AcDbEntity
  8
Layer_1
 62
7
100
AcDbSpline
 70
8
 71
3
 72
8
 73
4
 74
0
 40
0
 40
0
 40
0
 40
0
 40
1
 40
1
 40
1
 40
1
 10
62.152878
 20
186.332079
 30
0.0
 10
62.160705
 20
186.366650
 30
0.0
 10
62.166902
 20
186.398612
 30
0.0
 10
62.171467
 20
186.427965
 30
0.0
  0
SPLINE
  5
1ab
100
AcDbEntity
  8
Layer_1
 62
7
100
AcDbSpline
 70
8
 71
3
 72
8
 73
4
 74
0
 40
0
 40
0
 40
0
 40
0
 40
1
 40
1
 40
1
 40
1
 10
62.171467
 20
186.427965
 30
0.0
 10
62.176685
 20
186.457317
 30
0.0
 10
62.179294
 20
186.484712
 30
0.0
 10
62.179294
 20
186.510150
 30
0.0
  0
SPLINE
  5
1ac
100
AcDbEntity
  8
Layer_1
 62
7
100
AcDbSpline
 70
8
 71
3
 72
8
 73
4
 74
0
 40
0
 40
0
 40
0
 40
0
 40
1
 40
1
 40
1
 40
1
 10
62.179294
 20
186.510150
 30
0.0
 10
62.179294
 20
186.559723
 30
0.0
 10
62.166901
 20
186.597881
 30
0.0
 10
62.142115
 20
186.624624
 30
0.0
  0
SPLINE
  5
1ad
100
AcDbEntity
  8
Layer_1
 62
7
100
AcDbSpline
 70
8
 71
3
 72
8
 73
4
 74
0
 40
0
 40
0
 40
0
 40
0
 40
1
 40
1
 40
1
 40
1
 10
62.142115
 20
186.624624
 30
0.0
 10
62.117328
 20
186.651367
 30
0.0
 10
62.070039
 20
186.664739
 30
0.0
 10
62.000246
 20
186.664739
 30
0.0
  0
SPLINE
  5
1ae
100
AcDbEntity
  8
Layer_1
 62
7
100
AcDbSpline
 70
8
 71
3
 72
8
 73
4
 74
0
 40
0
 40
0
 40
0
 40
0
 40
1
 40
1
 40
1
 40
1
 10
62.000246
 20
186.664739
 30
0.0
 10
61.948716
 20
186.664739
 30
0.0
 10
61.894252
 20
186.650389
 30
0.0
 10
61.836852
 20
186.621689
 30
0.0
  0
SPLINE
  5
1af
100
AcDbEntity
  8
Layer_1
 62
7
100
AcDbSpline
 70
8
 71
3
 72
8
 73
4
 74
0
 40
0
 40
0
 40
0
 40
0
 40
1
 40
1
 40
1
 40
1
 10
61.836852
 20
186.621689
 30
0.0
 10
61.779452
 20
186.592989
 30
0.0
 10
61.722378
 20
186.559397
 30
0.0
 10
61.665631
 20
186.520912
 30
0.0
  0
SPLINE
  5
1b0
100
AcDbEntity
  8
Layer_1
 62
7
100
AcDbSpline
 70
8
 71
3
 72
8
 73
4
 74
0
 40
0
 40
0
 40
0
 40
0
 40
1
 40
1
 40
1
 40
1
 10
61.665631
 20
186.520912
 30
0.0
 10
61.664328
 20
186.504605
 30
0.0
 10
61.662045
 20
186.486016
 30
0.0
 10
61.658783
 20
186.465144
 30
0.0
  0
SPLINE
  5
1b1
100
AcDbEntity
  8
Layer_1
 62
7
100
AcDbSpline
 70
8
 71
3
 72
8
 73
4
 74
0
 40
0
 40
0
 40
0
 40
0
 40
1
 40
1
 40
1
 40
1
 10
61.658783
 20
186.465144
 30
0.0
 10
61.656173
 20
186.444272
 30
0.0
 10
61.652912
 20
186.425682
 30
0.0
 10
61.649000
 20
186.409375
 30
0.0
  0
LINE
  5
1b2
100
AcDbEntity
  8
Layer_1
 62
7
100
AcDbLine
 10
61.649000
 20
186.409375
 30
0.0
 11
61.487562
 21
185.709815
 31
0.0
  0
LINE
  5
1b3
100
AcDbEntity
  8
Layer_1
 62
7
100
AcDbLine
 10
61.487562
 20
185.709815
 30
0.0
 11
61.303620
 21
185.709815
 31
0.0
  0
LINE
  5
1b4
100
AcDbEntity
  8
Layer_1
 62
7
100
AcDbLine
 10
61.303620
 20
185.709815
 30
0.0
 11
61.447445
 21
186.332079
 31
0.0
  0
SPLINE
  5
1b5
100
AcDbEntity
  8
Layer_1
 62
7
100
AcDbSpline
 70
8
 71
3
 72
8
 73
4
 74
0
 40
0
 40
0
 40
0
 40
0
 40
1
 40
1
 40
1
 40
1
 10
61.447445
 20
186.332079
 30
0.0
 10
61.455925
 20
186.372521
 30
0.0
 10
61.462773
 20
186.405461
 30
0.0
 10
61.467991
 20
186.430900
 30
0.0
  0
SPLINE
  5
1b6
100
AcDbEntity
  8
Layer_1
 62
7
100
AcDbSpline
 70
8
 71
3
 72
8
 73
4
 74
0
 40
0
 40
0
 40
0
 40
0
 40
1
 40
1
 40
1
 40
1
 10
61.467991
 20
186.430900
 30
0.0
 10
61.473209
 20
186.456990
 30
0.0
 10
61.475818
 20
186.483407
 30
0.0
 10
61.475818
 20
186.510150
 30
0.0
  0
SPLINE
  5
1b7
100
AcDbEntity
  8
Layer_1
 62
7
100
AcDbSpline
 70
8
 71
3
 72
8
 73
4
 74
0
 40
0
 40
0
 40
0
 40
0
 40
1
 40
1
 40
1
 40
1
 10
61.475818
 20
186.510150
 30
0.0
 10
61.475818
 20
186.569506
 30
0.0
 10
61.459511
 20
186.609947
 30
0.0
 10
61.426898
 20
186.631472
 30
0.0
  0
SPLINE
  5
1b8
100
AcDbEntity
  8
Layer_1
 62
7
100
AcDbSpline
 70
8
 71
3
 72
8
 73
4
 74
0
 40
0
 40
0
 40
0
 40
0
 40
1
 40
1
 40
1
 40
1
 10
61.426898
 20
186.631472
 30
0.0
 10
61.394284
 20
186.653650
 30
0.0
 10
61.350256
 20
186.664739
 30
0.0
 10
61.294813
 20
186.664739
 30
0.0
  0
SPLINE
  5
1b9
100
AcDbEntity
  8
Layer_1
 62
7
100
AcDbSpline
 70
8
 71
3
 72
8
 73
4
 74
0
 40
0
 40
0
 40
0
 40
0
 40
1
 40
1
 40
1
 40
1
 10
61.294813
 20
186.664739
 30
0.0
 10
61.255677
 20
186.664739
 30
0.0
 10
61.211975
 20
186.654628
 30
0.0
 10
61.163706
 20
186.634408
 30
0.0
  0
SPLINE
  5
1ba
100
AcDbEntity
  8
Layer_1
 62
7
100
AcDbSpline
 70
8
 71
3
 72
8
 73
4
 74
0
 40
0
 40
0
 40
0
 40
0
 40
1
 40
1
 40
1
 40
1
 10
61.163706
 20
186.634408
 30
0.0
 10
61.115438
 20
186.614840
 30
0.0
 10
61.051190
 20
186.578639
 30
0.0
 10
60.970960
 20
186.525806
 30
0.0
  0
LINE
  5
1bb
100
AcDbEntity
  8
Layer_1
 62
7
100
AcDbLine
 10
60.970960
 20
186.525806
 30
0.0
 11
60.782128
 21
185.709815
 31
0.0
  0
LINE
  5
1bc
100
AcDbEntity
  8
Layer_1
 62
7
100
AcDbLine
 10
60.782128
 20
185.709815
 30
0.0
 11
60.598187
 21
185.709815
 31
0.0
  0
LINE
  5
1bd
100
AcDbEntity
  8
Layer_1
 62
7
100
AcDbLine
 10
60.598187
 20
185.709815
 30
0.0
 11
60.850616
 21
186.802695
 31
0.0
  0
LINE
  5
1be
100
AcDbEntity
  8
Layer_1
 62
7
100
AcDbLine
 10
60.850616
 20
186.802695
 30
0.0
 11
61.034557
 21
186.802695
 31
0.0
  0
LINE
  5
1bf
100
AcDbEntity
  8
Layer_1
 62
7
100
AcDbLine
 10
61.034557
 20
186.802695
 30
0.0
 11
61.006183
 21
186.681372
 31
0.0
  0
SPLINE
  5
1c0
100
AcDbEntity
  8
Layer_1
 62
7
100
AcDbSpline
 70
8
 71
3
 72
8
 73
4
 74
0
 40
0
 40
0
 40
0
 40
0
 40
1
 40
1
 40
1
 40
1
 10
61.006183
 20
186.681372
 30
0.0
 10
61.074671
 20
186.728987
 30
0.0
 10
61.137942
 20
186.766166
 30
0.0
 10
61.195994
 20
186.792909
 30
0.0
  0
SPLINE
  5
1c1
100
AcDbEntity
  8
Layer_1
 62
7
100
AcDbSpline
 70
8
 71
3
 72
8
 73
4
 74
0
 40
0
 40
0
 40
0
 40
0
 40
1
 40
1
 40
1
 40
1
 10
61.195994
 20
186.792909
 30
0.0
 10
61.254698
 20
186.819652
 30
0.0
 10
61.316338
 20
186.833024
 30
0.0
 10
61.380913
 20
186.833024
 30
0.0
  0
SPLINE
  5
1c2
100
AcDbEntity
  8
Layer_1
 62
7
100
AcDbSpline
 70
8
 71
3
 72
8
 73
4
 74
0
 40
0
 40
0
 40
0
 40
0
 40
1
 40
1
 40
1
 40
1
 10
61.380913
 20
186.833024
 30
0.0
 10
61.454619
 20
186.833024
 30
0.0
 10
61.514302
 20
186.817370
 30
0.0
 10
61.559961
 20
186.786061
 30
0.0
  0
SPLINE
  5
1c3
100
AcDbEntity
  8
Layer_1
 62
7
100
AcDbSpline
 70
8
 71
3
 72
8
 73
4
 74
0
 40
0
 40
0
 40
0
 40
0
 40
1
 40
1
 40
1
 40
1
 10
61.559961
 20
186.786061
 30
0.0
 10
61.606272
 20
186.754752
 30
0.0
 10
61.636929
 20
186.711375
 30
0.0
 10
61.651931
 20
186.655933
 30
0.0
  0
SPLINE
  5
1c4
100
AcDbEntity
  8
Layer_1
 62
7
100
AcDbSpline
 70
8
 71
3
 72
8
 73
4
 74
0
 40
0
 40
0
 40
0
 40
0
 40
1
 40
1
 40
1
 40
1
 10
61.651931
 20
186.655933
 30
0.0
 10
61.738031
 20
186.718550
 30
0.0
 10
61.815325
 20
186.763557
 30
0.0
 10
61.883814
 20
186.790953
 30
0.0
  0
SPLINE
  5
1c5
100
AcDbEntity
  8
Layer_1
 62
7
100
AcDbSpline
 70
8
 71
3
 72
8
 73
4
 74
0
 40
0
 40
0
 40
0
 40
0
 40
1
 40
1
 40
1
 40
1
 10
61.883814
 20
186.790953
 30
0.0
 10
61.952302
 20
186.819000
 30
0.0
 10
62.019812
 20
186.833024
 30
0.0
 10
62.086344
 20
186.833024
 30
0.0
  0
SPLINE
  5
1c6
100
AcDbEntity
  8
Layer_1
 62
7
100
AcDbSpline
 70
8
 71
3
 72
8
 73
4
 74
0
 40
0
 40
0
 40
0
 40
0
 40
1
 40
1
 40
1
 40
1
 10
62.086344
 20
186.833024
 30
0.0
 10
62.182228
 20
186.833024
 30
0.0
 10
62.254304
 20
186.809216
 30
0.0
 10
62.302572
 20
186.761601
 30
0.0
  0
SPLINE
  5
1c7
100
AcDbEntity
  8
Layer_1
 62
7
100
AcDbSpline
 70
8
 71
3
 72
8
 73
4
 74
0
 40
0
 40
0
 40
0
 40
0
 40
1
 40
1
 40
1
 40
1
 10
62.302572
 20
186.761601
 30
0.0
 10
62.350840
 20
186.713986
 30
0.0
 10
62.374974
 20
186.647128
 30
0.0
 10
62.374974
 20
186.561027
 30
0.0
  0
LINE
  5
1c8
100
AcDbEntity
  8
Layer_1
 62
7
100
AcDbLine
 10
62.374974
 20
186.561027
 30
0.0
 11
62.374975
 21
186.561027
 31
0.0
  0
SPLINE
  5
1c9
100
AcDbEntity
  8
Layer_1
 62
7
100
AcDbSpline
 70
8
 71
3
 72
8
 73
4
 74
0
 40
0
 40
0
 40
0
 40
0
 40
1
 40
1
 40
1
 40
1
 10
60.195085
 20
186.286096
 30
0.0
 10
60.094635
 20
186.282189
 30
0.0
 10
60.005274
 20
186.274361
 30
0.0
 10
59.927001
 20
186.262613
 30
0.0
  0
SPLINE
  5
1ca
100
AcDbEntity
  8
Layer_1
 62
7
100
AcDbSpline
 70
8
 71
3
 72
8
 73
4
 74
0
 40
0
 40
0
 40
0
 40
0
 40
1
 40
1
 40
1
 40
1
 10
59.927001
 20
186.262613
 30
0.0
 10
59.849381
 20
186.251526
 30
0.0
 10
59.785132
 20
186.235219
 30
0.0
 10
59.734255
 20
186.213692
 30
0.0
  0
SPLINE
  5
1cb
100
AcDbEntity
  8
Layer_1
 62
7
100
AcDbSpline
 70
8
 71
3
 72
8
 73
4
 74
0
 40
0
 40
0
 40
0
 40
0
 40
1
 40
1
 40
1
 40
1
 10
59.734255
 20
186.213692
 30
0.0
 10
59.681421
 20
186.192167
 30
0.0
 10
59.641307
 20
186.162815
 30
0.0
 10
59.613911
 20
186.125636
 30
0.0
  0
SPLINE
  5
1cc
100
AcDbEntity
  8
Layer_1
 62
7
100
AcDbSpline
 70
8
 71
3
 72
8
 73
4
 74
0
 40
0
 40
0
 40
0
 40
0
 40
1
 40
1
 40
1
 40
1
 10
59.613911
 20
186.125636
 30
0.0
 10
59.586516
 20
186.089109
 30
0.0
 10
59.572818
 20
186.043450
 30
0.0
 10
59.572818
 20
185.988660
 30
0.0
  0
SPLINE
  5
1cd
100
AcDbEntity
  8
Layer_1
 62
7
100
AcDbSpline
 70
8
 71
3
 72
8
 73
4
 74
0
 40
0
 40
0
 40
0
 40
0
 40
1
 40
1
 40
1
 40
1
 10
59.572818
 20
185.988660
 30
0.0
 10
59.572818
 20
185.941696
 30
0.0
 10
59.588799
 20
185.905821
 30
0.0
 10
59.620760
 20
185.881035
 30
0.0
  0
SPLINE
  5
1ce
100
AcDbEntity
  8
Layer_1
 62
7
100
AcDbSpline
 70
8
 71
3
 72
8
 73
4
 74
0
 40
0
 40
0
 40
0
 40
0
 40
1
 40
1
 40
1
 40
1
 10
59.620760
 20
185.881035
 30
0.0
 10
59.652721
 20
185.856249
 30
0.0
 10
59.702294
 20
185.843856
 30
0.0
 10
59.769478
 20
185.843856
 30
0.0
  0
SPLINE
  5
1cf
100
AcDbEntity
  8
Layer_1
 62
7
100
AcDbSpline
 70
8
 71
3
 72
8
 73
4
 74
0
 40
0
 40
0
 40
0
 40
0
 40
1
 40
1
 40
1
 40
1
 10
59.769478
 20
185.843856
 30
0.0
 10
59.828835
 20
185.843856
 30
0.0
 10
59.889170
 20
185.856901
 30
0.0
 10
59.950483
 20
185.882991
 30
0.0
  0
SPLINE
  5
1d0
100
AcDbEntity
  8
Layer_1
 62
7
100
AcDbSpline
 70
8
 71
3
 72
8
 73
4
 74
0
 40
0
 40
0
 40
0
 40
0
 40
1
 40
1
 40
1
 40
1
 10
59.950483
 20
185.882991
 30
0.0
 10
60.012449
 20
185.909734
 30
0.0
 10
60.070175
 20
185.941696
 30
0.0
 10
60.123661
 20
185.978877
 30
0.0
  0
LINE
  5
1d1
100
AcDbEntity
  8
Layer_1
 62
7
100
AcDbLine
 10
60.123661
 20
185.978877
 30
0.0
 11
60.195085
 21
186.286096
 31
0.0
  0
SPLINE
  5
1d2
100
AcDbEntity
  8
Layer_1
 62
7
100
AcDbSpline
 70
8
 71
3
 72
8
 73
4
 74
0
 40
0
 40
0
 40
0
 40
0
 40
1
 40
1
 40
1
 40
1
 10
60.088439
 20
185.826244
 30
0.0
 10
60.070827
 20
185.815808
 30
0.0
 10
60.046693
 20
185.800806
 30
0.0
 10
60.016036
 20
185.781238
 30
0.0
  0
SPLINE
  5
1d3
100
AcDbEntity
  8
Layer_1
 62
7
100
AcDbSpline
 70
8
 71
3
 72
8
 73
4
 74
0
 40
0
 40
0
 40
0
 40
0
 40
1
 40
1
 40
1
 40
1
 10
60.016036
 20
185.781238
 30
0.0
 10
59.986032
 20
185.762322
 30
0.0
 10
59.955375
 20
185.746016
 30
0.0
 10
59.924066
 20
185.732317
 30
0.0
  0
SPLINE
  5
1d4
100
AcDbEntity
  8
Layer_1
 62
7
100
AcDbSpline
 70
8
 71
3
 72
8
 73
4
 74
0
 40
0
 40
0
 40
0
 40
0
 40
1
 40
1
 40
1
 40
1
 10
59.924066
 20
185.732317
 30
0.0
 10
59.890800
 20
185.717322
 30
0.0
 10
59.853621
 20
185.704929
 30
0.0
 10
59.812528
 20
185.695138
 30
0.0
  0
SPLINE
  5
1d5
100
AcDbEntity
  8
Layer_1
 62
7
100
AcDbSpline
 70
8
 71
3
 72
8
 73
4
 74
0
 40
0
 40
0
 40
0
 40
0
 40
1
 40
1
 40
1
 40
1
 10
59.812528
 20
185.695138
 30
0.0
 10
59.771435
 20
185.684702
 30
0.0
 10
59.724145
 20
185.679484
 30
0.0
 10
59.670659
 20
185.679484
 30
0.0
  0
SPLINE
  5
1d6
100
AcDbEntity
  8
Layer_1
 62
7
100
AcDbSpline
 70
8
 71
3
 72
8
 73
4
 74
0
 40
0
 40
0
 40
0
 40
0
 40
1
 40
1
 40
1
 40
1
 10
59.670659
 20
185.679484
 30
0.0
 10
59.583907
 20
185.679484
 30
0.0
 10
59.513462
 20
185.704596
 30
0.0
 10
59.459323
 20
185.754821
 30
0.0
  0
SPLINE
  5
1d7
100
AcDbEntity
  8
Layer_1
 62
7
100
AcDbSpline
 70
8
 71
3
 72
8
 73
4
 74
0
 40
0
 40
0
 40
0
 40
0
 40
1
 40
1
 40
1
 40
1
 10
59.459323
 20
185.754821
 30
0.0
 10
59.405185
 20
185.805697
 30
0.0
 10
59.378115
 20
185.871903
 30
0.0
 10
59.378115
 20
185.953437
 30
0.0
  0
SPLINE
  5
1d8
100
AcDbEntity
  8
Layer_1
 62
7
100
AcDbSpline
 70
8
 71
3
 72
8
 73
4
 74
0
 40
0
 40
0
 40
0
 40
0
 40
1
 40
1
 40
1
 40
1
 10
59.378115
 20
185.953437
 30
0.0
 10
59.378115
 20
186.040190
 30
0.0
 10
59.397031
 20
186.113244
 30
0.0
 10
59.434863
 20
186.172601
 30
0.0
  0
SPLINE
  5
1d9
100
AcDbEntity
  8
Layer_1
 62
7
100
AcDbSpline
 70
8
 71
3
 72
8
 73
4
 74
0
 40
0
 40
0
 40
0
 40
0
 40
1
 40
1
 40
1
 40
1
 10
59.434863
 20
186.172601
 30
0.0
 10
59.473347
 20
186.232609
 30
0.0
 10
59.530094
 20
186.281529
 30
0.0
 10
59.605106
 20
186.319361
 30
0.0
  0
SPLINE
  5
1da
100
AcDbEntity
  8
Layer_1
 62
7
100
AcDbSpline
 70
8
 71
3
 72
8
 73
4
 74
0
 40
0
 40
0
 40
0
 40
0
 40
1
 40
1
 40
1
 40
1
 10
59.605106
 20
186.319361
 30
0.0
 10
59.678812
 20
186.356541
 30
0.0
 10
59.767521
 20
186.383284
 30
0.0
 10
59.871232
 20
186.399590
 30
0.0
  0
SPLINE
  5
1db
100
AcDbEntity
  8
Layer_1
 62
7
100
AcDbSpline
 70
8
 71
3
 72
8
 73
4
 74
0
 40
0
 40
0
 40
0
 40
0
 40
1
 40
1
 40
1
 40
1
 10
59.871232
 20
186.399590
 30
0.0
 10
59.975596
 20
186.416549
 30
0.0
 10
60.094309
 20
186.426986
 30
0.0
 10
60.227372
 20
186.430900
 30
0.0
  0
SPLINE
  5
1dc
100
AcDbEntity
  8
Layer_1
 62
7
100
AcDbSpline
 70
8
 71
3
 72
8
 73
4
 74
0
 40
0
 40
0
 40
0
 40
0
 40
1
 40
1
 40
1
 40
1
 10
60.227372
 20
186.430900
 30
0.0
 10
60.231286
 20
186.449164
 30
0.0
 10
60.234547
 20
186.464818
 30
0.0
 10
60.237156
 20
186.477862
 30
0.0
  0
SPLINE
  5
1dd
100
AcDbEntity
  8
Layer_1
 62
7
100
AcDbSpline
 70
8
 71
3
 72
8
 73
4
 74
0
 40
0
 40
0
 40
0
 40
0
 40
1
 40
1
 40
1
 40
1
 10
60.237156
 20
186.477862
 30
0.0
 10
60.239765
 20
186.491555
 30
0.0
 10
60.241070
 20
186.505579
 30
0.0
 10
60.241070
 20
186.519935
 30
0.0
  0
SPLINE
  5
1de
100
AcDbEntity
  8
Layer_1
 62
7
100
AcDbSpline
 70
8
 71
3
 72
8
 73
4
 74
0
 40
0
 40
0
 40
0
 40
0
 40
1
 40
1
 40
1
 40
1
 10
60.241070
 20
186.519935
 30
0.0
 10
60.241070
 20
186.551243
 30
0.0
 10
60.234874
 20
186.576681
 30
0.0
 10
60.222481
 20
186.596249
 30
0.0
  0
SPLINE
  5
1df
100
AcDbEntity
  8
Layer_1
 62
7
100
AcDbSpline
 70
8
 71
3
 72
8
 73
4
 74
0
 40
0
 40
0
 40
0
 40
0
 40
1
 40
1
 40
1
 40
1
 10
60.222481
 20
186.596249
 30
0.0
 10
60.210088
 20
186.615819
 30
0.0
 10
60.192476
 20
186.631474
 30
0.0
 10
60.169647
 20
186.643214
 30
0.0
  0
SPLINE
  5
1e0
100
AcDbEntity
  8
Layer_1
 62
7
100
AcDbSpline
 70
8
 71
3
 72
8
 73
4
 74
0
 40
0
 40
0
 40
0
 40
0
 40
1
 40
1
 40
1
 40
1
 10
60.169647
 20
186.643214
 30
0.0
 10
60.146817
 20
186.654953
 30
0.0
 10
60.120074
 20
186.662780
 30
0.0
 10
60.089417
 20
186.666695
 30
0.0
  0
SPLINE
  5
1e1
100
AcDbEntity
  8
Layer_1
 62
7
100
AcDbSpline
 70
8
 71
3
 72
8
 73
4
 74
0
 40
0
 40
0
 40
0
 40
0
 40
1
 40
1
 40
1
 40
1
 10
60.089417
 20
186.666695
 30
0.0
 10
60.059413
 20
186.671254
 30
0.0
 10
60.026147
 20
186.673534
 30
0.0
 10
59.989620
 20
186.673534
 30
0.0
  0
SPLINE
  5
1e2
100
AcDbEntity
  8
Layer_1
 62
7
100
AcDbSpline
 70
8
 71
3
 72
8
 73
4
 74
0
 40
0
 40
0
 40
0
 40
0
 40
1
 40
1
 40
1
 40
1
 10
59.989620
 20
186.673534
 30
0.0
 10
59.934177
 20
186.673534
 30
0.0
 10
59.870907
 20
186.664402
 30
0.0
 10
59.799809
 20
186.646138
 30
0.0
  0
SPLINE
  5
1e3
100
AcDbEntity
  8
Layer_1
 62
7
100
AcDbSpline
 70
8
 71
3
 72
8
 73
4
 74
0
 40
0
 40
0
 40
0
 40
0
 40
1
 40
1
 40
1
 40
1
 10
59.799809
 20
186.646138
 30
0.0
 10
59.728711
 20
186.628527
 30
0.0
 10
59.670985
 20
186.610915
 30
0.0
 10
59.626631
 20
186.593303
 30
0.0
  0
LINE
  5
1e4
100
AcDbEntity
  8
Layer_1
 62
7
100
AcDbLine
 10
59.626631
 20
186.593303
 30
0.0
 11
59.616848
 21
186.593303
 31
0.0
  0
LINE
  5
1e5
100
AcDbEntity
  8
Layer_1
 62
7
100
AcDbLine
 10
59.616848
 20
186.593303
 30
0.0
 11
59.653049
 21
186.777244
 31
0.0
  0
SPLINE
  5
1e6
100
AcDbEntity
  8
Layer_1
 62
7
100
AcDbSpline
 70
8
 71
3
 72
8
 73
4
 74
0
 40
0
 40
0
 40
0
 40
0
 40
1
 40
1
 40
1
 40
1
 10
59.653049
 20
186.777244
 30
0.0
 10
59.690228
 20
186.787029
 30
0.0
 10
59.744693
 20
186.798117
 30
0.0
 10
59.816443
 20
186.810510
 30
0.0
  0
SPLINE
  5
1e7
100
AcDbEntity
  8
Layer_1
 62
7
100
AcDbSpline
 70
8
 71
3
 72
8
 73
4
 74
0
 40
0
 40
0
 40
0
 40
0
 40
1
 40
1
 40
1
 40
1
 10
59.816443
 20
186.810510
 30
0.0
 10
59.888193
 20
186.822900
 30
0.0
 10
59.957007
 20
186.829095
 30
0.0
 10
60.022886
 20
186.829095
 30
0.0
  0
SPLINE
  5
1e8
100
AcDbEntity
  8
Layer_1
 62
7
100
AcDbSpline
 70
8
 71
3
 72
8
 73
4
 74
0
 40
0
 40
0
 40
0
 40
0
 40
1
 40
1
 40
1
 40
1
 10
60.022886
 20
186.829095
 30
0.0
 10
60.158559
 20
186.829095
 30
0.0
 10
60.260313
 20
186.807897
 30
0.0
 10
60.328149
 20
186.765500
 30
0.0
  0
SPLINE
  5
1e9
100
AcDbEntity
  8
Layer_1
 62
7
100
AcDbSpline
 70
8
 71
3
 72
8
 73
4
 74
0
 40
0
 40
0
 40
0
 40
0
 40
1
 40
1
 40
1
 40
1
 10
60.328149
 20
186.765500
 30
0.0
 10
60.395986
 20
186.723101
 30
0.0
 10
60.429904
 20
186.655917
 30
0.0
 10
60.429904
 20
186.563946
 30
0.0
  0
SPLINE
  5
1ea
100
AcDbEntity
  8
Layer_1
 62
7
100
AcDbSpline
 70
8
 71
3
 72
8
 73
4
 74
0
 40
0
 40
0
 40
0
 40
0
 40
1
 40
1
 40
1
 40
1
 10
60.429904
 20
186.563946
 30
0.0
 10
60.429904
 20
186.546335
 30
0.0
 10
60.428273
 20
186.527419
 30
0.0
 10
60.425012
 20
186.507198
 30
0.0
  0
SPLINE
  5
1eb
100
AcDbEntity
  8
Layer_1
 62
7
100
AcDbSpline
 70
8
 71
3
 72
8
 73
4
 74
0
 40
0
 40
0
 40
0
 40
0
 40
1
 40
1
 40
1
 40
1
 10
60.425012
 20
186.507198
 30
0.0
 10
60.422402
 20
186.487630
 30
0.0
 10
60.419141
 20
186.469041
 30
0.0
 10
60.415229
 20
186.451430
 30
0.0
  0
LINE
  5
1ec
100
AcDbEntity
  8
Layer_1
 62
7
100
AcDbLine
 10
60.415229
 20
186.451430
 30
0.0
 11
60.244008
 21
185.709799
 31
0.0
  0
LINE
  5
1ed
100
AcDbEntity
  8
Layer_1
 62
7
100
AcDbLine
 10
60.244008
 20
185.709799
 30
0.0
 11
60.061046
 21
185.709799
 31
0.0
  0
LINE
  5
1ee
100
AcDbEntity
  8
Layer_1
 62
7
100
AcDbLine
 10
60.061046
 20
185.709799
 30
0.0
 11
60.088439
 21
185.826244
 31
0.0
  0
SPLINE
  5
1ef
100
AcDbEntity
  8
Layer_1
 62
7
100
AcDbSpline
 70
8
 71
3
 72
8
 73
4
 74
0
 40
0
 40
0
 40
0
 40
0
 40
1
 40
1
 40
1
 40
1
 10
58.662900
 20
185.683396
 30
0.0
 10
58.478307
 20
185.683396
 30
0.0
 10
58.333503
 20
185.731012
 30
0.0
 10
58.228488
 20
185.826244
 30
0.0
  0
SPLINE
  5
1f0
100
AcDbEntity
  8
Layer_1
 62
7
100
AcDbSpline
 70
8
 71
3
 72
8
 73
4
 74
0
 40
0
 40
0
 40
0
 40
0
 40
1
 40
1
 40
1
 40
1
 10
58.228488
 20
185.826244
 30
0.0
 10
58.123472
 20
185.922128
 30
0.0
 10
58.070964
 20
186.057801
 30
0.0
 10
58.070964
 20
186.233261
 30
0.0
  0
SPLINE
  5
1f1
100
AcDbEntity
  8
Layer_1
 62
7
100
AcDbSpline
 70
8
 71
3
 72
8
 73
4
 74
0
 40
0
 40
0
 40
0
 40
0
 40
1
 40
1
 40
1
 40
1
 10
58.070964
 20
186.233261
 30
0.0
 10
58.070964
 20
186.367629
 30
0.0
 10
58.091185
 20
186.492865
 30
0.0
 10
58.131625
 20
186.608970
 30
0.0
  0
SPLINE
  5
1f2
100
AcDbEntity
  8
Layer_1
 62
7
100
AcDbSpline
 70
8
 71
3
 72
8
 73
4
 74
0
 40
0
 40
0
 40
0
 40
0
 40
1
 40
1
 40
1
 40
1
 10
58.131625
 20
186.608970
 30
0.0
 10
58.172066
 20
186.725074
 30
0.0
 10
58.230118
 20
186.826828
 30
0.0
 10
58.305782
 20
186.914232
 30
0.0
  0
SPLINE
  5
1f3
100
AcDbEntity
  8
Layer_1
 62
7
100
AcDbSpline
 70
8
 71
3
 72
8
 73
4
 74
0
 40
0
 40
0
 40
0
 40
0
 40
1
 40
1
 40
1
 40
1
 10
58.305782
 20
186.914232
 30
0.0
 10
58.380793
 20
187.000331
 30
0.0
 10
58.473089
 20
187.068168
 30
0.0
 10
58.582671
 20
187.117742
 30
0.0
  0
SPLINE
  5
1f4
100
AcDbEntity
  8
Layer_1
 62
7
100
AcDbSpline
 70
8
 71
3
 72
8
 73
4
 74
0
 40
0
 40
0
 40
0
 40
0
 40
1
 40
1
 40
1
 40
1
 10
58.582671
 20
187.117742
 30
0.0
 10
58.692252
 20
187.167966
 30
0.0
 10
58.814553
 20
187.193079
 30
0.0
 10
58.949573
 20
187.193079
 30
0.0
  0
SPLINE
  5
1f5
100
AcDbEntity
  8
Layer_1
 62
7
100
AcDbSpline
 70
8
 71
3
 72
8
 73
4
 74
0
 40
0
 40
0
 40
0
 40
0
 40
1
 40
1
 40
1
 40
1
 10
58.949573
 20
187.193079
 30
0.0
 10
59.033716
 20
187.193079
 30
0.0
 10
59.113293
 20
187.182642
 30
0.0
 10
59.188304
 20
187.161768
 30
0.0
  0
SPLINE
  5
1f6
100
AcDbEntity
  8
Layer_1
 62
7
100
AcDbSpline
 70
8
 71
3
 72
8
 73
4
 74
0
 40
0
 40
0
 40
0
 40
0
 40
1
 40
1
 40
1
 40
1
 10
59.188304
 20
187.161768
 30
0.0
 10
59.263316
 20
187.141549
 30
0.0
 10
59.340284
 20
187.109262
 30
0.0
 10
59.419209
 20
187.064906
 30
0.0
  0
LINE
  5
1f7
100
AcDbEntity
  8
Layer_1
 62
7
100
AcDbLine
 10
59.419209
 20
187.064906
 30
0.0
 11
59.375180
 21
186.845745
 31
0.0
  0
LINE
  5
1f8
100
AcDbEntity
  8
Layer_1
 62
7
100
AcDbLine
 10
59.375180
 20
186.845745
 30
0.0
 11
59.360505
 21
186.845745
 31
0.0
  0
SPLINE
  5
1f9
100
AcDbEntity
  8
Layer_1
 62
7
100
AcDbSpline
 70
8
 71
3
 72
8
 73
4
 74
0
 40
0
 40
0
 40
0
 40
0
 40
1
 40
1
 40
1
 40
1
 10
59.360505
 20
186.845745
 30
0.0
 10
59.338980
 20
186.867270
 30
0.0
 10
59.317129
 20
186.887164
 30
0.0
 10
59.294952
 20
186.905428
 30
0.0
  0
SPLINE
  5
1fa
100
AcDbEntity
  8
Layer_1
 62
7
100
AcDbSpline
 70
8
 71
3
 72
8
 73
4
 74
0
 40
0
 40
0
 40
0
 40
0
 40
1
 40
1
 40
1
 40
1
 10
59.294952
 20
186.905428
 30
0.0
 10
59.273427
 20
186.924343
 30
0.0
 10
59.240813
 20
186.944889
 30
0.0
 10
59.197111
 20
186.967067
 30
0.0
  0
SPLINE
  5
1fb
100
AcDbEntity
  8
Layer_1
 62
7
100
AcDbSpline
 70
8
 71
3
 72
8
 73
4
 74
0
 40
0
 40
0
 40
0
 40
0
 40
1
 40
1
 40
1
 40
1
 10
59.197111
 20
186.967067
 30
0.0
 10
59.161236
 20
186.985982
 30
0.0
 10
59.118513
 20
187.001636
 30
0.0
 10
59.068940
 20
187.014029
 30
0.0
  0
SPLINE
  5
1fc
100
AcDbEntity
  8
Layer_1
 62
7
100
AcDbSpline
 70
8
 71
3
 72
8
 73
4
 74
0
 40
0
 40
0
 40
0
 40
0
 40
1
 40
1
 40
1
 40
1
 10
59.068940
 20
187.014029
 30
0.0
 10
59.019367
 20
187.027071
 30
0.0
 10
58.964577
 20
187.033591
 30
0.0
 10
58.904568
 20
187.033591
 30
0.0
  0
SPLINE
  5
1fd
100
AcDbEntity
  8
Layer_1
 62
7
100
AcDbSpline
 70
8
 71
3
 72
8
 73
4
 74
0
 40
0
 40
0
 40
0
 40
0
 40
1
 40
1
 40
1
 40
1
 10
58.904568
 20
187.033591
 30
0.0
 10
58.813250
 20
187.033591
 30
0.0
 10
58.729433
 20
187.014349
 30
0.0
 10
58.653117
 20
186.975864
 30
0.0
  0
SPLINE
  5
1fe
100
AcDbEntity
  8
Layer_1
 62
7
100
AcDbSpline
 70
8
 71
3
 72
8
 73
4
 74
0
 40
0
 40
0
 40
0
 40
0
 40
1
 40
1
 40
1
 40
1
 10
58.653117
 20
186.975864
 30
0.0
 10
58.576801
 20
186.938034
 30
0.0
 10
58.510596
 20
186.884874
 30
0.0
 10
58.454501
 20
186.816386
 30
0.0
  0
SPLINE
  5
1ff
100
AcDbEntity
  8
Layer_1
 62
7
100
AcDbSpline
 70
8
 71
3
 72
8
 73
4
 74
0
 40
0
 40
0
 40
0
 40
0
 40
1
 40
1
 40
1
 40
1
 10
58.454501
 20
186.816386
 30
0.0
 10
58.399710
 20
186.749854
 30
0.0
 10
58.356660
 20
186.668972
 30
0.0
 10
58.325351
 20
186.573741
 30
0.0
  0
SPLINE
  5
200
100
AcDbEntity
  8
Layer_1
 62
7
100
AcDbSpline
 70
8
 71
3
 72
8
 73
4
 74
0
 40
0
 40
0
 40
0
 40
0
 40
1
 40
1
 40
1
 40
1
 10
58.325351
 20
186.573741
 30
0.0
 10
58.294042
 20
186.478509
 30
0.0
 10
58.278388
 20
186.377081
 30
0.0
 10
58.278388
 20
186.269456
 30
0.0
  0
SPLINE
  5
201
100
AcDbEntity
  8
Layer_1
 62
7
100
AcDbSpline
 70
8
 71
3
 72
8
 73
4
 74
0
 40
0
 40
0
 40
0
 40
0
 40
1
 40
1
 40
1
 40
1
 10
58.278388
 20
186.269456
 30
0.0
 10
58.278388
 20
186.135089
 30
0.0
 10
58.313284
 20
186.030399
 30
0.0
 10
58.383077
 20
185.955386
 30
0.0
  0
SPLINE
  5
202
100
AcDbEntity
  8
Layer_1
 62
7
100
AcDbSpline
 70
8
 71
3
 72
8
 73
4
 74
0
 40
0
 40
0
 40
0
 40
0
 40
1
 40
1
 40
1
 40
1
 10
58.383077
 20
185.955386
 30
0.0
 10
58.452870
 20
185.881028
 30
0.0
 10
58.553646
 20
185.843849
 30
0.0
 10
58.685405
 20
185.843849
 30
0.0
  0
SPLINE
  5
203
100
AcDbEntity
  8
Layer_1
 62
7
100
AcDbSpline
 70
8
 71
3
 72
8
 73
4
 74
0
 40
0
 40
0
 40
0
 40
0
 40
1
 40
1
 40
1
 40
1
 10
58.685405
 20
185.843849
 30
0.0
 10
58.747370
 20
185.843849
 30
0.0
 10
58.806075
 20
185.850696
 30
0.0
 10
58.861518
 20
185.864388
 30
0.0
  0
SPLINE
  5
204
100
AcDbEntity
  8
Layer_1
 62
7
100
AcDbSpline
 70
8
 71
3
 72
8
 73
4
 74
0
 40
0
 40
0
 40
0
 40
0
 40
1
 40
1
 40
1
 40
1
 10
58.861518
 20
185.864388
 30
0.0
 10
58.917613
 20
185.878732
 30
0.0
 10
58.968490
 20
185.896670
 30
0.0
 10
59.014149
 20
185.918201
 30
0.0
  0
SPLINE
  5
205
100
AcDbEntity
  8
Layer_1
 62
7
100
AcDbSpline
 70
8
 71
3
 72
8
 73
4
 74
0
 40
0
 40
0
 40
0
 40
0
 40
1
 40
1
 40
1
 40
1
 10
59.014149
 20
185.918201
 30
0.0
 10
59.056547
 20
185.938421
 30
0.0
 10
59.094705
 20
185.959621
 30
0.0
 10
59.128623
 20
185.981798
 30
0.0
  0
SPLINE
  5
206
100
AcDbEntity
  8
Layer_1
 62
7
100
AcDbSpline
 70
8
 71
3
 72
8
 73
4
 74
0
 40
0
 40
0
 40
0
 40
0
 40
1
 40
1
 40
1
 40
1
 10
59.128623
 20
185.981798
 30
0.0
 10
59.162541
 20
186.003975
 30
0.0
 10
59.191567
 20
186.024521
 30
0.0
 10
59.215701
 20
186.043438
 30
0.0
  0
LINE
  5
207
100
AcDbEntity
  8
Layer_1
 62
7
100
AcDbLine
 10
59.215701
 20
186.043438
 30
0.0
 11
59.229399
 21
186.043438
 31
0.0
  0
LINE
  5
208
100
AcDbEntity
  8
Layer_1
 62
7
100
AcDbLine
 10
59.229399
 20
186.043438
 30
0.0
 11
59.183414
 21
185.818403
 31
0.0
  0
SPLINE
  5
209
100
AcDbEntity
  8
Layer_1
 62
7
100
AcDbSpline
 70
8
 71
3
 72
8
 73
4
 74
0
 40
0
 40
0
 40
0
 40
0
 40
1
 40
1
 40
1
 40
1
 10
59.183414
 20
185.818403
 30
0.0
 10
59.114925
 20
185.783832
 30
0.0
 10
59.036001
 20
185.752523
 30
0.0
 10
58.946639
 20
185.724476
 30
0.0
  0
SPLINE
  5
20a
100
AcDbEntity
  8
Layer_1
 62
7
100
AcDbSpline
 70
8
 71
3
 72
8
 73
4
 74
0
 40
0
 40
0
 40
0
 40
0
 40
1
 40
1
 40
1
 40
1
 10
58.946639
 20
185.724476
 30
0.0
 10
58.857930
 20
185.697080
 30
0.0
 10
58.763351
 20
185.683383
 30
0.0
 10
58.662902
 20
185.683383
 30
0.0
  0
LINE
  5
20b
100
AcDbEntity
  8
Layer_1
 62
7
100
AcDbLine
 10
58.662902
 20
185.683383
 30
0.0
 11
58.662900
 21
185.683396
 31
0.0
  0
SPLINE
  5
20c
100
AcDbEntity
  8
Layer_1
 62
7
100
AcDbSpline
 70
8
 71
3
 72
8
 73
4
 74
0
 40
0
 40
0
 40
0
 40
0
 40
1
 40
1
 40
1
 40
1
 10
56.769880
 20
187.135016
 30
0.0
 10
56.092914
 20
187.248616
 30
0.0
 10
55.621588
 20
187.811233
 30
0.0
 10
55.286722
 20
188.905442
 30
0.0
  0
SPLINE
  5
20d
100
AcDbEntity
  8
Layer_1
 62
7
100
AcDbSpline
 70
8
 71
3
 72
8
 73
4
 74
0
 40
0
 40
0
 40
0
 40
0
 40
1
 40
1
 40
1
 40
1
 10
55.286722
 20
188.905442
 30
0.0
 10
55.084652
 20
189.565728
 30
0.0
 10
54.854707
 20
190.702726
 30
0.0
 10
54.822365
 20
191.201530
 30
0.0
  0
LINE
  5
20e
100
AcDbEntity
  8
Layer_1
 62
7
100
AcDbLine
 10
54.822365
 20
191.201530
 30
0.0
 11
54.790420
 21
191.694215
 31
0.0
  0
LINE
  5
20f
100
AcDbEntity
  8
Layer_1
 62
7
100
AcDbLine
 10
54.790420
 20
191.694215
 30
0.0
 11
54.397824
 21
191.861071
 31
0.0
  0
SPLINE
  5
210
100
AcDbEntity
  8
Layer_1
 62
7
100
AcDbSpline
 70
8
 71
3
 72
8
 73
4
 74
0
 40
0
 40
0
 40
0
 40
0
 40
1
 40
1
 40
1
 40
1
 10
54.397824
 20
191.861071
 30
0.0
 10
54.181896
 20
191.952842
 30
0.0
 10
53.931038
 20
192.020143
 30
0.0
 10
53.840362
 20
192.010632
 30
0.0
  0
SPLINE
  5
211
100
AcDbEntity
  8
Layer_1
 62
7
100
AcDbSpline
 70
8
 71
3
 72
8
 73
4
 74
0
 40
0
 40
0
 40
0
 40
0
 40
1
 40
1
 40
1
 40
1
 10
53.840362
 20
192.010632
 30
0.0
 10
53.749685
 20
192.001113
 30
0.0
 10
53.540866
 20
192.051256
 30
0.0
 10
53.376318
 20
192.122042
 30
0.0
  0
SPLINE
  5
212
100
AcDbEntity
  8
Layer_1
 62
7
100
AcDbSpline
 70
8
 71
3
 72
8
 73
4
 74
0
 40
0
 40
0
 40
0
 40
0
 40
1
 40
1
 40
1
 40
1
 10
53.376318
 20
192.122042
 30
0.0
 10
53.178581
 20
192.207106
 30
0.0
 10
52.933485
 20
192.254313
 30
0.0
 10
52.653461
 20
192.261268
 30
0.0
  0
SPLINE
  5
213
100
AcDbEntity
  8
Layer_1
 62
7
100
AcDbSpline
 70
8
 71
3
 72
8
 73
4
 74
0
 40
0
 40
0
 40
0
 40
0
 40
1
 40
1
 40
1
 40
1
 10
52.653461
 20
192.261268
 30
0.0
 10
52.272034
 20
192.270742
 30
0.0
 10
52.210880
 20
192.289772
 30
0.0
 10
52.040229
 20
192.452130
 30
0.0
  0
SPLINE
  5
214
100
AcDbEntity
  8
Layer_1
 62
7
100
AcDbSpline
 70
8
 71
3
 72
8
 73
4
 74
0
 40
0
 40
0
 40
0
 40
0
 40
1
 40
1
 40
1
 40
1
 10
52.040229
 20
192.452130
 30
0.0
 10
51.747178
 20
192.730936
 30
0.0
 10
51.681068
 20
192.908238
 30
0.0
 10
51.681068
 20
193.415387
 30
0.0
  0
SPLINE
  5
215
100
AcDbEntity
  8
Layer_1
 62
7
100
AcDbSpline
 70
8
 71
3
 72
8
 73
4
 74
0
 40
0
 40
0
 40
0
 40
0
 40
1
 40
1
 40
1
 40
1
 10
51.681068
 20
193.415387
 30
0.0
 10
51.681068
 20
194.391952
 30
0.0
 10
52.289311
 20
195.601031
 30
0.0
 10
52.985973
 20
196.009300
 30
0.0
  0
SPLINE
  5
216
100
AcDbEntity
  8
Layer_1
 62
7
100
AcDbSpline
 70
8
 71
3
 72
8
 73
4
 74
0
 40
0
 40
0
 40
0
 40
0
 40
1
 40
1
 40
1
 40
1
 10
52.985973
 20
196.009300
 30
0.0
 10
53.507877
 20
196.315157
 30
0.0
 10
53.980571
 20
196.214487
 30
0.0
 10
54.312454
 20
195.726799
 30
0.0
  0
SPLINE
  5
217
100
AcDbEntity
  8
Layer_1
 62
7
100
AcDbSpline
 70
8
 71
3
 72
8
 73
4
 74
0
 40
0
 40
0
 40
0
 40
0
 40
1
 40
1
 40
1
 40
1
 10
54.312454
 20
195.726799
 30
0.0
 10
54.396471
 20
195.603339
 30
0.0
 10
54.593353
 20
195.454914
 30
0.0
 10
54.823417
 20
195.341589
 30
0.0
  0
SPLINE
  5
218
100
AcDbEntity
  8
Layer_1
 62
7
100
AcDbSpline
 70
8
 71
3
 72
8
 73
4
 74
0
 40
0
 40
0
 40
0
 40
0
 40
1
 40
1
 40
1
 40
1
 10
54.823417
 20
195.341589
 30
0.0
 10
55.092513
 20
195.209040
 30
0.0
 10
55.223039
 20
195.103626
 30
0.0
 10
55.287868
 20
194.966495
 30
0.0
  0
SPLINE
  5
219
100
AcDbEntity
  8
Layer_1
 62
7
100
AcDbSpline
 70
8
 71
3
 72
8
 73
4
 74
0
 40
0
 40
0
 40
0
 40
0
 40
1
 40
1
 40
1
 40
1
 10
55.287868
 20
194.966495
 30
0.0
 10
55.351450
 20
194.832004
 30
0.0
 10
55.539567
 20
194.676906
 30
0.0
 10
55.925840
 20
194.440504
 30
0.0
  0
SPLINE
  5
21a
100
AcDbEntity
  8
Layer_1
 62
7
100
AcDbSpline
 70
8
 71
3
 72
8
 73
4
 74
0
 40
0
 40
0
 40
0
 40
0
 40
1
 40
1
 40
1
 40
1
 10
55.925840
 20
194.440504
 30
0.0
 10
56.227131
 20
194.256113
 30
0.0
 10
56.513061
 20
194.105246
 30
0.0
 10
56.561238
 20
194.105246
 30
0.0
  0
SPLINE
  5
21b
100
AcDbEntity
  8
Layer_1
 62
7
100
AcDbSpline
 70
8
 71
3
 72
8
 73
4
 74
0
 40
0
 40
0
 40
0
 40
0
 40
1
 40
1
 40
1
 40
1
 10
56.561238
 20
194.105246
 30
0.0
 10
56.711005
 20
194.105246
 30
0.0
 10
57.117577
 20
194.499008
 30
0.0
 10
57.283796
 20
194.805038
 30
0.0
  0
SPLINE
  5
21c
100
AcDbEntity
  8
Layer_1
 62
7
100
AcDbSpline
 70
8
 71
3
 72
8
 73
4
 74
0
 40
0
 40
0
 40
0
 40
0
 40
1
 40
1
 40
1
 40
1
 10
57.283796
 20
194.805038
 30
0.0
 10
57.371049
 20
194.965679
 30
0.0
 10
57.526646
 20
195.381151
 30
0.0
 10
57.629567
 20
195.728306
 30
0.0
  0
SPLINE
  5
21d
100
AcDbEntity
  8
Layer_1
 62
7
100
AcDbSpline
 70
8
 71
3
 72
8
 73
4
 74
0
 40
0
 40
0
 40
0
 40
0
 40
1
 40
1
 40
1
 40
1
 10
57.629567
 20
195.728306
 30
0.0
 10
58.005769
 20
196.997236
 30
0.0
 10
58.129636
 20
197.121612
 30
0.0
 10
59.596096
 20
197.702928
 30
0.0
  0
SPLINE
  5
21e
100
AcDbEntity
  8
Layer_1
 62
7
100
AcDbSpline
 70
8
 71
3
 72
8
 73
4
 74
0
 40
0
 40
0
 40
0
 40
0
 40
1
 40
1
 40
1
 40
1
 10
59.596096
 20
197.702928
 30
0.0
 10
60.169115
 20
197.930076
 30
0.0
 10
62.415964
 20
198.683748
 30
0.0
 10
63.118409
 20
198.884436
 30
0.0
  0
SPLINE
  5
21f
100
AcDbEntity
  8
Layer_1
 62
7
100
AcDbSpline
 70
8
 71
3
 72
8
 73
4
 74
0
 40
0
 40
0
 40
0
 40
0
 40
1
 40
1
 40
1
 40
1
 10
63.118409
 20
198.884436
 30
0.0
 10
63.400117
 20
198.964920
 30
0.0
 10
63.482995
 20
199.019071
 30
0.0
 10
63.562008
 20
199.174287
 30
0.0
  0
SPLINE
  5
220
100
AcDbEntity
  8
Layer_1
 62
7
100
AcDbSpline
 70
8
 71
3
 72
8
 73
4
 74
0
 40
0
 40
0
 40
0
 40
0
 40
1
 40
1
 40
1
 40
1
 10
63.562008
 20
199.174287
 30
0.0
 10
63.993120
 20
200.021152
 30
0.0
 10
64.763437
 20
200.566657
 30
0.0
 10
66.584604
 20
201.314752
 30
0.0
  0
SPLINE
  5
221
100
AcDbEntity
  8
Layer_1
 62
7
100
AcDbSpline
 70
8
 71
3
 72
8
 73
4
 74
0
 40
0
 40
0
 40
0
 40
0
 40
1
 40
1
 40
1
 40
1
 10
66.584604
 20
201.314752
 30
0.0
 10
67.596421
 20
201.730385
 30
0.0
 10
67.954307
 20
201.819156
 30
0.0
 10
68.638565
 20
201.824230
 30
0.0
  0
SPLINE
  5
222
100
AcDbEntity
  8
Layer_1
 62
7
100
AcDbSpline
 70
8
 71
3
 72
8
 73
4
 74
0
 40
0
 40
0
 40
0
 40
0
 40
1
 40
1
 40
1
 40
1
 10
68.638565
 20
201.824230
 30
0.0
 10
69.174793
 20
201.828206
 30
0.0
 10
69.229985
 20
201.817209
 30
0.0
 10
69.426606
 20
201.667239
 30
0.0
  0
SPLINE
  5
223
100
AcDbEntity
  8
Layer_1
 62
7
100
AcDbSpline
 70
8
 71
3
 72
8
 73
4
 74
0
 40
0
 40
0
 40
0
 40
0
 40
1
 40
1
 40
1
 40
1
 10
69.426606
 20
201.667239
 30
0.0
 10
69.886000
 20
201.316842
 30
0.0
 10
69.974549
 20
200.606372
 30
0.0
 10
69.621039
 20
200.107218
 30
0.0
  0
SPLINE
  5
224
100
AcDbEntity
  8
Layer_1
 62
7
100
AcDbSpline
 70
8
 71
3
 72
8
 73
4
 74
0
 40
0
 40
0
 40
0
 40
0
 40
1
 40
1
 40
1
 40
1
 10
69.621039
 20
200.107218
 30
0.0
 10
69.292047
 20
199.642682
 30
0.0
 10
68.878490
 20
199.417577
 30
0.0
 10
67.481147
 20
198.942447
 30
0.0
  0
SPLINE
  5
225
100
AcDbEntity
  8
Layer_1
 62
7
100
AcDbSpline
 70
8
 71
3
 72
8
 73
4
 74
0
 40
0
 40
0
 40
0
 40
0
 40
1
 40
1
 40
1
 40
1
 10
67.481147
 20
198.942447
 30
0.0
 10
66.616646
 20
198.648496
 30
0.0
 10
66.201618
 20
198.479714
 30
0.0
 10
66.208191
 20
198.424765
 30
0.0
  0
SPLINE
  5
226
100
AcDbEntity
  8
Layer_1
 62
7
100
AcDbSpline
 70
8
 71
3
 72
8
 73
4
 74
0
 40
0
 40
0
 40
0
 40
0
 40
1
 40
1
 40
1
 40
1
 10
66.208191
 20
198.424765
 30
0.0
 10
66.213553
 20
198.379925
 30
0.0
 10
66.280331
 20
198.108960
 30
0.0
 10
66.356584
 20
197.822622
 30
0.0
  0
SPLINE
  5
227
100
AcDbEntity
  8
Layer_1
 62
7
100
AcDbSpline
 70
8
 71
3
 72
8
 73
4
 74
0
 40
0
 40
0
 40
0
 40
0
 40
1
 40
1
 40
1
 40
1
 10
66.356584
 20
197.822622
 30
0.0
 10
66.482262
 20
197.350686
 30
0.0
 10
66.488262
 20
197.268297
 30
0.0
 10
66.420754
 20
196.941456
 30
0.0
  0
SPLINE
  5
228
100
AcDbEntity
  8
Layer_1
 62
7
100
AcDbSpline
 70
8
 71
3
 72
8
 73
4
 74
0
 40
0
 40
0
 40
0
 40
0
 40
1
 40
1
 40
1
 40
1
 10
66.420754
 20
196.941456
 30
0.0
 10
66.362366
 20
196.658769
 30
0.0
 10
66.361973
 20
196.546464
 30
0.0
 10
66.418937
 20
196.421441
 30
0.0
  0
SPLINE
  5
229
100
AcDbEntity
  8
Layer_1
 62
7
100
AcDbSpline
 70
8
 71
3
 72
8
 73
4
 74
0
 40
0
 40
0
 40
0
 40
0
 40
1
 40
1
 40
1
 40
1
 10
66.418937
 20
196.421441
 30
0.0
 10
66.503362
 20
196.236146
 30
0.0
 10
66.519791
 20
196.238002
 30
0.0
 10
67.244379
 20
196.514695
 30
0.0
  0
SPLINE
  5
22a
100
AcDbEntity
  8
Layer_1
 62
7
100
AcDbSpline
 70
8
 71
3
 72
8
 73
4
 74
0
 40
0
 40
0
 40
0
 40
0
 40
1
 40
1
 40
1
 40
1
 10
67.244379
 20
196.514695
 30
0.0
 10
67.768484
 20
196.714833
 30
0.0
 10
67.749831
 20
196.691077
 30
0.0
 10
67.822649
 20
197.251180
 30
0.0
  0
SPLINE
  5
22b
100
AcDbEntity
  8
Layer_1
 62
7
100
AcDbSpline
 70
8
 71
3
 72
8
 73
4
 74
0
 40
0
 40
0
 40
0
 40
0
 40
1
 40
1
 40
1
 40
1
 10
67.822649
 20
197.251180
 30
0.0
 10
67.869570
 20
197.612094
 30
0.0
 10
68.004659
 20
198.003109
 30
0.0
 10
68.130448
 20
198.142106
 30
0.0
  0
SPLINE
  5
22c
100
AcDbEntity
  8
Layer_1
 62
7
100
AcDbSpline
 70
8
 71
3
 72
8
 73
4
 74
0
 40
0
 40
0
 40
0
 40
0
 40
1
 40
1
 40
1
 40
1
 10
68.130448
 20
198.142106
 30
0.0
 10
68.278189
 20
198.305358
 30
0.0
 10
69.102280
 20
198.624433
 30
0.0
 10
69.387309
 20
198.628741
 30
0.0
  0
SPLINE
  5
22d
100
AcDbEntity
  8
Layer_1
 62
7
100
AcDbSpline
 70
8
 71
3
 72
8
 73
4
 74
0
 40
0
 40
0
 40
0
 40
0
 40
1
 40
1
 40
1
 40
1
 10
69.387309
 20
198.628741
 30
0.0
 10
69.717558
 20
198.633739
 30
0.0
 10
70.121811
 20
198.399880
 30
0.0
 10
70.372719
 20
198.058696
 30
0.0
  0
SPLINE
  5
22e
100
AcDbEntity
  8
Layer_1
 62
7
100
AcDbSpline
 70
8
 71
3
 72
8
 73
4
 74
0
 40
0
 40
0
 40
0
 40
0
 40
1
 40
1
 40
1
 40
1
 10
70.372719
 20
198.058696
 30
0.0
 10
70.729914
 20
197.572990
 30
0.0
 10
71.151481
 20
196.628143
 30
0.0
 10
71.334545
 20
195.902995
 30
0.0
  0
SPLINE
  5
22f
100
AcDbEntity
  8
Layer_1
 62
7
100
AcDbSpline
 70
8
 71
3
 72
8
 73
4
 74
0
 40
0
 40
0
 40
0
 40
0
 40
1
 40
1
 40
1
 40
1
 10
71.334545
 20
195.902995
 30
0.0
 10
71.626309
 20
194.747256
 30
0.0
 10
71.708691
 20
193.162545
 30
0.0
 10
71.515653
 20
192.419208
 30
0.0
  0
SPLINE
  5
230
100
AcDbEntity
  8
Layer_1
 62
7
100
AcDbSpline
 70
8
 71
3
 72
8
 73
4
 74
0
 40
0
 40
0
 40
0
 40
0
 40
1
 40
1
 40
1
 40
1
 10
71.515653
 20
192.419208
 30
0.0
 10
71.431519
 20
192.095241
 30
0.0
 10
71.189194
 20
191.905895
 30
0.0
 10
70.678087
 20
191.764761
 30
0.0
  0
SPLINE
  5
231
100
AcDbEntity
  8
Layer_1
 62
7
100
AcDbSpline
 70
8
 71
3
 72
8
 73
4
 74
0
 40
0
 40
0
 40
0
 40
0
 40
1
 40
1
 40
1
 40
1
 10
70.678087
 20
191.764761
 30
0.0
 10
70.430784
 20
191.696471
 30
0.0
 10
70.144044
 20
191.640598
 30
0.0
 10
70.040889
 20
191.640598
 30
0.0
  0
SPLINE
  5
232
100
AcDbEntity
  8
Layer_1
 62
7
100
AcDbSpline
 70
8
 71
3
 72
8
 73
4
 74
0
 40
0
 40
0
 40
0
 40
0
 40
1
 40
1
 40
1
 40
1
 10
70.040889
 20
191.640598
 30
0.0
 10
69.856625
 20
191.640598
 30
0.0
 10
69.500548
 20
191.852951
 30
0.0
 10
69.169974
 20
192.159982
 30
0.0
  0
LINE
  5
233
100
AcDbEntity
  8
Layer_1
 62
7
100
AcDbLine
 10
69.169974
 20
192.159982
 30
0.0
 11
69.015621
 21
192.303343
 31
0.0
  0
LINE
  5
234
100
AcDbEntity
  8
Layer_1
 62
7
100
AcDbLine
 10
69.015621
 20
192.303343
 30
0.0
 11
67.877538
 21
191.981960
 31
0.0
  0
LINE
  5
235
100
AcDbEntity
  8
Layer_1
 62
7
100
AcDbLine
 10
67.877538
 20
191.981960
 30
0.0
 11
66.739455
 21
191.660578
 31
0.0
  0
LINE
  5
236
100
AcDbEntity
  8
Layer_1
 62
7
100
AcDbLine
 10
66.739455
 20
191.660578
 30
0.0
 11
66.728049
 21
191.294625
 31
0.0
  0
SPLINE
  5
237
100
AcDbEntity
  8
Layer_1
 62
7
100
AcDbSpline
 70
8
 71
3
 72
8
 73
4
 74
0
 40
0
 40
0
 40
0
 40
0
 40
1
 40
1
 40
1
 40
1
 10
66.728049
 20
191.294625
 30
0.0
 10
66.709623
 20
190.703176
 30
0.0
 10
66.443254
 20
190.311110
 30
0.0
 10
65.856460
 20
190.011752
 30
0.0
  0
SPLINE
  5
238
100
AcDbEntity
  8
Layer_1
 62
7
100
AcDbSpline
 70
8
 71
3
 72
8
 73
4
 74
0
 40
0
 40
0
 40
0
 40
0
 40
1
 40
1
 40
1
 40
1
 10
65.856460
 20
190.011752
 30
0.0
 10
65.726802
 20
189.945602
 30
0.0
 10
65.142055
 20
189.715319
 30
0.0
 10
64.557024
 20
189.500006
 30
0.0
  0
SPLINE
  5
239
100
AcDbEntity
  8
Layer_1
 62
7
100
AcDbSpline
 70
8
 71
3
 72
8
 73
4
 74
0
 40
0
 40
0
 40
0
 40
0
 40
1
 40
1
 40
1
 40
1
 10
64.557024
 20
189.500006
 30
0.0
 10
63.971993
 20
189.284696
 30
0.0
 10
63.182243
 20
188.992301
 30
0.0
 10
62.802026
 20
188.850244
 30
0.0
  0
SPLINE
  5
23a
100
AcDbEntity
  8
Layer_1
 62
7
100
AcDbSpline
 70
8
 71
3
 72
8
 73
4
 74
0
 40
0
 40
0
 40
0
 40
0
 40
1
 40
1
 40
1
 40
1
 10
62.802026
 20
188.850244
 30
0.0
 10
61.750752
 20
188.457463
 30
0.0
 10
57.370185
 20
187.071020
 30
0.0
 10
57.205829
 20
187.079056
 30
0.0
  0
SPLINE
  5
23b
100
AcDbEntity
  8
Layer_1
 62
7
100
AcDbSpline
 70
8
 71
3
 72
8
 73
4
 74
0
 40
0
 40
0
 40
0
 40
0
 40
1
 40
1
 40
1
 40
1
 10
57.205829
 20
187.079056
 30
0.0
 10
57.126285
 20
187.082941
 30
0.0
 10
56.930104
 20
187.108126
 30
0.0
 10
56.769872
 20
187.135016
 30
0.0
  0
LINE
  5
23c
100
AcDbEntity
  8
Layer_1
 62
7
100
AcDbLine
 10
56.769872
 20
187.135016
 30
0.0
 11
56.769880
 21
187.135016
 31
0.0
  0
SPLINE
  5
23d
100
AcDbEntity
  8
Layer_1
 62
7
100
AcDbSpline
 70
8
 71
3
 72
8
 73
4
 74
0
 40
0
 40
0
 40
0
 40
0
 40
1
 40
1
 40
1
 40
1
 10
56.008519
 20
191.535405
 30
0.0
 10
55.884580
 20
191.738594
 30
0.0
 10
55.824759
 20
191.968948
 30
0.0
 10
55.808419
 20
192.305931
 30
0.0
  0
SPLINE
  5
23e
100
AcDbEntity
  8
Layer_1
 62
7
100
AcDbSpline
 70
8
 71
3
 72
8
 73
4
 74
0
 40
0
 40
0
 40
0
 40
0
 40
1
 40
1
 40
1
 40
1
 10
55.808419
 20
192.305931
 30
0.0
 10
55.798870
 20
192.502859
 30
0.0
 10
55.801322
 20
192.504631
 30
0.0
 10
56.399965
 20
192.734007
 30
0.0
  0
SPLINE
  5
23f
100
AcDbEntity
  8
Layer_1
 62
7
100
AcDbSpline
 70
8
 71
3
 72
8
 73
4
 74
0
 40
0
 40
0
 40
0
 40
0
 40
1
 40
1
 40
1
 40
1
 10
56.399965
 20
192.734007
 30
0.0
 10
57.525489
 20
193.165260
 30
0.0
 10
58.361193
 20
193.444003
 30
0.0
 10
58.528617
 20
193.444003
 30
0.0
  0
SPLINE
  5
240
100
AcDbEntity
  8
Layer_1
 62
7
100
AcDbSpline
 70
8
 71
3
 72
8
 73
4
 74
0
 40
0
 40
0
 40
0
 40
0
 40
1
 40
1
 40
1
 40
1
 10
58.528617
 20
193.444003
 30
0.0
 10
58.721034
 20
193.444003
 30
0.0
 10
58.827096
 20
193.340084
 30
0.0
 10
59.014119
 20
192.968312
 30
0.0
  0
SPLINE
  5
241
100
AcDbEntity
  8
Layer_1
 62
7
100
AcDbSpline
 70
8
 71
3
 72
8
 73
4
 74
0
 40
0
 40
0
 40
0
 40
0
 40
1
 40
1
 40
1
 40
1
 10
59.014119
 20
192.968312
 30
0.0
 10
59.170311
 20
192.657827
 30
0.0
 10
59.195131
 20
192.334797
 30
0.0
 10
59.071920
 20
192.216021
 30
0.0
  0
SPLINE
  5
242
100
AcDbEntity
  8
Layer_1
 62
7
100
AcDbSpline
 70
8
 71
3
 72
8
 73
4
 74
0
 40
0
 40
0
 40
0
 40
0
 40
1
 40
1
 40
1
 40
1
 10
59.071920
 20
192.216021
 30
0.0
 10
59.024025
 20
192.169852
 30
0.0
 10
58.552022
 20
191.992940
 30
0.0
 10
58.023025
 20
191.822883
 30
0.0
  0
SPLINE
  5
243
100
AcDbEntity
  8
Layer_1
 62
7
100
AcDbSpline
 70
8
 71
3
 72
8
 73
4
 74
0
 40
0
 40
0
 40
0
 40
0
 40
1
 40
1
 40
1
 40
1
 10
58.023025
 20
191.822883
 30
0.0
 10
57.494027
 20
191.652829
 30
0.0
 10
56.952103
 20
191.474620
 30
0.0
 10
56.818748
 20
191.426865
 30
0.0
  0
SPLINE
  5
244
100
AcDbEntity
  8
Layer_1
 62
7
100
AcDbSpline
 70
8
 71
3
 72
8
 73
4
 74
0
 40
0
 40
0
 40
0
 40
0
 40
1
 40
1
 40
1
 40
1
 10
56.818748
 20
191.426865
 30
0.0
 10
56.685393
 20
191.379109
 30
0.0
 10
56.475350
 20
191.340038
 30
0.0
 10
56.351986
 20
191.340038
 30
0.0
  0
SPLINE
  5
245
100
AcDbEntity
  8
Layer_1
 62
7
100
AcDbSpline
 70
8
 71
3
 72
8
 73
4
 74
0
 40
0
 40
0
 40
0
 40
0
 40
1
 40
1
 40
1
 40
1
 10
56.351986
 20
191.340038
 30
0.0
 10
56.163452
 20
191.340038
 30
0.0
 10
56.108686
 20
191.371189
 30
0.0
 10
56.008519
 20
191.535405
 30
0.0
  0
LINE
  5
246
100
AcDbEntity
  8
Layer_1
 62
7
100
AcDbLine
 10
56.008519
 20
191.535405
 30
0.0
 11
56.008519
 21
191.535405
 31
0.0
  0
SPLINE
  5
247
100
AcDbEntity
  8
Layer_1
 62
7
100
AcDbSpline
 70
8
 71
3
 72
8
 73
4
 74
0
 40
0
 40
0
 40
0
 40
0
 40
1
 40
1
 40
1
 40
1
 10
57.737274
 20
191.863863
 30
0.0
 10
58.599804
 20
192.147566
 30
0.0
 10
58.982361
 20
192.301173
 30
0.0
 10
59.025053
 20
192.380945
 30
0.0
  0
SPLINE
  5
248
100
AcDbEntity
  8
Layer_1
 62
7
100
AcDbSpline
 70
8
 71
3
 72
8
 73
4
 74
0
 40
0
 40
0
 40
0
 40
0
 40
1
 40
1
 40
1
 40
1
 10
59.025053
 20
192.380945
 30
0.0
 10
59.072249
 20
192.469131
 30
0.0
 10
59.041032
 20
192.583526
 30
0.0
 10
58.885030
 20
192.894074
 30
0.0
  0
SPLINE
  5
249
100
AcDbEntity
  8
Layer_1
 62
7
100
AcDbSpline
 70
8
 71
3
 72
8
 73
4
 74
0
 40
0
 40
0
 40
0
 40
0
 40
1
 40
1
 40
1
 40
1
 10
58.885030
 20
192.894074
 30
0.0
 10
58.693078
 20
193.276188
 30
0.0
 10
58.675042
 20
193.293426
 30
0.0
 10
58.473875
 20
193.287012
 30
0.0
  0
SPLINE
  5
24a
100
AcDbEntity
  8
Layer_1
 62
7
100
AcDbSpline
 70
8
 71
3
 72
8
 73
4
 74
0
 40
0
 40
0
 40
0
 40
0
 40
1
 40
1
 40
1
 40
1
 10
58.473875
 20
193.287012
 30
0.0
 10
58.305074
 20
193.281628
 30
0.0
 10
55.995669
 20
192.488668
 30
0.0
 10
55.915598
 20
192.408598
 30
0.0
  0
SPLINE
  5
24b
100
AcDbEntity
  8
Layer_1
 62
7
100
AcDbSpline
 70
8
 71
3
 72
8
 73
4
 74
0
 40
0
 40
0
 40
0
 40
0
 40
1
 40
1
 40
1
 40
1
 10
55.915598
 20
192.408598
 30
0.0
 10
55.881322
 20
192.374323
 30
0.0
 10
56.040192
 20
191.744629
 30
0.0
 10
56.120737
 20
191.595520
 30
0.0
  0
SPLINE
  5
24c
100
AcDbEntity
  8
Layer_1
 62
7
100
AcDbSpline
 70
8
 71
3
 72
8
 73
4
 74
0
 40
0
 40
0
 40
0
 40
0
 40
1
 40
1
 40
1
 40
1
 10
56.120737
 20
191.595520
 30
0.0
 10
56.168002
 20
191.508020
 30
0.0
 10
56.249661
 20
191.460263
 30
0.0
 10
56.352014
 20
191.460263
 30
0.0
  0
SPLINE
  5
24d
100
AcDbEntity
  8
Layer_1
 62
7
100
AcDbSpline
 70
8
 71
3
 72
8
 73
4
 74
0
 40
0
 40
0
 40
0
 40
0
 40
1
 40
1
 40
1
 40
1
 10
56.352014
 20
191.460263
 30
0.0
 10
56.439033
 20
191.460263
 30
0.0
 10
57.062400
 20
191.641882
 30
0.0
 10
57.737274
 20
191.863863
 30
0.0
  0
LINE
  5
24e
100
AcDbEntity
  8
Layer_1
 62
7
100
AcDbLine
 10
57.737274
 20
191.863863
 30
0.0
 11
57.737274
 21
191.863863
 31
0.0
  0
SPLINE
  5
24f
100
AcDbEntity
  8
Layer_1
 62
7
100
AcDbSpline
 70
8
 71
3
 72
8
 73
4
 74
0
 40
0
 40
0
 40
0
 40
0
 40
1
 40
1
 40
1
 40
1
 10
57.711731
 20
188.811515
 30
0.0
 10
57.602083
 20
188.939574
 30
0.0
 10
57.153285
 20
190.272929
 30
0.0
 10
57.152114
 20
190.474106
 30
0.0
  0
SPLINE
  5
250
100
AcDbEntity
  8
Layer_1
 62
7
100
AcDbSpline
 70
8
 71
3
 72
8
 73
4
 74
0
 40
0
 40
0
 40
0
 40
0
 40
1
 40
1
 40
1
 40
1
 10
57.152114
 20
190.474106
 30
0.0
 10
57.151682
 20
190.543372
 30
0.0
 10
57.198720
 20
190.642593
 30
0.0
 10
57.256580
 20
190.694597
 30
0.0
  0
SPLINE
  5
251
100
AcDbEntity
  8
Layer_1
 62
7
100
AcDbSpline
 70
8
 71
3
 72
8
 73
4
 74
0
 40
0
 40
0
 40
0
 40
0
 40
1
 40
1
 40
1
 40
1
 10
57.256580
 20
190.694597
 30
0.0
 10
57.403492
 20
190.826641
 30
0.0
 10
58.150989
 20
191.114946
 30
0.0
 10
58.928962
 20
191.339624
 30
0.0
  0
SPLINE
  5
252
100
AcDbEntity
  8
Layer_1
 62
7
100
AcDbSpline
 70
8
 71
3
 72
8
 73
4
 74
0
 40
0
 40
0
 40
0
 40
0
 40
1
 40
1
 40
1
 40
1
 10
58.928962
 20
191.339624
 30
0.0
 10
59.290317
 20
191.443982
 30
0.0
 10
59.876639
 20
191.635548
 30
0.0
 10
60.231899
 20
191.765327
 30
0.0
  0
SPLINE
  5
253
100
AcDbEntity
  8
Layer_1
 62
7
100
AcDbSpline
 70
8
 71
3
 72
8
 73
4
 74
0
 40
0
 40
0
 40
0
 40
0
 40
1
 40
1
 40
1
 40
1
 10
60.231899
 20
191.765327
 30
0.0
 10
60.587160
 20
191.895103
 30
0.0
 10
60.956708
 20
192.001283
 30
0.0
 10
61.053116
 20
192.001283
 30
0.0
  0
SPLINE
  5
254
100
AcDbEntity
  8
Layer_1
 62
7
100
AcDbSpline
 70
8
 71
3
 72
8
 73
4
 74
0
 40
0
 40
0
 40
0
 40
0
 40
1
 40
1
 40
1
 40
1
 10
61.053116
 20
192.001283
 30
0.0
 10
61.308130
 20
192.001283
 30
0.0
 10
61.500888
 20
191.735461
 30
0.0
 10
61.652019
 20
191.175363
 30
0.0
  0
SPLINE
  5
255
100
AcDbEntity
  8
Layer_1
 62
7
100
AcDbSpline
 70
8
 71
3
 72
8
 73
4
 74
0
 40
0
 40
0
 40
0
 40
0
 40
1
 40
1
 40
1
 40
1
 10
61.652019
 20
191.175363
 30
0.0
 10
61.811094
 20
190.585825
 30
0.0
 10
61.819225
 20
190.190915
 30
0.0
 10
61.674910
 20
190.063592
 30
0.0
  0
SPLINE
  5
256
100
AcDbEntity
  8
Layer_1
 62
7
100
AcDbSpline
 70
8
 71
3
 72
8
 73
4
 74
0
 40
0
 40
0
 40
0
 40
0
 40
1
 40
1
 40
1
 40
1
 10
61.674910
 20
190.063592
 30
0.0
 10
61.385614
 20
189.808362
 30
0.0
 10
59.808873
 20
189.144438
 30
0.0
 10
58.777040
 20
188.843378
 30
0.0
  0
SPLINE
  5
257
100
AcDbEntity
  8
Layer_1
 62
7
100
AcDbSpline
 70
8
 71
3
 72
8
 73
4
 74
0
 40
0
 40
0
 40
0
 40
0
 40
1
 40
1
 40
1
 40
1
 10
58.777040
 20
188.843378
 30
0.0
 10
58.153451
 20
188.661432
 30
0.0
 10
57.848058
 20
188.652296
 30
0.0
 10
57.711731
 20
188.811515
 30
0.0
  0
LINE
  5
258
100
AcDbEntity
  8
Layer_1
 62
7
100
AcDbLine
 10
57.711731
 20
188.811515
 30
0.0
 11
57.711731
 21
188.811515
 31
0.0
  0
SPLINE
  5
259
100
AcDbEntity
  8
Layer_1
 62
7
100
AcDbSpline
 70
8
 71
3
 72
8
 73
4
 74
0
 40
0
 40
0
 40
0
 40
0
 40
1
 40
1
 40
1
 40
1
 10
58.557564
 20
188.880732
 30
0.0
 10
59.537419
 20
189.168692
 30
0.0
 10
60.806147
 20
189.663111
 30
0.0
 10
61.337970
 20
189.964244
 30
0.0
  0
SPLINE
  5
25a
100
AcDbEntity
  8
Layer_1
 62
7
100
AcDbSpline
 70
8
 71
3
 72
8
 73
4
 74
0
 40
0
 40
0
 40
0
 40
0
 40
1
 40
1
 40
1
 40
1
 10
61.337970
 20
189.964244
 30
0.0
 10
61.672436
 20
190.153627
 30
0.0
 10
61.743704
 20
190.290583
 30
0.0
 10
61.683287
 20
190.627834
 30
0.0
  0
SPLINE
  5
25b
100
AcDbEntity
  8
Layer_1
 62
7
100
AcDbSpline
 70
8
 71
3
 72
8
 73
4
 74
0
 40
0
 40
0
 40
0
 40
0
 40
1
 40
1
 40
1
 40
1
 10
61.683287
 20
190.627834
 30
0.0
 10
61.599554
 20
191.095230
 30
0.0
 10
61.404742
 20
191.650850
 30
0.0
 10
61.270435
 20
191.805314
 30
0.0
  0
LINE
  5
25c
100
AcDbEntity
  8
Layer_1
 62
7
100
AcDbLine
 10
61.270435
 20
191.805314
 30
0.0
 11
61.126176
 21
191.971227
 31
0.0
  0
LINE
  5
25d
100
AcDbEntity
  8
Layer_1
 62
7
100
AcDbLine
 10
61.126176
 20
191.971227
 30
0.0
 11
60.476300
 21
191.739621
 31
0.0
  0
SPLINE
  5
25e
100
AcDbEntity
  8
Layer_1
 62
7
100
AcDbSpline
 70
8
 71
3
 72
8
 73
4
 74
0
 40
0
 40
0
 40
0
 40
0
 40
1
 40
1
 40
1
 40
1
 10
60.476300
 20
191.739621
 30
0.0
 10
60.118869
 20
191.612239
 30
0.0
 10
59.506047
 20
191.415332
 30
0.0
 10
59.114474
 20
191.302052
 30
0.0
  0
SPLINE
  5
25f
100
AcDbEntity
  8
Layer_1
 62
7
100
AcDbSpline
 70
8
 71
3
 72
8
 73
4
 74
0
 40
0
 40
0
 40
0
 40
0
 40
1
 40
1
 40
1
 40
1
 10
59.114474
 20
191.302052
 30
0.0
 10
58.223232
 20
191.044223
 30
0.0
 10
57.339874
 20
190.686120
 30
0.0
 10
57.269157
 20
190.553983
 30
0.0
  0
SPLINE
  5
260
100
AcDbEntity
  8
Layer_1
 62
7
100
AcDbSpline
 70
8
 71
3
 72
8
 73
4
 74
0
 40
0
 40
0
 40
0
 40
0
 40
1
 40
1
 40
1
 40
1
 10
57.269157
 20
190.553983
 30
0.0
 10
57.196476
 20
190.418181
 30
0.0
 10
57.661148
 20
189.003688
 30
0.0
 10
57.825525
 20
188.860361
 30
0.0
  0
SPLINE
  5
261
100
AcDbEntity
  8
Layer_1
 62
7
100
AcDbSpline
 70
8
 71
3
 72
8
 73
4
 74
0
 40
0
 40
0
 40
0
 40
0
 40
1
 40
1
 40
1
 40
1
 10
57.825525
 20
188.860361
 30
0.0
 10
57.978975
 20
188.726563
 30
0.0
 10
58.038615
 20
188.728222
 30
0.0
 10
58.557564
 20
188.880741
 30
0.0
  0
LINE
  5
262
100
AcDbEntity
  8
Layer_1
 62
7
100
AcDbLine
 10
58.557564
 20
188.880741
 30
0.0
 11
58.557564
 21
188.880732
 31
0.0
  0
SPLINE
  5
263
100
AcDbEntity
  8
Layer_1
 62
7
100
AcDbSpline
 70
8
 71
3
 72
8
 73
4
 74
0
 40
0
 40
0
 40
0
 40
0
 40
1
 40
1
 40
1
 40
1
 10
65.629478
 20
190.980023
 30
0.0
 10
66.285111
 20
191.186094
 30
0.0
 10
66.408835
 20
191.243955
 30
0.0
 10
66.408835
 20
191.344509
 30
0.0
  0
SPLINE
  5
264
100
AcDbEntity
  8
Layer_1
 62
7
100
AcDbSpline
 70
8
 71
3
 72
8
 73
4
 74
0
 40
0
 40
0
 40
0
 40
0
 40
1
 40
1
 40
1
 40
1
 10
66.408835
 20
191.344509
 30
0.0
 10
66.408835
 20
191.517733
 30
0.0
 10
66.269192
 20
191.545545
 30
0.0
 10
65.948353
 20
191.436225
 30
0.0
  0
SPLINE
  5
265
100
AcDbEntity
  8
Layer_1
 62
7
100
AcDbSpline
 70
8
 71
3
 72
8
 73
4
 74
0
 40
0
 40
0
 40
0
 40
0
 40
1
 40
1
 40
1
 40
1
 10
65.948353
 20
191.436225
 30
0.0
 10
65.482325
 20
191.277433
 30
0.0
 10
65.324901
 20
191.305278
 30
0.0
 10
65.047782
 20
191.595520
 30
0.0
  0
SPLINE
  5
266
100
AcDbEntity
  8
Layer_1
 62
7
100
AcDbSpline
 70
8
 71
3
 72
8
 73
4
 74
0
 40
0
 40
0
 40
0
 40
0
 40
1
 40
1
 40
1
 40
1
 10
65.047782
 20
191.595520
 30
0.0
 10
64.083225
 20
192.605751
 30
0.0
 10
63.787000
 20
193.738106
 30
0.0
 10
64.213050
 20
194.786382
 30
0.0
  0
SPLINE
  5
267
100
AcDbEntity
  8
Layer_1
 62
7
100
AcDbSpline
 70
8
 71
3
 72
8
 73
4
 74
0
 40
0
 40
0
 40
0
 40
0
 40
1
 40
1
 40
1
 40
1
 10
64.213050
 20
194.786382
 30
0.0
 10
64.294803
 20
194.987527
 30
0.0
 10
64.325389
 20
195.125342
 30
0.0
 10
64.284986
 20
195.110506
 30
0.0
  0
SPLINE
  5
268
100
AcDbEntity
  8
Layer_1
 62
7
100
AcDbSpline
 70
8
 71
3
 72
8
 73
4
 74
0
 40
0
 40
0
 40
0
 40
0
 40
1
 40
1
 40
1
 40
1
 10
64.284986
 20
195.110506
 30
0.0
 10
64.227840
 20
195.089513
 30
0.0
 10
63.430643
 20
194.831995
 30
0.0
 10
63.114306
 20
194.732327
 30
0.0
  0
SPLINE
  5
269
100
AcDbEntity
  8
Layer_1
 62
7
100
AcDbSpline
 70
8
 71
3
 72
8
 73
4
 74
0
 40
0
 40
0
 40
0
 40
0
 40
1
 40
1
 40
1
 40
1
 10
63.114306
 20
194.732327
 30
0.0
 10
63.059698
 20
194.715128
 30
0.0
 10
63.090848
 20
194.638882
 30
0.0
 10
63.216764
 20
194.481571
 30
0.0
  0
SPLINE
  5
26a
100
AcDbEntity
  8
Layer_1
 62
7
100
AcDbSpline
 70
8
 71
3
 72
8
 73
4
 74
0
 40
0
 40
0
 40
0
 40
0
 40
1
 40
1
 40
1
 40
1
 10
63.216764
 20
194.481571
 30
0.0
 10
63.316271
 20
194.357249
 30
0.0
 10
63.452966
 20
194.130026
 30
0.0
 10
63.520530
 20
193.976630
 30
0.0
  0
SPLINE
  5
26b
100
AcDbEntity
  8
Layer_1
 62
7
100
AcDbSpline
 70
8
 71
3
 72
8
 73
4
 74
0
 40
0
 40
0
 40
0
 40
0
 40
1
 40
1
 40
1
 40
1
 10
63.520530
 20
193.976630
 30
0.0
 10
63.679991
 20
193.614603
 30
0.0
 10
64.161721
 20
191.826621
 30
0.0
 10
64.289755
 20
191.121599
 30
0.0
  0
LINE
  5
26c
100
AcDbEntity
  8
Layer_1
 62
7
100
AcDbLine
 10
64.289755
 20
191.121599
 30
0.0
 11
64.389466
 21
190.572536
 31
0.0
  0
LINE
  5
26d
100
AcDbEntity
  8
Layer_1
 62
7
100
AcDbLine
 10
64.389466
 20
190.572536
 30
0.0
 11
64.619794
 21
190.653801
 31
0.0
  0
SPLINE
  5
26e
100
AcDbEntity
  8
Layer_1
 62
7
100
AcDbSpline
 70
8
 71
3
 72
8
 73
4
 74
0
 40
0
 40
0
 40
0
 40
0
 40
1
 40
1
 40
1
 40
1
 10
64.619794
 20
190.653801
 30
0.0
 10
64.746474
 20
190.698495
 30
0.0
 10
65.200834
 20
190.845296
 30
0.0
 10
65.629478
 20
190.980023
 30
0.0
  0
LINE
  5
26f
100
AcDbEntity
  8
Layer_1
 62
7
100
AcDbLine
 10
65.629478
 20
190.980023
 30
0.0
 11
65.629478
 21
190.980023
 31
0.0
  0
SPLINE
  5
270
100
AcDbEntity
  8
Layer_1
 62
7
100
AcDbSpline
 70
8
 71
3
 72
8
 73
4
 74
0
 40
0
 40
0
 40
0
 40
0
 40
1
 40
1
 40
1
 40
1
 10
65.162057
 20
191.745801
 30
0.0
 10
64.577767
 20
192.370010
 30
0.0
 10
64.241600
 20
193.106379
 30
0.0
 10
64.238137
 20
193.769637
 30
0.0
  0
SPLINE
  5
271
100
AcDbEntity
  8
Layer_1
 62
7
100
AcDbSpline
 70
8
 71
3
 72
8
 73
4
 74
0
 40
0
 40
0
 40
0
 40
0
 40
1
 40
1
 40
1
 40
1
 10
64.238137
 20
193.769637
 30
0.0
 10
64.235388
 20
194.296280
 30
0.0
 10
64.268307
 20
194.445973
 30
0.0
 10
64.500071
 20
194.960670
 30
0.0
  0
SPLINE
  5
272
100
AcDbEntity
  8
Layer_1
 62
7
100
AcDbSpline
 70
8
 71
3
 72
8
 73
4
 74
0
 40
0
 40
0
 40
0
 40
0
 40
1
 40
1
 40
1
 40
1
 10
64.500071
 20
194.960670
 30
0.0
 10
64.671748
 20
195.341932
 30
0.0
 10
64.699946
 20
195.371849
 30
0.0
 10
64.989492
 20
195.479965
 30
0.0
  0
SPLINE
  5
273
100
AcDbEntity
  8
Layer_1
 62
7
100
AcDbSpline
 70
8
 71
3
 72
8
 73
4
 74
0
 40
0
 40
0
 40
0
 40
0
 40
1
 40
1
 40
1
 40
1
 10
64.989492
 20
195.479965
 30
0.0
 10
65.472551
 20
195.660341
 30
0.0
 10
65.805333
 20
195.750717
 30
0.0
 10
65.844016
 20
195.712034
 30
0.0
  0
SPLINE
  5
274
100
AcDbEntity
  8
Layer_1
 62
7
100
AcDbSpline
 70
8
 71
3
 72
8
 73
4
 74
0
 40
0
 40
0
 40
0
 40
0
 40
1
 40
1
 40
1
 40
1
 10
65.844016
 20
195.712034
 30
0.0
 10
65.863555
 20
195.692495
 30
0.0
 10
65.822091
 20
195.522899
 30
0.0
 10
65.751853
 20
195.335175
 30
0.0
  0
SPLINE
  5
275
100
AcDbEntity
  8
Layer_1
 62
7
100
AcDbSpline
 70
8
 71
3
 72
8
 73
4
 74
0
 40
0
 40
0
 40
0
 40
0
 40
1
 40
1
 40
1
 40
1
 10
65.751853
 20
195.335175
 30
0.0
 10
65.369127
 20
194.312245
 30
0.0
 10
65.658042
 20
193.139335
 30
0.0
 10
66.516492
 20
192.230950
 30
0.0
  0
SPLINE
  5
276
100
AcDbEntity
  8
Layer_1
 62
7
100
AcDbSpline
 70
8
 71
3
 72
8
 73
4
 74
0
 40
0
 40
0
 40
0
 40
0
 40
1
 40
1
 40
1
 40
1
 10
66.516492
 20
192.230950
 30
0.0
 10
66.631457
 20
192.109298
 30
0.0
 10
66.711432
 20
191.973056
 30
0.0
 10
66.694215
 20
191.928190
 30
0.0
  0
SPLINE
  5
277
100
AcDbEntity
  8
Layer_1
 62
7
100
AcDbSpline
 70
8
 71
3
 72
8
 73
4
 74
0
 40
0
 40
0
 40
0
 40
0
 40
1
 40
1
 40
1
 40
1
 10
66.694215
 20
191.928190
 30
0.0
 10
66.667205
 20
191.857799
 30
0.0
 10
65.629898
 20
191.520378
 30
0.0
 10
65.440516
 20
191.520378
 30
0.0
  0
SPLINE
  5
278
100
AcDbEntity
  8
Layer_1
 62
7
100
AcDbSpline
 70
8
 71
3
 72
8
 73
4
 74
0
 40
0
 40
0
 40
0
 40
0
 40
1
 40
1
 40
1
 40
1
 10
65.440516
 20
191.520378
 30
0.0
 10
65.403419
 20
191.520378
 30
0.0
 10
65.278111
 20
191.621818
 30
0.0
 10
65.162057
 20
191.745801
 30
0.0
  0
LINE
  5
279
100
AcDbEntity
  8
Layer_1
 62
7
100
AcDbLine
 10
65.162057
 20
191.745801
 30
0.0
 11
65.162057
 21
191.745801
 31
0.0
  0
SPLINE
  5
27a
100
AcDbEntity
  8
Layer_1
 62
7
100
AcDbSpline
 70
8
 71
3
 72
8
 73
4
 74
0
 40
0
 40
0
 40
0
 40
0
 40
1
 40
1
 40
1
 40
1
 10
69.679002
 20
192.053934
 30
0.0
 10
69.002612
 20
192.552697
 30
0.0
 10
68.602379
 20
193.274730
 30
0.0
 10
68.242035
 20
194.646270
 30
0.0
  0
SPLINE
  5
27b
100
AcDbEntity
  8
Layer_1
 62
7
100
AcDbSpline
 70
8
 71
3
 72
8
 73
4
 74
0
 40
0
 40
0
 40
0
 40
0
 40
1
 40
1
 40
1
 40
1
 10
68.242035
 20
194.646270
 30
0.0
 10
68.011268
 20
195.524616
 30
0.0
 10
67.933277
 20
196.383183
 30
0.0
 10
68.023021
 20
197.057251
 30
0.0
  0
SPLINE
  5
27c
100
AcDbEntity
  8
Layer_1
 62
7
100
AcDbSpline
 70
8
 71
3
 72
8
 73
4
 74
0
 40
0
 40
0
 40
0
 40
0
 40
1
 40
1
 40
1
 40
1
 10
68.023021
 20
197.057251
 30
0.0
 10
68.117350
 20
197.765722
 30
0.0
 10
68.212360
 20
197.967307
 30
0.0
 10
68.516618
 20
198.104507
 30
0.0
  0
SPLINE
  5
27d
100
AcDbEntity
  8
Layer_1
 62
7
100
AcDbSpline
 70
8
 71
3
 72
8
 73
4
 74
0
 40
0
 40
0
 40
0
 40
0
 40
1
 40
1
 40
1
 40
1
 10
68.516618
 20
198.104507
 30
0.0
 10
68.647442
 20
198.163501
 30
0.0
 10
68.768389
 20
198.197861
 30
0.0
 10
68.785388
 20
198.180862
 30
0.0
  0
SPLINE
  5
27e
100
AcDbEntity
  8
Layer_1
 62
7
100
AcDbSpline
 70
8
 71
3
 72
8
 73
4
 74
0
 40
0
 40
0
 40
0
 40
0
 40
1
 40
1
 40
1
 40
1
 10
68.785388
 20
198.180862
 30
0.0
 10
68.802383
 20
198.163867
 30
0.0
 10
68.774233
 20
197.990561
 30
0.0
 10
68.722795
 20
197.795746
 30
0.0
  0
SPLINE
  5
27f
100
AcDbEntity
  8
Layer_1
 62
7
100
AcDbSpline
 70
8
 71
3
 72
8
 73
4
 74
0
 40
0
 40
0
 40
0
 40
0
 40
1
 40
1
 40
1
 40
1
 10
68.722795
 20
197.795746
 30
0.0
 10
68.492448
 20
196.923151
 30
0.0
 10
68.548278
 20
195.978953
 30
0.0
 10
68.907886
 20
194.665471
 30
0.0
  0
SPLINE
  5
280
100
AcDbEntity
  8
Layer_1
 62
7
100
AcDbSpline
 70
8
 71
3
 72
8
 73
4
 74
0
 40
0
 40
0
 40
0
 40
0
 40
1
 40
1
 40
1
 40
1
 10
68.907886
 20
194.665471
 30
0.0
 10
69.235842
 20
193.467598
 30
0.0
 10
69.688938
 20
192.659488
 30
0.0
 10
70.267682
 20
192.240250
 30
0.0
  0
SPLINE
  5
281
100
AcDbEntity
  8
Layer_1
 62
7
100
AcDbSpline
 70
8
 71
3
 72
8
 73
4
 74
0
 40
0
 40
0
 40
0
 40
0
 40
1
 40
1
 40
1
 40
1
 10
70.267682
 20
192.240250
 30
0.0
 10
70.403475
 20
192.141881
 30
0.0
 10
70.474300
 20
192.061398
 30
0.0
 10
70.425070
 20
192.061398
 30
0.0
  0
SPLINE
  5
282
100
AcDbEntity
  8
Layer_1
 62
7
100
AcDbSpline
 70
8
 71
3
 72
8
 73
4
 74
0
 40
0
 40
0
 40
0
 40
0
 40
1
 40
1
 40
1
 40
1
 10
70.425070
 20
192.061398
 30
0.0
 10
70.375841
 20
192.061398
 30
0.0
 10
70.241908
 20
192.134393
 30
0.0
 10
70.127447
 20
192.223612
 30
0.0
  0
SPLINE
  5
283
100
AcDbEntity
  8
Layer_1
 62
7
100
AcDbSpline
 70
8
 71
3
 72
8
 73
4
 74
0
 40
0
 40
0
 40
0
 40
0
 40
1
 40
1
 40
1
 40
1
 10
70.127447
 20
192.223612
 30
0.0
 10
68.942211
 20
193.147436
 30
0.0
 10
68.152373
 20
196.264223
 30
0.0
 10
68.670750
 20
197.971885
 30
0.0
  0
SPLINE
  5
284
100
AcDbEntity
  8
Layer_1
 62
7
100
AcDbSpline
 70
8
 71
3
 72
8
 73
4
 74
0
 40
0
 40
0
 40
0
 40
0
 40
1
 40
1
 40
1
 40
1
 10
68.670750
 20
197.971885
 30
0.0
 10
68.702344
 20
198.075961
 30
0.0
 10
68.694483
 20
198.076511
 30
0.0
 10
68.513498
 20
197.982927
 30
0.0
  0
SPLINE
  5
285
100
AcDbEntity
  8
Layer_1
 62
7
100
AcDbSpline
 70
8
 71
3
 72
8
 73
4
 74
0
 40
0
 40
0
 40
0
 40
0
 40
1
 40
1
 40
1
 40
1
 10
68.513498
 20
197.982927
 30
0.0
 10
68.181050
 20
197.811012
 30
0.0
 10
68.121537
 20
197.575553
 30
0.0
 10
68.125965
 20
196.449677
 30
0.0
  0
SPLINE
  5
286
100
AcDbEntity
  8
Layer_1
 62
7
100
AcDbSpline
 70
8
 71
3
 72
8
 73
4
 74
0
 40
0
 40
0
 40
0
 40
0
 40
1
 40
1
 40
1
 40
1
 10
68.125965
 20
196.449677
 30
0.0
 10
68.129555
 20
195.535045
 30
0.0
 10
68.144618
 20
195.402128
 30
0.0
 10
68.319399
 20
194.742785
 30
0.0
  0
SPLINE
  5
287
100
AcDbEntity
  8
Layer_1
 62
7
100
AcDbSpline
 70
8
 71
3
 72
8
 73
4
 74
0
 40
0
 40
0
 40
0
 40
0
 40
1
 40
1
 40
1
 40
1
 10
68.319399
 20
194.742785
 30
0.0
 10
68.588456
 20
193.727758
 30
0.0
 10
68.780417
 20
193.262879
 30
0.0
 10
69.135594
 20
192.766168
 30
0.0
  0
SPLINE
  5
288
100
AcDbEntity
  8
Layer_1
 62
7
100
AcDbSpline
 70
8
 71
3
 72
8
 73
4
 74
0
 40
0
 40
0
 40
0
 40
0
 40
1
 40
1
 40
1
 40
1
 10
69.135594
 20
192.766168
 30
0.0
 10
69.539099
 20
192.201873
 30
0.0
 10
69.912464
 20
191.942284
 30
0.0
 10
70.269643
 20
191.977700
 30
0.0
  0
SPLINE
  5
289
100
AcDbEntity
  8
Layer_1
 62
7
100
AcDbSpline
 70
8
 71
3
 72
8
 73
4
 74
0
 40
0
 40
0
 40
0
 40
0
 40
1
 40
1
 40
1
 40
1
 10
70.269643
 20
191.977700
 30
0.0
 10
70.462265
 20
191.996807
 30
0.0
 10
70.496497
 20
191.988946
 30
0.0
 10
70.406372
 20
191.946346
 30
0.0
  0
SPLINE
  5
28a
100
AcDbEntity
  8
Layer_1
 62
7
100
AcDbSpline
 70
8
 71
3
 72
8
 73
4
 74
0
 40
0
 40
0
 40
0
 40
0
 40
1
 40
1
 40
1
 40
1
 10
70.406372
 20
191.946346
 30
0.0
 10
70.177216
 20
191.838022
 30
0.0
 10
69.920275
 20
191.876030
 30
0.0
 10
69.679002
 20
192.053941
 30
0.0
  0
LINE
  5
28b
100
AcDbEntity
  8
Layer_1
 62
7
100
AcDbLine
 10
69.679002
 20
192.053941
 30
0.0
 11
69.679002
 21
192.053934
 31
0.0
  0
SPLINE
  5
28c
100
AcDbEntity
  8
Layer_1
 62
7
100
AcDbSpline
 70
8
 71
3
 72
8
 73
4
 74
0
 40
0
 40
0
 40
0
 40
0
 40
1
 40
1
 40
1
 40
1
 10
66.539657
 20
192.294873
 30
0.0
 10
65.945325
 20
193.009035
 30
0.0
 10
65.686957
 20
193.639202
 30
0.0
 10
65.688189
 20
194.371642
 30
0.0
  0
SPLINE
  5
28d
100
AcDbEntity
  8
Layer_1
 62
7
100
AcDbSpline
 70
8
 71
3
 72
8
 73
4
 74
0
 40
0
 40
0
 40
0
 40
0
 40
1
 40
1
 40
1
 40
1
 10
65.688189
 20
194.371642
 30
0.0
 10
65.689552
 20
195.139124
 30
0.0
 10
65.923159
 20
195.739111
 30
0.0
 10
66.291550
 20
195.920792
 30
0.0
  0
SPLINE
  5
28e
100
AcDbEntity
  8
Layer_1
 62
7
100
AcDbSpline
 70
8
 71
3
 72
8
 73
4
 74
0
 40
0
 40
0
 40
0
 40
0
 40
1
 40
1
 40
1
 40
1
 10
66.291550
 20
195.920792
 30
0.0
 10
66.486479
 20
196.016925
 30
0.0
 10
66.769515
 20
196.063880
 30
0.0
 10
66.769515
 20
196.000087
 30
0.0
  0
SPLINE
  5
28f
100
AcDbEntity
  8
Layer_1
 62
7
100
AcDbSpline
 70
8
 71
3
 72
8
 73
4
 74
0
 40
0
 40
0
 40
0
 40
0
 40
1
 40
1
 40
1
 40
1
 10
66.769515
 20
196.000087
 30
0.0
 10
66.769515
 20
195.984251
 30
0.0
 10
66.696471
 20
195.761079
 30
0.0
 10
66.607192
 20
195.504150
 30
0.0
  0
SPLINE
  5
290
100
AcDbEntity
  8
Layer_1
 62
7
100
AcDbSpline
 70
8
 71
3
 72
8
 73
4
 74
0
 40
0
 40
0
 40
0
 40
0
 40
1
 40
1
 40
1
 40
1
 10
66.607192
 20
195.504150
 30
0.0
 10
66.382969
 20
194.858866
 30
0.0
 10
66.374669
 20
194.051722
 30
0.0
 10
66.587244
 20
193.564230
 30
0.0
  0
SPLINE
  5
291
100
AcDbEntity
  8
Layer_1
 62
7
100
AcDbSpline
 70
8
 71
3
 72
8
 73
4
 74
0
 40
0
 40
0
 40
0
 40
0
 40
1
 40
1
 40
1
 40
1
 10
66.587244
 20
193.564230
 30
0.0
 10
66.755275
 20
193.178892
 30
0.0
 10
67.007196
 20
192.786550
 30
0.0
 10
67.294347
 20
192.462985
 30
0.0
  0
SPLINE
  5
292
100
AcDbEntity
  8
Layer_1
 62
7
100
AcDbSpline
 70
8
 71
3
 72
8
 73
4
 74
0
 40
0
 40
0
 40
0
 40
0
 40
1
 40
1
 40
1
 40
1
 10
67.294347
 20
192.462985
 30
0.0
 10
67.406416
 20
192.336705
 30
0.0
 10
67.488322
 20
192.204023
 30
0.0
 10
67.476360
 20
192.168136
 30
0.0
  0
SPLINE
  5
293
100
AcDbEntity
  8
Layer_1
 62
7
100
AcDbSpline
 70
8
 71
3
 72
8
 73
4
 74
0
 40
0
 40
0
 40
0
 40
0
 40
1
 40
1
 40
1
 40
1
 10
67.476360
 20
192.168136
 30
0.0
 10
67.458002
 20
192.113045
 30
0.0
 10
67.012274
 20
191.944962
 30
0.0
 10
66.876904
 20
191.942084
 30
0.0
  0
SPLINE
  5
294
100
AcDbEntity
  8
Layer_1
 62
7
100
AcDbSpline
 70
8
 71
3
 72
8
 73
4
 74
0
 40
0
 40
0
 40
0
 40
0
 40
1
 40
1
 40
1
 40
1
 10
66.876904
 20
191.942084
 30
0.0
 10
66.853314
 20
191.941629
 30
0.0
 10
66.701551
 20
192.100338
 30
0.0
 10
66.539657
 20
192.294873
 30
0.0
  0
LINE
  5
295
100
AcDbEntity
  8
Layer_1
 62
7
100
AcDbLine
 10
66.539657
 20
192.294873
 30
0.0
 11
66.539657
 21
192.294873
 31
0.0
  0
SPLINE
  5
296
100
AcDbEntity
  8
Layer_1
 62
7
100
AcDbSpline
 70
8
 71
3
 72
8
 73
4
 74
0
 40
0
 40
0
 40
0
 40
0
 40
1
 40
1
 40
1
 40
1
 10
70.834217
 20
194.180392
 30
0.0
 10
70.820312
 20
194.254782
 30
0.0
 10
70.777807
 20
194.559105
 30
0.0
 10
70.739776
 20
194.856667
 30
0.0
  0
SPLINE
  5
297
100
AcDbEntity
  8
Layer_1
 62
7
100
AcDbSpline
 70
8
 71
3
 72
8
 73
4
 74
0
 40
0
 40
0
 40
0
 40
0
 40
1
 40
1
 40
1
 40
1
 10
70.739776
 20
194.856667
 30
0.0
 10
70.693734
 20
195.216935
 30
0.0
 10
70.609216
 20
195.531594
 30
0.0
 10
70.486803
 20
195.798492
 30
0.0
  0
SPLINE
  5
298
100
AcDbEntity
  8
Layer_1
 62
7
100
AcDbSpline
 70
8
 71
3
 72
8
 73
4
 74
0
 40
0
 40
0
 40
0
 40
0
 40
1
 40
1
 40
1
 40
1
 10
70.486803
 20
195.798492
 30
0.0
 10
70.292365
 20
196.222432
 30
0.0
 10
70.298870
 20
196.329443
 30
0.0
 10
70.519077
 20
196.329443
 30
0.0
  0
SPLINE
  5
299
100
AcDbEntity
  8
Layer_1
 62
7
100
AcDbSpline
 70
8
 71
3
 72
8
 73
4
 74
0
 40
0
 40
0
 40
0
 40
0
 40
1
 40
1
 40
1
 40
1
 10
70.519077
 20
196.329443
 30
0.0
 10
70.772543
 20
196.329443
 30
0.0
 10
71.049468
 20
195.643238
 30
0.0
 10
71.158283
 20
194.745527
 30
0.0
  0
SPLINE
  5
29a
100
AcDbEntity
  8
Layer_1
 62
7
100
AcDbSpline
 70
8
 71
3
 72
8
 73
4
 74
0
 40
0
 40
0
 40
0
 40
0
 40
1
 40
1
 40
1
 40
1
 10
71.158283
 20
194.745527
 30
0.0
 10
71.206561
 20
194.347225
 30
0.0
 10
71.205200
 20
194.192434
 30
0.0
 10
71.152853
 20
194.129365
 30
0.0
  0
SPLINE
  5
29b
100
AcDbEntity
  8
Layer_1
 62
7
100
AcDbSpline
 70
8
 71
3
 72
8
 73
4
 74
0
 40
0
 40
0
 40
0
 40
0
 40
1
 40
1
 40
1
 40
1
 10
71.152853
 20
194.129365
 30
0.0
 10
71.043597
 20
193.997719
 30
0.0
 10
70.862969
 20
194.026644
 30
0.0
 10
70.834214
 20
194.180392
 30
0.0
  0
LINE
  5
29c
100
AcDbEntity
  8
Layer_1
 62
7
100
AcDbLine
 10
70.834214
 20
194.180392
 30
0.0
 11
70.834217
 21
194.180392
 31
0.0
  0
SPLINE
  5
29d
100
AcDbEntity
  8
Layer_1
 62
7
100
AcDbSpline
 70
8
 71
3
 72
8
 73
4
 74
0
 40
0
 40
0
 40
0
 40
0
 40
1
 40
1
 40
1
 40
1
 10
71.034566
 20
194.706383
 30
0.0
 10
70.941101
 20
195.457240
 30
0.0
 10
70.669674
 20
196.209218
 30
0.0
 10
70.492119
 20
196.209218
 30
0.0
  0
SPLINE
  5
29e
100
AcDbEntity
  8
Layer_1
 62
7
100
AcDbSpline
 70
8
 71
3
 72
8
 73
4
 74
0
 40
0
 40
0
 40
0
 40
0
 40
1
 40
1
 40
1
 40
1
 10
70.492119
 20
196.209218
 30
0.0
 10
70.460375
 20
196.209218
 30
0.0
 10
70.504297
 20
196.071276
 30
0.0
 10
70.589738
 20
195.902677
 30
0.0
  0
SPLINE
  5
29f
100
AcDbEntity
  8
Layer_1
 62
7
100
AcDbSpline
 70
8
 71
3
 72
8
 73
4
 74
0
 40
0
 40
0
 40
0
 40
0
 40
1
 40
1
 40
1
 40
1
 10
70.589738
 20
195.902677
 30
0.0
 10
70.751561
 20
195.583334
 30
0.0
 10
70.917335
 20
194.858693
 30
0.0
 10
70.917335
 20
194.470661
 30
0.0
  0
SPLINE
  5
2a0
100
AcDbEntity
  8
Layer_1
 62
7
100
AcDbSpline
 70
8
 71
3
 72
8
 73
4
 74
0
 40
0
 40
0
 40
0
 40
0
 40
1
 40
1
 40
1
 40
1
 10
70.917335
 20
194.470661
 30
0.0
 10
70.917335
 20
194.346830
 30
0.0
 10
70.935830
 20
194.227030
 30
0.0
 10
70.958413
 20
194.204437
 30
0.0
  0
SPLINE
  5
2a1
100
AcDbEntity
  8
Layer_1
 62
7
100
AcDbSpline
 70
8
 71
3
 72
8
 73
4
 74
0
 40
0
 40
0
 40
0
 40
0
 40
1
 40
1
 40
1
 40
1
 10
70.958413
 20
194.204437
 30
0.0
 10
71.058465
 20
194.104385
 30
0.0
 10
71.086499
 20
194.289171
 30
0.0
 10
71.034566
 20
194.706383
 30
0.0
  0
LINE
  5
2a2
100
AcDbEntity
  8
Layer_1
 62
7
100
AcDbLine
 10
71.034566
 20
194.706383
 30
0.0
 11
71.034566
 21
194.706383
 31
0.0
  0
SPLINE
  5
2a3
100
AcDbEntity
  8
Layer_1
 62
7
100
AcDbSpline
 70
8
 71
3
 72
8
 73
4
 74
0
 40
0
 40
0
 40
0
 40
0
 40
1
 40
1
 40
1
 40
1
 10
60.968577
 20
194.744921
 30
0.0
 10
60.654275
 20
194.823273
 30
0.0
 10
60.357425
 20
194.963073
 30
0.0
 10
60.357425
 20
195.032740
 30
0.0
  0
SPLINE
  5
2a4
100
AcDbEntity
  8
Layer_1
 62
7
100
AcDbSpline
 70
8
 71
3
 72
8
 73
4
 74
0
 40
0
 40
0
 40
0
 40
0
 40
1
 40
1
 40
1
 40
1
 10
60.357425
 20
195.032740
 30
0.0
 10
60.357425
 20
195.154594
 30
0.0
 10
61.776868
 20
195.619752
 30
0.0
 10
62.248588
 20
195.652482
 30
0.0
  0
SPLINE
  5
2a5
100
AcDbEntity
  8
Layer_1
 62
7
100
AcDbSpline
 70
8
 71
3
 72
8
 73
4
 74
0
 40
0
 40
0
 40
0
 40
0
 40
1
 40
1
 40
1
 40
1
 10
62.248588
 20
195.652482
 30
0.0
 10
62.581604
 20
195.675591
 30
0.0
 10
62.723597
 20
195.653164
 30
0.0
 10
63.064674
 20
195.524044
 30
0.0
  0
SPLINE
  5
2a6
100
AcDbEntity
  8
Layer_1
 62
7
100
AcDbSpline
 70
8
 71
3
 72
8
 73
4
 74
0
 40
0
 40
0
 40
0
 40
0
 40
1
 40
1
 40
1
 40
1
 10
63.064674
 20
195.524044
 30
0.0
 10
63.291781
 20
195.438017
 30
0.0
 10
63.538691
 20
195.367630
 30
0.0
 10
63.613360
 20
195.367630
 30
0.0
  0
SPLINE
  5
2a7
100
AcDbEntity
  8
Layer_1
 62
7
100
AcDbSpline
 70
8
 71
3
 72
8
 73
4
 74
0
 40
0
 40
0
 40
0
 40
0
 40
1
 40
1
 40
1
 40
1
 10
63.613360
 20
195.367630
 30
0.0
 10
63.754269
 20
195.367630
 30
0.0
 10
63.926146
 20
195.219064
 30
0.0
 10
63.841909
 20
195.170080
 30
0.0
  0
SPLINE
  5
2a8
100
AcDbEntity
  8
Layer_1
 62
7
100
AcDbSpline
 70
8
 71
3
 72
8
 73
4
 74
0
 40
0
 40
0
 40
0
 40
0
 40
1
 40
1
 40
1
 40
1
 10
63.841909
 20
195.170080
 30
0.0
 10
63.651602
 20
195.059413
 30
0.0
 10
62.579643
 20
194.805229
 30
0.0
 10
62.261015
 20
194.795214
 30
0.0
  0
SPLINE
  5
2a9
100
AcDbEntity
  8
Layer_1
 62
7
100
AcDbSpline
 70
8
 71
3
 72
8
 73
4
 74
0
 40
0
 40
0
 40
0
 40
0
 40
1
 40
1
 40
1
 40
1
 10
62.261015
 20
194.795214
 30
0.0
 10
62.046109
 20
194.788466
 30
0.0
 10
61.694447
 20
194.767636
 30
0.0
 10
61.479541
 20
194.748942
 30
0.0
  0
SPLINE
  5
2aa
100
AcDbEntity
  8
Layer_1
 62
7
100
AcDbSpline
 70
8
 71
3
 72
8
 73
4
 74
0
 40
0
 40
0
 40
0
 40
0
 40
1
 40
1
 40
1
 40
1
 10
61.479541
 20
194.748942
 30
0.0
 10
61.264637
 20
194.730243
 30
0.0
 10
61.034703
 20
194.728449
 30
0.0
 10
60.968577
 20
194.744921
 30
0.0
  0
LINE
  5
2ab
100
AcDbEntity
  8
Layer_1
 62
7
100
AcDbLine
 10
60.968577
 20
194.744921
 30
0.0
 11
60.968577
 21
194.744921
 31
0.0
  0
SPLINE
  5
2ac
100
AcDbEntity
  8
Layer_1
 62
7
100
AcDbSpline
 70
8
 71
3
 72
8
 73
4
 74
0
 40
0
 40
0
 40
0
 40
0
 40
1
 40
1
 40
1
 40
1
 10
65.313350
 20
198.694472
 30
0.0
 10
65.143388
 20
199.050885
 30
0.0
 10
64.681788
 20
199.176161
 30
0.0
 10
64.088730
 20
199.026827
 30
0.0
  0
SPLINE
  5
2ad
100
AcDbEntity
  8
Layer_1
 62
7
100
AcDbSpline
 70
8
 71
3
 72
8
 73
4
 74
0
 40
0
 40
0
 40
0
 40
0
 40
1
 40
1
 40
1
 40
1
 10
64.088730
 20
199.026827
 30
0.0
 10
63.940576
 20
198.989521
 30
0.0
 10
63.804396
 20
198.973958
 30
0.0
 10
63.786114
 20
198.992241
 30
0.0
  0
SPLINE
  5
2ae
100
AcDbEntity
  8
Layer_1
 62
7
100
AcDbSpline
 70
8
 71
3
 72
8
 73
4
 74
0
 40
0
 40
0
 40
0
 40
0
 40
1
 40
1
 40
1
 40
1
 10
63.786114
 20
198.992241
 30
0.0
 10
63.659763
 20
199.118591
 30
0.0
 10
64.284665
 20
199.851554
 30
0.0
 10
64.823884
 20
200.209467
 30
0.0
  0
SPLINE
  5
2af
100
AcDbEntity
  8
Layer_1
 62
7
100
AcDbSpline
 70
8
 71
3
 72
8
 73
4
 74
0
 40
0
 40
0
 40
0
 40
0
 40
1
 40
1
 40
1
 40
1
 10
64.823884
 20
200.209467
 30
0.0
 10
65.226639
 20
200.476802
 30
0.0
 10
65.321452
 20
200.430880
 30
0.0
 10
65.149464
 20
200.051776
 30
0.0
  0
SPLINE
  5
2b0
100
AcDbEntity
  8
Layer_1
 62
7
100
AcDbSpline
 70
8
 71
3
 72
8
 73
4
 74
0
 40
0
 40
0
 40
0
 40
0
 40
1
 40
1
 40
1
 40
1
 10
65.149464
 20
200.051776
 30
0.0
 10
65.083137
 20
199.905578
 30
0.0
 10
65.028275
 20
199.724018
 30
0.0
 10
65.027548
 20
199.648310
 30
0.0
  0
SPLINE
  5
2b1
100
AcDbEntity
  8
Layer_1
 62
7
100
AcDbSpline
 70
8
 71
3
 72
8
 73
4
 74
0
 40
0
 40
0
 40
0
 40
0
 40
1
 40
1
 40
1
 40
1
 10
65.027548
 20
199.648310
 30
0.0
 10
65.025503
 20
199.439377
 30
0.0
 10
65.233887
 20
199.075791
 30
0.0
 10
65.478874
 20
198.860692
 30
0.0
  0
SPLINE
  5
2b2
100
AcDbEntity
  8
Layer_1
 62
7
100
AcDbSpline
 70
8
 71
3
 72
8
 73
4
 74
0
 40
0
 40
0
 40
0
 40
0
 40
1
 40
1
 40
1
 40
1
 10
65.478874
 20
198.860692
 30
0.0
 10
65.705951
 20
198.661315
 30
0.0
 10
65.724816
 20
198.493523
 30
0.0
 10
65.520156
 20
198.493523
 30
0.0
  0
SPLINE
  5
2b3
100
AcDbEntity
  8
Layer_1
 62
7
100
AcDbSpline
 70
8
 71
3
 72
8
 73
4
 74
0
 40
0
 40
0
 40
0
 40
0
 40
1
 40
1
 40
1
 40
1
 10
65.520156
 20
198.493523
 30
0.0
 10
65.453503
 20
198.493523
 30
0.0
 10
65.370902
 20
198.573784
 30
0.0
 10
65.313350
 20
198.694472
 30
0.0
  0
LINE
  5
2b4
100
AcDbEntity
  8
Layer_1
 62
7
100
AcDbLine
 10
65.313350
 20
198.694472
 30
0.0
 11
65.313350
 21
198.694472
 31
0.0
  0
SPLINE
  5
2b5
100
AcDbEntity
  8
Layer_1
 62
7
100
AcDbSpline
 70
8
 71
3
 72
8
 73
4
 74
0
 40
0
 40
0
 40
0
 40
0
 40
1
 40
1
 40
1
 40
1
 10
65.100032
 20
190.088359
 30
0.0
 10
65.574916
 20
190.277582
 30
0.0
 10
65.951157
 20
190.469242
 30
0.0
 10
66.091903
 20
190.593620
 30
0.0
  0
SPLINE
  5
2b6
100
AcDbEntity
  8
Layer_1
 62
7
100
AcDbSpline
 70
8
 71
3
 72
8
 73
4
 74
0
 40
0
 40
0
 40
0
 40
0
 40
1
 40
1
 40
1
 40
1
 10
66.091903
 20
190.593620
 30
0.0
 10
66.367415
 20
190.837092
 30
0.0
 10
66.294015
 20
190.846141
 30
0.0
 10
65.657419
 20
190.647182
 30
0.0
  0
SPLINE
  5
2b7
100
AcDbEntity
  8
Layer_1
 62
7
100
AcDbSpline
 70
8
 71
3
 72
8
 73
4
 74
0
 40
0
 40
0
 40
0
 40
0
 40
1
 40
1
 40
1
 40
1
 10
65.657419
 20
190.647182
 30
0.0
 10
64.500649
 20
190.285650
 30
0.0
 10
64.331623
 20
190.207291
 30
0.0
 10
64.224655
 20
189.982981
 30
0.0
  0
SPLINE
  5
2b8
100
AcDbEntity
  8
Layer_1
 62
7
100
AcDbSpline
 70
8
 71
3
 72
8
 73
4
 74
0
 40
0
 40
0
 40
0
 40
0
 40
1
 40
1
 40
1
 40
1
 10
64.224655
 20
189.982981
 30
0.0
 10
64.169586
 20
189.867498
 30
0.0
 10
64.124528
 20
189.757510
 30
0.0
 10
64.124528
 20
189.738562
 30
0.0
  0
SPLINE
  5
2b9
100
AcDbEntity
  8
Layer_1
 62
7
100
AcDbSpline
 70
8
 71
3
 72
8
 73
4
 74
0
 40
0
 40
0
 40
0
 40
0
 40
1
 40
1
 40
1
 40
1
 10
64.124528
 20
189.738562
 30
0.0
 10
64.124528
 20
189.698684
 30
0.0
 10
64.100165
 20
189.689948
 30
0.0
 10
65.100032
 20
190.088359
 30
0.0
  0
LINE
  5
2ba
100
AcDbEntity
  8
Layer_1
 62
7
100
AcDbLine
 10
65.100032
 20
190.088359
 30
0.0
 11
65.100032
 21
190.088359
 31
0.0
  0
SPLINE
  5
2bb
100
AcDbEntity
  8
Layer_1
 62
7
100
AcDbSpline
 70
8
 71
3
 72
8
 73
4
 74
0
 40
0
 40
0
 40
0
 40
0
 40
1
 40
1
 40
1
 40
1
 10
54.339387
 20
192.149220
 30
0.0
 10
54.054634
 20
192.285683
 30
0.0
 10
53.902254
 20
192.394273
 30
0.0
 10
53.896522
 20
192.464814
 30
0.0
  0
SPLINE
  5
2bc
100
AcDbEntity
  8
Layer_1
 62
7
100
AcDbSpline
 70
8
 71
3
 72
8
 73
4
 74
0
 40
0
 40
0
 40
0
 40
0
 40
1
 40
1
 40
1
 40
1
 10
53.896522
 20
192.464814
 30
0.0
 10
53.859670
 20
192.918369
 30
0.0
 10
53.996403
 20
193.286674
 30
0.0
 10
54.473185
 20
194.018124
 30
0.0
  0
SPLINE
  5
2bd
100
AcDbEntity
  8
Layer_1
 62
7
100
AcDbSpline
 70
8
 71
3
 72
8
 73
4
 74
0
 40
0
 40
0
 40
0
 40
0
 40
1
 40
1
 40
1
 40
1
 10
54.473185
 20
194.018124
 30
0.0
 10
54.843012
 20
194.585488
 30
0.0
 10
54.960623
 20
194.676293
 30
0.0
 10
55.205210
 20
194.583302
 30
0.0
  0
SPLINE
  5
2be
100
AcDbEntity
  8
Layer_1
 62
7
100
AcDbSpline
 70
8
 71
3
 72
8
 73
4
 74
0
 40
0
 40
0
 40
0
 40
0
 40
1
 40
1
 40
1
 40
1
 10
55.205210
 20
194.583302
 30
0.0
 10
55.437688
 20
194.494912
 30
0.0
 10
56.249681
 20
193.982671
 30
0.0
 10
56.249681
 20
193.924401
 30
0.0
  0
SPLINE
  5
2bf
100
AcDbEntity
  8
Layer_1
 62
7
100
AcDbSpline
 70
8
 71
3
 72
8
 73
4
 74
0
 40
0
 40
0
 40
0
 40
0
 40
1
 40
1
 40
1
 40
1
 10
56.249681
 20
193.924401
 30
0.0
 10
56.249681
 20
193.897903
 30
0.0
 10
56.130483
 20
193.806366
 30
0.0
 10
55.984797
 20
193.720989
 30
0.0
  0
SPLINE
  5
2c0
100
AcDbEntity
  8
Layer_1
 62
7
100
AcDbSpline
 70
8
 71
3
 72
8
 73
4
 74
0
 40
0
 40
0
 40
0
 40
0
 40
1
 40
1
 40
1
 40
1
 10
55.984797
 20
193.720989
 30
0.0
 10
55.670609
 20
193.536862
 30
0.0
 10
55.452025
 20
193.203598
 30
0.0
 10
55.163307
 20
192.468506
 30
0.0
  0
SPLINE
  5
2c1
100
AcDbEntity
  8
Layer_1
 62
7
100
AcDbSpline
 70
8
 71
3
 72
8
 73
4
 74
0
 40
0
 40
0
 40
0
 40
0
 40
1
 40
1
 40
1
 40
1
 10
55.163307
 20
192.468506
 30
0.0
 10
55.030542
 20
192.130478
 30
0.0
 10
54.924568
 20
191.943379
 30
0.0
 10
54.865379
 20
191.942513
 30
0.0
  0
SPLINE
  5
2c2
100
AcDbEntity
  8
Layer_1
 62
7
100
AcDbSpline
 70
8
 71
3
 72
8
 73
4
 74
0
 40
0
 40
0
 40
0
 40
0
 40
1
 40
1
 40
1
 40
1
 10
54.865379
 20
191.942513
 30
0.0
 10
54.814852
 20
191.941831
 30
0.0
 10
54.578156
 20
192.034793
 30
0.0
 10
54.339387
 20
192.149220
 30
0.0
  0
LINE
  5
2c3
100
AcDbEntity
  8
Layer_1
 62
7
100
AcDbLine
 10
54.339387
 20
192.149220
 30
0.0
 11
54.339387
 21
192.149220
 31
0.0
  0
SPLINE
  5
2c4
100
AcDbEntity
  8
Layer_1
 62
7
100
AcDbSpline
 70
8
 71
3
 72
8
 73
4
 74
0
 40
0
 40
0
 40
0
 40
0
 40
1
 40
1
 40
1
 40
1
 10
53.330450
 20
192.396993
 30
0.0
 10
52.511454
 20
192.832226
 30
0.0
 10
52.395768
 20
192.990668
 30
0.0
 10
52.513352
 20
193.516089
 30
0.0
  0
SPLINE
  5
2c5
100
AcDbEntity
  8
Layer_1
 62
7
100
AcDbSpline
 70
8
 71
3
 72
8
 73
4
 74
0
 40
0
 40
0
 40
0
 40
0
 40
1
 40
1
 40
1
 40
1
 10
52.513352
 20
193.516089
 30
0.0
 10
52.649105
 20
194.122697
 30
0.0
 10
53.505904
 20
195.248687
 30
0.0
 10
53.890224
 20
195.325551
 30
0.0
  0
SPLINE
  5
2c6
100
AcDbEntity
  8
Layer_1
 62
7
100
AcDbSpline
 70
8
 71
3
 72
8
 73
4
 74
0
 40
0
 40
0
 40
0
 40
0
 40
1
 40
1
 40
1
 40
1
 10
53.890224
 20
195.325551
 30
0.0
 10
54.070309
 20
195.361569
 30
0.0
 10
54.467783
 20
195.256941
 30
0.0
 10
54.882103
 20
195.064455
 30
0.0
  0
SPLINE
  5
2c7
100
AcDbEntity
  8
Layer_1
 62
7
100
AcDbSpline
 70
8
 71
3
 72
8
 73
4
 74
0
 40
0
 40
0
 40
0
 40
0
 40
1
 40
1
 40
1
 40
1
 10
54.882103
 20
195.064455
 30
0.0
 10
55.067812
 20
194.978178
 30
0.0
 10
55.102296
 20
194.792369
 30
0.0
 10
54.942216
 20
194.740545
 30
0.0
  0
SPLINE
  5
2c8
100
AcDbEntity
  8
Layer_1
 62
7
100
AcDbSpline
 70
8
 71
3
 72
8
 73
4
 74
0
 40
0
 40
0
 40
0
 40
0
 40
1
 40
1
 40
1
 40
1
 10
54.942216
 20
194.740545
 30
0.0
 10
54.795846
 20
194.693160
 30
0.0
 10
54.166586
 20
193.794963
 30
0.0
 10
53.950344
 20
193.324762
 30
0.0
  0
SPLINE
  5
2c9
100
AcDbEntity
  8
Layer_1
 62
7
100
AcDbSpline
 70
8
 71
3
 72
8
 73
4
 74
0
 40
0
 40
0
 40
0
 40
0
 40
1
 40
1
 40
1
 40
1
 10
53.950344
 20
193.324762
 30
0.0
 10
53.830295
 20
193.063722
 30
0.0
 10
53.767773
 20
192.826925
 30
0.0
 10
53.761030
 20
192.607741
 30
0.0
  0
SPLINE
  5
2ca
100
AcDbEntity
  8
Layer_1
 62
7
100
AcDbSpline
 70
8
 71
3
 72
8
 73
4
 74
0
 40
0
 40
0
 40
0
 40
0
 40
1
 40
1
 40
1
 40
1
 10
53.761030
 20
192.607741
 30
0.0
 10
53.755493
 20
192.427744
 30
0.0
 10
53.723133
 20
192.271199
 30
0.0
 10
53.689121
 20
192.259864
 30
0.0
  0
SPLINE
  5
2cb
100
AcDbEntity
  8
Layer_1
 62
7
100
AcDbSpline
 70
8
 71
3
 72
8
 73
4
 74
0
 40
0
 40
0
 40
0
 40
0
 40
1
 40
1
 40
1
 40
1
 10
53.689121
 20
192.259864
 30
0.0
 10
53.655110
 20
192.248526
 30
0.0
 10
53.493708
 20
192.310234
 30
0.0
 10
53.330450
 20
192.396993
 30
0.0
  0
LINE
  5
2cc
100
AcDbEntity
  8
Layer_1
 62
7
100
AcDbLine
 10
53.330450
 20
192.396993
 30
0.0
 11
53.330450
 21
192.396993
 31
0.0
  0
SPLINE
  5
2cd
100
AcDbEntity
  8
Layer_1
 62
7
100
AcDbSpline
 70
8
 71
3
 72
8
 73
4
 74
0
 40
0
 40
0
 40
0
 40
0
 40
1
 40
1
 40
1
 40
1
 10
52.443670
 20
192.483188
 30
0.0
 10
52.200963
 20
192.556042
 30
0.0
 10
52.097730
 20
192.657836
 30
0.0
 10
51.966605
 20
192.953603
 30
0.0
  0
SPLINE
  5
2ce
100
AcDbEntity
  8
Layer_1
 62
7
100
AcDbSpline
 70
8
 71
3
 72
8
 73
4
 74
0
 40
0
 40
0
 40
0
 40
0
 40
1
 40
1
 40
1
 40
1
 10
51.966605
 20
192.953603
 30
0.0
 10
51.634203
 20
193.703374
 30
0.0
 10
52.365260
 20
195.430899
 30
0.0
 10
53.193832
 20
195.853607
 30
0.0
  0
SPLINE
  5
2cf
100
AcDbEntity
  8
Layer_1
 62
7
100
AcDbSpline
 70
8
 71
3
 72
8
 73
4
 74
0
 40
0
 40
0
 40
0
 40
0
 40
1
 40
1
 40
1
 40
1
 10
53.193832
 20
195.853607
 30
0.0
 10
53.522720
 20
196.021392
 30
0.0
 10
53.760184
 20
196.002866
 30
0.0
 10
53.969999
 20
195.793051
 30
0.0
  0
SPLINE
  5
2d0
100
AcDbEntity
  8
Layer_1
 62
7
100
AcDbSpline
 70
8
 71
3
 72
8
 73
4
 74
0
 40
0
 40
0
 40
0
 40
0
 40
1
 40
1
 40
1
 40
1
 10
53.969999
 20
195.793051
 30
0.0
 10
54.197891
 20
195.565158
 30
0.0
 10
54.191513
 20
195.509830
 30
0.0
 10
53.931731
 20
195.461096
 30
0.0
  0
SPLINE
  5
2d1
100
AcDbEntity
  8
Layer_1
 62
7
100
AcDbSpline
 70
8
 71
3
 72
8
 73
4
 74
0
 40
0
 40
0
 40
0
 40
0
 40
1
 40
1
 40
1
 40
1
 10
53.931731
 20
195.461096
 30
0.0
 10
53.372376
 20
195.356161
 30
0.0
 10
52.386630
 20
193.956532
 30
0.0
 10
52.376460
 20
193.252819
 30
0.0
  0
SPLINE
  5
2d2
100
AcDbEntity
  8
Layer_1
 62
7
100
AcDbSpline
 70
8
 71
3
 72
8
 73
4
 74
0
 40
0
 40
0
 40
0
 40
0
 40
1
 40
1
 40
1
 40
1
 10
52.376460
 20
193.252819
 30
0.0
 10
52.372986
 20
193.012241
 30
0.0
 10
52.401584
 20
192.939792
 30
0.0
 10
52.567739
 20
192.768292
 30
0.0
  0
SPLINE
  5
2d3
100
AcDbEntity
  8
Layer_1
 62
7
100
AcDbSpline
 70
8
 71
3
 72
8
 73
4
 74
0
 40
0
 40
0
 40
0
 40
0
 40
1
 40
1
 40
1
 40
1
 10
52.567739
 20
192.768292
 30
0.0
 10
52.866773
 20
192.459638
 30
0.0
 10
52.826954
 20
192.368138
 30
0.0
 10
52.443670
 20
192.483188
 30
0.0
  0
LINE
  5
2d4
100
AcDbEntity
  8
Layer_1
 62
7
100
AcDbLine
 10
52.443670
 20
192.483188
 30
0.0
 11
52.443670
 21
192.483188
 31
0.0
  0
SPLINE
  5
2d5
100
AcDbEntity
  8
Layer_1
 62
7
100
AcDbSpline
 70
8
 71
3
 72
8
 73
4
 74
0
 40
0
 40
0
 40
0
 40
0
 40
1
 40
1
 40
1
 40
1
 10
58.323447
 20
195.174676
 30
0.0
 10
58.643420
 20
195.991553
 30
0.0
 10
58.746082
 20
196.180859
 30
0.0
 10
59.014895
 20
196.449670
 30
0.0
  0
SPLINE
  5
2d6
100
AcDbEntity
  8
Layer_1
 62
7
100
AcDbSpline
 70
8
 71
3
 72
8
 73
4
 74
0
 40
0
 40
0
 40
0
 40
0
 40
1
 40
1
 40
1
 40
1
 10
59.014895
 20
196.449670
 30
0.0
 10
59.308284
 20
196.743061
 30
0.0
 10
59.450208
 20
196.815197
 30
0.0
 10
60.921051
 20
197.418533
 30
0.0
  0
SPLINE
  5
2d7
100
AcDbEntity
  8
Layer_1
 62
7
100
AcDbSpline
 70
8
 71
3
 72
8
 73
4
 74
0
 40
0
 40
0
 40
0
 40
0
 40
1
 40
1
 40
1
 40
1
 10
60.921051
 20
197.418533
 30
0.0
 10
62.914236
 20
198.236128
 30
0.0
 10
63.751650
 20
198.466004
 30
0.0
 10
64.199027
 20
198.318356
 30
0.0
  0
SPLINE
  5
2d8
100
AcDbEntity
  8
Layer_1
 62
7
100
AcDbSpline
 70
8
 71
3
 72
8
 73
4
 74
0
 40
0
 40
0
 40
0
 40
0
 40
1
 40
1
 40
1
 40
1
 10
64.199027
 20
198.318356
 30
0.0
 10
64.411193
 20
198.248333
 30
0.0
 10
64.719083
 20
197.964056
 30
0.0
 10
64.842137
 20
197.724562
 30
0.0
  0
SPLINE
  5
2d9
100
AcDbEntity
  8
Layer_1
 62
7
100
AcDbSpline
 70
8
 71
3
 72
8
 73
4
 74
0
 40
0
 40
0
 40
0
 40
0
 40
1
 40
1
 40
1
 40
1
 10
64.842137
 20
197.724562
 30
0.0
 10
65.004887
 20
197.407811
 30
0.0
 10
64.895347
 20
196.785558
 30
0.0
 10
64.639456
 20
196.573188
 30
0.0
  0
SPLINE
  5
2da
100
AcDbEntity
  8
Layer_1
 62
7
100
AcDbSpline
 70
8
 71
3
 72
8
 73
4
 74
0
 40
0
 40
0
 40
0
 40
0
 40
1
 40
1
 40
1
 40
1
 10
64.639456
 20
196.573188
 30
0.0
 10
64.512688
 20
196.467978
 30
0.0
 10
64.520931
 20
196.318256
 30
0.0
 10
64.672950
 20
195.964880
 30
0.0
  0
SPLINE
  5
2db
100
AcDbEntity
  8
Layer_1
 62
7
100
AcDbSpline
 70
8
 71
3
 72
8
 73
4
 74
0
 40
0
 40
0
 40
0
 40
0
 40
1
 40
1
 40
1
 40
1
 10
64.672950
 20
195.964880
 30
0.0
 10
64.813258
 20
195.638728
 30
0.0
 10
64.809620
 20
195.640852
 30
0.0
 10
65.071330
 20
195.732084
 30
0.0
  0
SPLINE
  5
2dc
100
AcDbEntity
  8
Layer_1
 62
7
100
AcDbSpline
 70
8
 71
3
 72
8
 73
4
 74
0
 40
0
 40
0
 40
0
 40
0
 40
1
 40
1
 40
1
 40
1
 10
65.071330
 20
195.732084
 30
0.0
 10
65.253162
 20
195.795473
 30
0.0
 10
65.254346
 20
195.798736
 30
0.0
 10
65.222586
 20
196.148980
 30
0.0
  0
SPLINE
  5
2dd
100
AcDbEntity
  8
Layer_1
 62
7
100
AcDbSpline
 70
8
 71
3
 72
8
 73
4
 74
0
 40
0
 40
0
 40
0
 40
0
 40
1
 40
1
 40
1
 40
1
 10
65.222586
 20
196.148980
 30
0.0
 10
65.194581
 20
196.457822
 30
0.0
 10
65.211112
 20
196.537013
 30
0.0
 10
65.354623
 20
196.781912
 30
0.0
  0
SPLINE
  5
2de
100
AcDbEntity
  8
Layer_1
 62
7
100
AcDbSpline
 70
8
 71
3
 72
8
 73
4
 74
0
 40
0
 40
0
 40
0
 40
0
 40
1
 40
1
 40
1
 40
1
 10
65.354623
 20
196.781912
 30
0.0
 10
65.514985
 20
197.055551
 30
0.0
 10
65.516985
 20
197.070817
 30
0.0
 10
65.443683
 20
197.462083
 30
0.0
  0
SPLINE
  5
2df
100
AcDbEntity
  8
Layer_1
 62
7
100
AcDbSpline
 70
8
 71
3
 72
8
 73
4
 74
0
 40
0
 40
0
 40
0
 40
0
 40
1
 40
1
 40
1
 40
1
 10
65.443683
 20
197.462083
 30
0.0
 10
65.167031
 20
198.938826
 30
0.0
 10
64.998221
 20
199.070411
 30
0.0
 10
63.811805
 20
198.734107
 30
0.0
  0
SPLINE
  5
2e0
100
AcDbEntity
  8
Layer_1
 62
7
100
AcDbSpline
 70
8
 71
3
 72
8
 73
4
 74
0
 40
0
 40
0
 40
0
 40
0
 40
1
 40
1
 40
1
 40
1
 10
63.811805
 20
198.734107
 30
0.0
 10
62.080803
 20
198.243437
 30
0.0
 10
59.544951
 20
197.349578
 30
0.0
 10
58.763141
 20
196.954509
 30
0.0
  0
SPLINE
  5
2e1
100
AcDbEntity
  8
Layer_1
 62
7
100
AcDbSpline
 70
8
 71
3
 72
8
 73
4
 74
0
 40
0
 40
0
 40
0
 40
0
 40
1
 40
1
 40
1
 40
1
 10
58.763141
 20
196.954509
 30
0.0
 10
58.371705
 20
196.756706
 30
0.0
 10
58.204730
 20
196.507388
 30
0.0
 10
58.021340
 20
195.846884
 30
0.0
  0
SPLINE
  5
2e2
100
AcDbEntity
  8
Layer_1
 62
7
100
AcDbSpline
 70
8
 71
3
 72
8
 73
4
 74
0
 40
0
 40
0
 40
0
 40
0
 40
1
 40
1
 40
1
 40
1
 10
58.021340
 20
195.846884
 30
0.0
 10
57.824293
 20
195.137200
 30
0.0
 10
57.650903
 20
194.686148
 30
0.0
 10
57.502715
 20
194.497759
 30
0.0
  0
LINE
  5
2e3
100
AcDbEntity
  8
Layer_1
 62
7
100
AcDbLine
 10
57.502715
 20
194.497759
 30
0.0
 11
57.388397
 21
194.352426
 31
0.0
  0
LINE
  5
2e4
100
AcDbEntity
  8
Layer_1
 62
7
100
AcDbLine
 10
57.388397
 20
194.352426
 30
0.0
 11
57.741605
 21
194.471706
 31
0.0
  0
LINE
  5
2e5
100
AcDbEntity
  8
Layer_1
 62
7
100
AcDbLine
 10
57.741605
 20
194.471706
 30
0.0
 11
58.094814
 21
194.590988
 31
0.0
  0
LINE
  5
2e6
100
AcDbEntity
  8
Layer_1
 62
7
100
AcDbLine
 10
58.094814
 20
194.590988
 30
0.0
 11
58.323447
 21
195.174676
 31
0.0
  0
SPLINE
  5
2e7
100
AcDbEntity
  8
Layer_1
 62
7
100
AcDbSpline
 70
8
 71
3
 72
8
 73
4
 74
0
 40
0
 40
0
 40
0
 40
0
 40
1
 40
1
 40
1
 40
1
 10
59.021231
 20
195.283196
 30
0.0
 10
59.144123
 20
195.801982
 30
0.0
 10
59.264347
 20
196.078625
 30
0.0
 10
59.478547
 20
196.335516
 30
0.0
  0
LINE
  5
2e8
100
AcDbEntity
  8
Layer_1
 62
7
100
AcDbLine
 10
59.478547
 20
196.335516
 30
0.0
 11
59.646085
 21
196.536443
 31
0.0
  0
LINE
  5
2e9
100
AcDbEntity
  8
Layer_1
 62
7
100
AcDbLine
 10
59.646085
 20
196.536443
 30
0.0
 11
59.421593
 21
196.366406
 31
0.0
  0
SPLINE
  5
2ea
100
AcDbEntity
  8
Layer_1
 62
7
100
AcDbSpline
 70
8
 71
3
 72
8
 73
4
 74
0
 40
0
 40
0
 40
0
 40
0
 40
1
 40
1
 40
1
 40
1
 10
59.421593
 20
196.366406
 30
0.0
 10
59.147005
 20
196.158427
 30
0.0
 10
59.013849
 20
195.948188
 30
0.0
 10
58.717366
 20
195.254512
 30
0.0
  0
LINE
  5
2eb
100
AcDbEntity
  8
Layer_1
 62
7
100
AcDbLine
 10
58.717366
 20
195.254512
 30
0.0
 11
58.487850
 21
194.717516
 31
0.0
  0
LINE
  5
2ec
100
AcDbEntity
  8
Layer_1
 62
7
100
AcDbLine
 10
58.487850
 20
194.717516
 30
0.0
 11
58.705381
 21
194.792826
 31
0.0
  0
SPLINE
  5
2ed
100
AcDbEntity
  8
Layer_1
 62
7
100
AcDbSpline
 70
8
 71
3
 72
8
 73
4
 74
0
 40
0
 40
0
 40
0
 40
0
 40
1
 40
1
 40
1
 40
1
 10
58.705381
 20
194.792826
 30
0.0
 10
58.910623
 20
194.863885
 30
0.0
 10
58.928465
 20
194.891585
 30
0.0
 10
59.021231
 20
195.283196
 30
0.0
  0
LINE
  5
2ee
100
AcDbEntity
  8
Layer_1
 62
7
100
AcDbLine
 10
59.021231
 20
195.283196
 30
0.0
 11
59.021231
 21
195.283196
 31
0.0
  0
SPLINE
  5
2ef
100
AcDbEntity
  8
Layer_1
 62
7
100
AcDbSpline
 70
8
 71
3
 72
8
 73
4
 74
0
 40
0
 40
0
 40
0
 40
0
 40
1
 40
1
 40
1
 40
1
 10
60.657865
 20
195.435902
 30
0.0
 10
62.165164
 20
195.946527
 30
0.0
 10
62.409077
 20
195.972112
 30
0.0
 10
63.222828
 20
195.704961
 30
0.0
  0
SPLINE
  5
2f0
100
AcDbEntity
  8
Layer_1
 62
7
100
AcDbSpline
 70
8
 71
3
 72
8
 73
4
 74
0
 40
0
 40
0
 40
0
 40
0
 40
1
 40
1
 40
1
 40
1
 10
63.222828
 20
195.704961
 30
0.0
 10
63.621580
 20
195.574053
 30
0.0
 10
63.804487
 20
195.544185
 30
0.0
 10
64.055716
 20
195.568959
 30
0.0
  0
SPLINE
  5
2f1
100
AcDbEntity
  8
Layer_1
 62
7
100
AcDbSpline
 70
8
 71
3
 72
8
 73
4
 74
0
 40
0
 40
0
 40
0
 40
0
 40
1
 40
1
 40
1
 40
1
 10
64.055716
 20
195.568959
 30
0.0
 10
64.232773
 20
195.586431
 30
0.0
 10
64.388798
 20
195.611861
 30
0.0
 10
64.402435
 20
195.625500
 30
0.0
  0
SPLINE
  5
2f2
100
AcDbEntity
  8
Layer_1
 62
7
100
AcDbSpline
 70
8
 71
3
 72
8
 73
4
 74
0
 40
0
 40
0
 40
0
 40
0
 40
1
 40
1
 40
1
 40
1
 10
64.402435
 20
195.625500
 30
0.0
 10
64.416067
 20
195.639132
 30
0.0
 10
64.373244
 20
195.769290
 30
0.0
 10
64.307256
 20
195.914728
 30
0.0
  0
SPLINE
  5
2f3
100
AcDbEntity
  8
Layer_1
 62
7
100
AcDbSpline
 70
8
 71
3
 72
8
 73
4
 74
0
 40
0
 40
0
 40
0
 40
0
 40
1
 40
1
 40
1
 40
1
 10
64.307256
 20
195.914728
 30
0.0
 10
64.133507
 20
196.297683
 30
0.0
 10
64.152574
 20
196.484480
 30
0.0
 10
64.402435
 20
196.847268
 30
0.0
  0
SPLINE
  5
2f4
100
AcDbEntity
  8
Layer_1
 62
7
100
AcDbSpline
 70
8
 71
3
 72
8
 73
4
 74
0
 40
0
 40
0
 40
0
 40
0
 40
1
 40
1
 40
1
 40
1
 10
64.402435
 20
196.847268
 30
0.0
 10
64.589170
 20
197.118402
 30
0.0
 10
64.614464
 20
197.194218
 30
0.0
 10
64.579810
 20
197.378946
 30
0.0
  0
SPLINE
  5
2f5
100
AcDbEntity
  8
Layer_1
 62
7
100
AcDbSpline
 70
8
 71
3
 72
8
 73
4
 74
0
 40
0
 40
0
 40
0
 40
0
 40
1
 40
1
 40
1
 40
1
 10
64.579810
 20
197.378946
 30
0.0
 10
64.557589
 20
197.497442
 30
0.0
 10
64.456769
 20
197.688494
 30
0.0
 10
64.355788
 20
197.803505
 30
0.0
  0
SPLINE
  5
2f6
100
AcDbEntity
  8
Layer_1
 62
7
100
AcDbSpline
 70
8
 71
3
 72
8
 73
4
 74
0
 40
0
 40
0
 40
0
 40
0
 40
1
 40
1
 40
1
 40
1
 10
64.355788
 20
197.803505
 30
0.0
 10
64.194217
 20
197.987526
 30
0.0
 10
64.137676
 20
198.012618
 30
0.0
 10
63.884573
 20
198.012618
 30
0.0
  0
SPLINE
  5
2f7
100
AcDbEntity
  8
Layer_1
 62
7
100
AcDbSpline
 70
8
 71
3
 72
8
 73
4
 74
0
 40
0
 40
0
 40
0
 40
0
 40
1
 40
1
 40
1
 40
1
 10
63.884573
 20
198.012618
 30
0.0
 10
63.493930
 20
198.012618
 30
0.0
 10
62.797669
 20
197.801163
 30
0.0
 10
61.509599
 20
197.291337
 30
0.0
  0
SPLINE
  5
2f8
100
AcDbEntity
  8
Layer_1
 62
7
100
AcDbSpline
 70
8
 71
3
 72
8
 73
4
 74
0
 40
0
 40
0
 40
0
 40
0
 40
1
 40
1
 40
1
 40
1
 10
61.509599
 20
197.291337
 30
0.0
 10
60.328863
 20
196.823996
 30
0.0
 10
60.101359
 20
196.668328
 30
0.0
 10
59.708470
 20
196.058934
 30
0.0
  0
SPLINE
  5
2f9
100
AcDbEntity
  8
Layer_1
 62
7
100
AcDbSpline
 70
8
 71
3
 72
8
 73
4
 74
0
 40
0
 40
0
 40
0
 40
0
 40
1
 40
1
 40
1
 40
1
 10
59.708470
 20
196.058934
 30
0.0
 10
59.449590
 20
195.657397
 30
0.0
 10
59.230148
 20
195.006950
 30
0.0
 10
59.353561
 20
195.006950
 30
0.0
  0
SPLINE
  5
2fa
100
AcDbEntity
  8
Layer_1
 62
7
100
AcDbSpline
 70
8
 71
3
 72
8
 73
4
 74
0
 40
0
 40
0
 40
0
 40
0
 40
1
 40
1
 40
1
 40
1
 10
59.353561
 20
195.006950
 30
0.0
 10
59.374516
 20
195.006950
 30
0.0
 10
59.961452
 20
195.199977
 30
0.0
 10
60.657865
 20
195.435902
 30
0.0
  0
LINE
  5
2fb
100
AcDbEntity
  8
Layer_1
 62
7
100
AcDbLine
 10
60.657865
 20
195.435902
 30
0.0
 11
60.657865
 21
195.435902
 31
0.0
  0
LINE
  5
2fc
100
AcDbEntity
  8
Layer_1
 62
7
100
AcDbLine
 10
65.884744
 20
196.003647
 30
0.0
 11
66.163546
 21
196.098644
 31
0.0
  0
LINE
  5
2fd
100
AcDbEntity
  8
Layer_1
 62
7
100
AcDbLine
 10
66.163546
 20
196.098644
 30
0.0
 11
66.065704
 21
196.343170
 31
0.0
  0
SPLINE
  5
2fe
100
AcDbEntity
  8
Layer_1
 62
7
100
AcDbSpline
 70
8
 71
3
 72
8
 73
4
 74
0
 40
0
 40
0
 40
0
 40
0
 40
1
 40
1
 40
1
 40
1
 10
66.065704
 20
196.343170
 30
0.0
 10
65.984178
 20
196.546926
 30
0.0
 10
65.979571
 20
196.631458
 30
0.0
 10
66.038068
 20
196.850169
 30
0.0
  0
SPLINE
  5
2ff
100
AcDbEntity
  8
Layer_1
 62
7
100
AcDbSpline
 70
8
 71
3
 72
8
 73
4
 74
0
 40
0
 40
0
 40
0
 40
0
 40
1
 40
1
 40
1
 40
1
 10
66.038068
 20
196.850169
 30
0.0
 10
66.138043
 20
197.223961
 30
0.0
 10
66.126283
 20
197.442155
 30
0.0
 10
65.979475
 20
197.937476
 30
0.0
  0
SPLINE
  5
300
100
AcDbEntity
  8
Layer_1
 62
7
100
AcDbSpline
 70
8
 71
3
 72
8
 73
4
 74
0
 40
0
 40
0
 40
0
 40
0
 40
1
 40
1
 40
1
 40
1
 10
65.979475
 20
197.937476
 30
0.0
 10
65.845205
 20
198.390495
 30
0.0
 10
65.833070
 20
198.406535
 30
0.0
 10
65.692119
 20
198.317325
 30
0.0
  0
SPLINE
  5
301
100
AcDbEntity
  8
Layer_1
 62
7
100
AcDbSpline
 70
8
 71
3
 72
8
 73
4
 74
0
 40
0
 40
0
 40
0
 40
0
 40
1
 40
1
 40
1
 40
1
 10
65.692119
 20
198.317325
 30
0.0
 10
65.618584
 20
198.270785
 30
0.0
 10
65.620690
 20
198.199035
 30
0.0
 10
65.707137
 20
197.805575
 30
0.0
  0
SPLINE
  5
302
100
AcDbEntity
  8
Layer_1
 62
7
100
AcDbSpline
 70
8
 71
3
 72
8
 73
4
 74
0
 40
0
 40
0
 40
0
 40
0
 40
1
 40
1
 40
1
 40
1
 10
65.707137
 20
197.805575
 30
0.0
 10
65.848426
 20
197.162576
 30
0.0
 10
65.837537
 20
196.908005
 30
0.0
 10
65.657410
 20
196.642924
 30
0.0
  0
SPLINE
  5
303
100
AcDbEntity
  8
Layer_1
 62
7
100
AcDbSpline
 70
8
 71
3
 72
8
 73
4
 74
0
 40
0
 40
0
 40
0
 40
0
 40
1
 40
1
 40
1
 40
1
 10
65.657410
 20
196.642924
 30
0.0
 10
65.574752
 20
196.521284
 30
0.0
 10
65.507494
 20
196.367176
 30
0.0
 10
65.507947
 20
196.300461
 30
0.0
  0
SPLINE
  5
304
100
AcDbEntity
  8
Layer_1
 62
7
100
AcDbSpline
 70
8
 71
3
 72
8
 73
4
 74
0
 40
0
 40
0
 40
0
 40
0
 40
1
 40
1
 40
1
 40
1
 10
65.507947
 20
196.300461
 30
0.0
 10
65.508855
 20
196.182788
 30
0.0
 10
65.568670
 20
195.908650
 30
0.0
 10
65.593599
 20
195.908650
 30
0.0
  0
SPLINE
  5
305
100
AcDbEntity
  8
Layer_1
 62
7
100
AcDbSpline
 70
8
 71
3
 72
8
 73
4
 74
0
 40
0
 40
0
 40
0
 40
0
 40
1
 40
1
 40
1
 40
1
 10
65.593599
 20
195.908650
 30
0.0
 10
65.600392
 20
195.908650
 30
0.0
 10
65.731395
 20
195.951398
 30
0.0
 10
65.884735
 20
196.003647
 30
0.0
  0
LINE
  5
306
100
AcDbEntity
  8
Layer_1
 62
7
100
AcDbLine
 10
65.884735
 20
196.003647
 30
0.0
 11
65.884744
 21
196.003647
 31
0.0
  0
ENDSEC
  0
SECTION
  2
OBJECTS
  0
DICTIONARY
  5
C
330
0
100
AcDbDictionary
  3
ACAD_GROUP
350
D
  3
ACAD_MLINESTYLE
350
17
  0
DICTIONARY
  5
D
330
C
100
AcDbDictionary
  0
DICTIONARY
  5
1A
330
C
100
AcDbDictionary
  0
DICTIONARY
  5
17
330
C
100
AcDbDictionary
  3
STANDARD
350
18
  0
DICTIONARY
  5
19
330
C
100
AcDbDictionary
  0
ENDSEC
  0
EOF
