<?xml version="1.0" encoding="UTF-8" standalone="no"?>
<svg
   xmlns:dc="http://purl.org/dc/elements/1.1/"
   xmlns:cc="http://creativecommons.org/ns#"
   xmlns:rdf="http://www.w3.org/1999/02/22-rdf-syntax-ns#"
   xmlns:svg="http://www.w3.org/2000/svg"
   xmlns="http://www.w3.org/2000/svg"
   xmlns:sodipodi="http://sodipodi.sourceforge.net/DTD/sodipodi-0.dtd"
   xmlns:inkscape="http://www.inkscape.org/namespaces/inkscape"
   width="210mm"
   height="297mm"
   viewBox="0 0 210 297"
   version="1.1"
   id="svg8"
   sodipodi:docname="camChorder.svg"
   inkscape:version="1.0.2 (e86c870879, 2021-01-15, custom)">
  <defs
     id="defs2" />
  <sodipodi:namedview
     id="base"
     pagecolor="#ffffff"
     bordercolor="#666666"
     borderopacity="1.0"
     inkscape:pageopacity="0.0"
     inkscape:pageshadow="2"
     inkscape:zoom="11.2"
     inkscape:cx="246.05244"
     inkscape:cy="389.47609"
     inkscape:document-units="mm"
     inkscape:current-layer="text260"
     inkscape:document-rotation="0"
     showgrid="false"
     inkscape:window-width="1920"
     inkscape:window-height="986"
     inkscape:window-x="-11"
     inkscape:window-y="-11"
     inkscape:window-maximized="1" />
  <metadata
     id="metadata5">
    <rdf:RDF>
      <cc:Work
         rdf:about="">
        <dc:format>image/svg+xml</dc:format>
        <dc:type
           rdf:resource="http://purl.org/dc/dcmitype/StillImage" />
        <dc:title></dc:title>
      </cc:Work>
    </rdf:RDF>
  </metadata>
  <g
     inkscape:label="Layer 1"
     inkscape:groupmode="layer"
     id="layer1">
    <g
       aria-label="Cam-Chorder"
       id="text260"
       style="font-style:italic;font-variant:normal;font-weight:normal;font-stretch:normal;font-size:8.81944px;line-height:1.25;font-family:sans-serif;-inkscape-font-specification:'sans-serif, Italic';font-variant-ligatures:normal;font-variant-caps:normal;font-variant-numeric:normal;font-variant-east-asian:normal;letter-spacing:0px;word-spacing:0px;fill:none;fill-opacity:1;stroke:#000000;stroke-width:0.264583"
       transform="matrix(0.22720037,0,0,0.22720037,39.915887,73.528072)">
      <path
         style="font-style:italic;font-variant:normal;font-weight:normal;font-stretch:normal;font-size:8.81944px;font-family:sans-serif;-inkscape-font-specification:'sans-serif, Italic';font-variant-ligatures:normal;font-variant-caps:normal;font-variant-numeric:normal;font-variant-east-asian:normal;fill:none;stroke:#000000;stroke-width:0.264583"
         d="m 91.29386,123.39788 c 6.63424,-2.24747 7.7078,-2.36008 11.28945,-1.18424 1.75507,0.57618 2.56012,0.70764 3.66588,0.5986 0.7793,-0.0769 1.46603,-0.18883 1.52605,-0.24886 0.06,-0.06 -0.12848,-0.63288 -0.41892,-1.27301 -0.76474,-1.68554 -0.68082,-2.50771 0.41892,-4.10449 0.8219,-1.19337 0.93323,-1.52707 0.7807,-2.34013 -0.0978,-0.52155 -0.54155,-1.36245 -0.98601,-1.86866 -0.71114,-0.80995 -0.96,-0.92039 -2.07401,-0.92039 -1.71938,0 -4.78391,0.9307 -10.45323,3.17465 -5.1969,2.05696 -6.19824,2.74212 -7.927507,5.42431 -1.139433,1.76733 -2.105287,4.63021 -1.562097,4.63021 0.09223,0 2.675578,-0.84959 5.740774,-1.88799 z"
         id="path77" />
      <path
         style="font-style:italic;font-variant:normal;font-weight:normal;font-stretch:normal;font-size:8.81944px;font-family:sans-serif;-inkscape-font-specification:'sans-serif, Italic';font-variant-ligatures:normal;font-variant-caps:normal;font-variant-numeric:normal;font-variant-east-asian:normal;fill:none;stroke:#000000;stroke-width:0.202449"
         d="m 56.14153,134.89403 c -0.817387,-0.24535 -1.165053,-0.58817 -1.606656,-1.58426 -1.11946,-2.52506 1.342589,-8.34301 4.133046,-9.7666 1.107623,-0.56507 1.907352,-0.50268 2.613965,0.20393 0.767494,0.7675 0.746014,0.95384 -0.128877,1.11797 -1.88379,0.35339 -5.203577,5.06705 -5.23783,7.437 -0.01176,0.81023 0.08462,1.05421 0.64419,1.63179 1.007081,1.03948 0.87298,1.34764 -0.41784,0.96017 z"
         id="path71" />
      <path
         style="font-style:italic;font-variant:normal;font-weight:normal;font-stretch:normal;font-size:8.81944px;font-family:sans-serif;-inkscape-font-specification:'sans-serif, Italic';font-variant-ligatures:normal;font-variant-caps:normal;font-variant-numeric:normal;font-variant-east-asian:normal;fill:none;stroke:#000000;stroke-width:0.202449"
         d="m 60.687668,135.75619 c -2.758207,-1.46577 -3.147814,-1.99938 -2.751817,-3.76888 0.457188,-2.04294 3.342708,-5.83502 4.637018,-6.09388 0.606488,-0.12129 1.945097,0.23106 3.34044,0.87931 0.62543,0.29055 0.741565,0.91633 0.202448,1.09086 -0.492943,0.15958 -2.612159,3.18452 -3.340416,4.76806 -0.404301,0.87912 -0.61486,1.67661 -0.637572,2.41478 -0.01864,0.60619 -0.127631,1.13339 -0.242172,1.17157 -0.114536,0.0382 -0.658109,-0.16963 -1.207929,-0.46182 z"
         id="path69" />
      <path
         style="font-style:italic;font-variant:normal;font-weight:normal;font-stretch:normal;font-size:8.81944px;font-family:sans-serif;-inkscape-font-specification:'sans-serif, Italic';font-variant-ligatures:normal;font-variant-caps:normal;font-variant-numeric:normal;font-variant-east-asian:normal;fill:none;stroke:#000000;stroke-width:0.202449"
         d="m 65.333276,137.42245 c -0.958991,-0.45959 -1.472172,-0.82529 -1.491476,-1.06285 -0.124115,-1.52748 0.336375,-2.76787 1.942079,-5.23122 1.245501,-1.91077 1.641588,-2.21659 2.465305,-1.90341 0.78294,0.29768 3.517562,2.0228 3.517562,2.21903 0,0.0892 -0.401435,0.39753 -0.892076,0.68506 -1.058119,0.6201 -1.794264,1.74246 -2.766605,4.2181 -0.447125,1.13841 -0.804024,1.76851 -1.003361,1.77142 -0.170162,0.003 -0.967305,-0.31076 -1.771428,-0.69613 z"
         id="path67" />
      <path
         style="font-style:italic;font-variant:normal;font-weight:normal;font-stretch:normal;font-size:8.81944px;font-family:sans-serif;-inkscape-font-specification:'sans-serif, Italic';font-variant-ligatures:normal;font-variant-caps:normal;font-variant-numeric:normal;font-variant-east-asian:normal;fill:none;stroke:#000000;stroke-width:0.21463"
         d="m 111.80025,109.7622 c -0.60683,-1.27255 -2.25494,-1.71984 -4.37241,-1.18665 -0.52898,0.13319 -1.0152,0.18876 -1.08048,0.12348 -0.45112,-0.45112 1.78005,-3.06811 3.70529,-4.34602 1.43801,-0.9545 1.77653,-0.79054 1.16246,0.56303 -0.23681,0.52199 -0.4327,1.17024 -0.43529,1.44054 -0.007,0.74599 0.73672,2.04414 1.61143,2.81214 0.81076,0.71186 0.87811,1.31095 0.14739,1.31095 -0.23798,0 -0.5329,-0.28656 -0.73839,-0.71747 z"
         id="path63" />
      <path
         style="font-style:italic;font-variant:normal;font-weight:normal;font-stretch:normal;font-size:8.81944px;font-family:sans-serif;-inkscape-font-specification:'sans-serif, Italic';font-variant-ligatures:normal;font-variant-caps:normal;font-variant-numeric:normal;font-variant-east-asian:normal;fill:none;stroke:#000000;stroke-width:0.264583"
         d="m 136.08414,128.92389 c -0.0612,-0.32742 -0.24828,-1.66687 -0.41567,-2.97656 -0.20265,-1.58569 -0.57465,-2.97063 -1.11344,-4.14536 -0.8558,-1.86593 -0.82717,-2.33693 0.14205,-2.33693 1.11561,0 2.33447,3.02027 2.81341,6.97146 0.21249,1.75309 0.2065,2.43439 -0.0239,2.71198 -0.48088,0.57943 -1.2759,0.45212 -1.40246,-0.22459 z"
         id="path57" />
      <path
         style="font-style:italic;font-variant:normal;font-weight:normal;font-stretch:normal;font-size:8.81944px;font-family:sans-serif;-inkscape-font-specification:'sans-serif, Italic';font-variant-ligatures:normal;font-variant-caps:normal;font-variant-numeric:normal;font-variant-east-asian:normal;fill:none;stroke:#000000;stroke-width:0.233174"
         d="m 114.88076,137.33541 c -2.30537,-2.77018 -3.30755,-5.21454 -3.30278,-8.05562 0.005,-2.977 0.91143,-5.3043 2.34039,-6.00902 0.75611,-0.37289 1.85399,-0.55503 1.85399,-0.30758 0,0.0614 -0.28334,0.92709 -0.62964,1.9237 -0.86974,2.503 -0.90194,5.63385 -0.0774,7.52479 0.65178,1.49469 1.62896,3.01656 2.7428,4.27164 0.4347,0.48983 0.75241,1.00449 0.70601,1.14369 -0.0712,0.2137 -1.80015,0.86567 -2.32524,0.87684 -0.0915,0.002 -0.68018,-0.61385 -1.30815,-1.36844 z"
         id="path55" />
      <path
         style="font-style:italic;font-variant:normal;font-weight:normal;font-stretch:normal;font-size:8.81944px;font-family:sans-serif;-inkscape-font-specification:'sans-serif, Italic';font-variant-ligatures:normal;font-variant-caps:normal;font-variant-numeric:normal;font-variant-east-asian:normal;fill:none;stroke:#000000;stroke-width:0.234113"
         d="m 133.54312,137.1389 c -0.89246,0.42187 -1.89312,0.27384 -2.83276,-0.41904 v 3e-5 c -2.63422,-1.94245 -4.19294,-4.75443 -5.59631,-10.09593 -0.89873,-3.42075 -1.20247,-6.76446 -0.85296,-9.38964 0.36737,-2.75916 0.73739,-3.54424 1.92233,-4.07857 0.50949,-0.22975 0.98053,-0.36357 1.04673,-0.29736 0.0662,0.0662 -0.0434,0.74113 -0.24377,1.49984 -0.89709,3.39835 -0.67966,7.07556 0.72084,12.19095 1.27724,4.66516 3.04183,7.81236 5.29577,9.4451 0.54024,0.3442 1.52742,0.63428 0.54013,1.14462 z"
         id="path85"
         sodipodi:nodetypes="csssssscscc" />
      <path
         style="font-style:italic;font-variant:normal;font-weight:normal;font-stretch:normal;font-size:8.81944px;font-family:sans-serif;-inkscape-font-specification:'sans-serif, Italic';font-variant-ligatures:normal;font-variant-caps:normal;font-variant-numeric:normal;font-variant-east-asian:normal;fill:none;stroke:#000000;stroke-width:0.233174"
         d="m 107.60481,140.58427 c -2.26641,-2.42126 -3.57038,-5.27757 -3.58381,-7.8503 -0.0107,-2.0428 0.11703,-2.62345 1.01602,-4.61991 0.66592,-1.47889 0.7753,-1.59493 1.89843,-2.01431 1.87374,-0.69966 3.16458,-1.05022 3.31463,-0.90017 0.0758,0.0758 -0.085,0.73364 -0.3575,1.4618 -1.48456,3.96786 -0.36388,8.51749 2.96597,12.04103 0.44594,0.47188 0.75616,1.00036 0.68937,1.17439 -0.10476,0.27304 -4.12839,1.58187 -4.86299,1.58187 -0.1439,0 -0.62995,-0.39348 -1.08012,-0.8744 z"
         id="path51" />
      <path
         style="font-style:italic;font-variant:normal;font-weight:normal;font-stretch:normal;font-size:8.81944px;font-family:sans-serif;-inkscape-font-specification:'sans-serif, Italic';font-variant-ligatures:normal;font-variant-caps:normal;font-variant-numeric:normal;font-variant-east-asian:normal;fill:none;stroke:#000000;stroke-width:0.264583"
         d="m 78.326722,152.55451 c -0.482605,-0.56364 -2.457952,-6.43228 -2.463104,-7.31774 -0.0019,-0.30487 0.205134,-0.74158 0.459796,-0.97047 0.646623,-0.58118 3.936659,-1.85013 7.360838,-2.83903 1.590471,-0.45932 4.171114,-1.30248 5.734758,-1.87369 1.56365,-0.5712 3.19018,-1.03854 3.61451,-1.03854 1.12242,0 1.97083,1.16999 2.63602,3.63521 0.70015,2.5948 0.73594,4.33296 0.10075,4.89336 -1.27331,1.12337 -8.213189,4.04557 -12.754709,5.37066 -2.744671,0.80082 -4.088829,0.84103 -4.688859,0.14024 z"
         id="path45" />
      <path
         style="font-style:italic;font-variant:normal;font-weight:normal;font-stretch:normal;font-size:8.81944px;font-family:sans-serif;-inkscape-font-specification:'sans-serif, Italic';font-variant-ligatures:normal;font-variant-caps:normal;font-variant-numeric:normal;font-variant-east-asian:normal;fill:none;stroke:#000000;stroke-width:0.264583"
         d="m 70.83019,140.56556 c -0.545507,-0.89432 -0.808802,-1.9082 -0.880721,-3.3914 -0.04203,-0.86676 -0.03124,-0.87456 2.603632,-1.88414 4.953892,-1.89812 8.632169,-3.12498 9.369068,-3.12498 0.846905,0 1.313728,0.45739 2.136892,2.09371 0.687467,1.36657 0.796708,2.78836 0.254407,3.31114 -0.210807,0.20321 -2.288283,0.98187 -4.616617,1.73036 -2.328333,0.74848 -4.713562,1.53285 -5.300512,1.74304 -0.586949,0.21019 -1.511434,0.38216 -2.05441,0.38216 -0.829818,0 -1.070864,-0.13711 -1.511739,-0.85989 z"
         id="path41" />
      <path
         style="font-style:italic;font-variant:normal;font-weight:normal;font-stretch:normal;font-size:8.81944px;font-family:sans-serif;-inkscape-font-specification:'sans-serif, Italic';font-variant-ligatures:normal;font-variant-caps:normal;font-variant-numeric:normal;font-variant-east-asian:normal;fill:none;stroke:#000000;stroke-width:0.264583"
         d="m 74.181249,159.93347 c -2.979603,-0.5 -5.054103,-2.97631 -6.527983,-7.79237 -0.889391,-2.90619 -1.901473,-7.91058 -2.043824,-10.10602 l -0.140605,-2.16851 -1.727975,-0.7344 c -0.950386,-0.40392 -2.054513,-0.70014 -2.453619,-0.65828 -0.399103,0.0419 -1.318204,-0.1788 -2.042446,-0.49036 -0.87032,-0.3744 -1.94909,-0.58218 -3.181588,-0.61279 -1.678818,-0.0417 -1.947982,-0.12546 -2.699087,-0.84006 -1.289837,-1.22714 -1.580813,-2.00752 -1.580813,-4.23969 0,-4.29826 2.677128,-9.61991 5.743419,-11.41687 2.297115,-1.3462 4.377632,-0.90311 5.838386,1.2434 0.369792,0.5434 1.23635,1.19668 2.248958,1.69547 1.1844,0.5834 1.758897,1.04737 2.044237,1.65094 0.27985,0.59195 1.107832,1.2746 2.807976,2.3151 1.326107,0.81158 2.584598,1.47561 2.796648,1.47561 0.659183,0 2.448674,-1.73311 3.180271,-3.08007 0.384037,-0.70705 1.068882,-2.53571 1.521881,-4.06368 1.655818,-5.58508 2.201005,-6.13251 8.655494,-8.69112 2.522091,-0.99977 12.411391,-4.31699 15.503141,-5.2003 1.23991,-0.35424 1.60469,-0.59258 1.95246,-1.27575 1.8975,-3.7274 5.28798,-6.12839 13.30368,-9.421061 4.45342,-1.82937 6.02862,-2.22009 9.04032,-2.24242 2.36016,-0.0175 2.60308,0.0309 3.46849,0.69098 2.02198,1.54224 2.41172,4.669311 0.85578,6.866291 -1.44803,2.04461 -3.26826,3.03539 -9.41854,5.12663 -3.80502,1.2938 -5.63173,2.03668 -5.6028,2.27853 0.0236,0.19736 0.31752,1.38999 0.65314,2.65028 0.55316,2.07718 0.57957,2.43981 0.28244,3.87837 -0.25699,1.24422 -0.25872,1.73852 -0.008,2.2888 0.37159,0.81556 0.4439,0.80739 3.63311,-0.41045 2.3068,-0.88089 2.2247,-0.77633 2.5452,-3.24157 0.20652,-1.58853 0.8011,-3.30955 1.35475,-3.92133 0.65027,-0.71854 4.27743,-2.12292 5.53196,-2.14188 1.45356,-0.022 3.23284,1.00731 4.33719,2.509 1.57216,2.13779 3.42765,6.29645 4.23339,9.48812 1.28417,5.08688 1.64677,12.06184 0.79713,15.33357 -0.37031,1.42591 -1.43688,2.2593 -3.68647,2.88049 -1.08848,0.30057 -2.35054,0.54649 -2.80457,0.54649 -0.81102,0 -2.37826,-0.93465 -3.83325,-2.28602 l -0.67937,-0.63099 -5.00917,1.41454 -5.00917,1.41453 -0.0502,1.61071 c -0.0811,2.60321 -1.2535,4.32885 -3.83622,5.64645 -0.57068,0.29115 -3.14439,1.30472 -5.71935,2.2524 -2.57496,0.94767 -6.05097,2.23462 -7.72446,2.85987 -4.62709,1.72879 -23.907752,7.83109 -24.631152,7.79572 -0.350104,-0.0171 -1.213575,-0.12795 -1.918822,-0.2463 z"
         id="path39" />
    </g>
  </g>
</svg>
