<?xml version="1.0" encoding="UTF-8" standalone="no"?>
<svg
   xmlns:dc="http://purl.org/dc/elements/1.1/"
   xmlns:cc="http://creativecommons.org/ns#"
   xmlns:rdf="http://www.w3.org/1999/02/22-rdf-syntax-ns#"
   xmlns:svg="http://www.w3.org/2000/svg"
   xmlns="http://www.w3.org/2000/svg"
   xmlns:sodipodi="http://sodipodi.sourceforge.net/DTD/sodipodi-0.dtd"
   xmlns:inkscape="http://www.inkscape.org/namespaces/inkscape"
   width="210mm"
   height="297mm"
   viewBox="0 0 210 297"
   version="1.1"
   id="svg8"
   sodipodi:docname="camChorder.svg"
   inkscape:version="1.0.2 (e86c870879, 2021-01-15, custom)">
  <defs
     id="defs2" />
  <sodipodi:namedview
     id="base"
     pagecolor="#ffffff"
     bordercolor="#666666"
     borderopacity="1.0"
     inkscape:pageopacity="0.0"
     inkscape:pageshadow="2"
     inkscape:zoom="1.4"
     inkscape:cx="552.49915"
     inkscape:cy="518.73235"
     inkscape:document-units="mm"
     inkscape:current-layer="layer1"
     inkscape:document-rotation="0"
     showgrid="false"
     inkscape:window-width="1920"
     inkscape:window-height="986"
     inkscape:window-x="-11"
     inkscape:window-y="-11"
     inkscape:window-maximized="1" />
  <metadata
     id="metadata5">
    <rdf:RDF>
      <cc:Work
         rdf:about="">
        <dc:format>image/svg+xml</dc:format>
        <dc:type
           rdf:resource="http://purl.org/dc/dcmitype/StillImage" />
        <dc:title></dc:title>
      </cc:Work>
    </rdf:RDF>
  </metadata>
  <g
     inkscape:label="Layer 1"
     inkscape:groupmode="layer"
     id="layer1">
    <g
       aria-label="Cam-Chorder"
       id="text260"
       style="font-style:italic;font-variant:normal;font-weight:normal;font-stretch:normal;font-size:8.81944px;line-height:1.25;font-family:sans-serif;-inkscape-font-specification:'sans-serif, Italic';font-variant-ligatures:normal;font-variant-caps:normal;font-variant-numeric:normal;font-variant-east-asian:normal;letter-spacing:0px;word-spacing:0px;fill:none;fill-opacity:1;stroke:#000000;stroke-width:0.264583"
       transform="matrix(0.22720037,0,0,0.22720037,39.915887,73.528072)">
      <path
         id="path370"
         style="font-style:italic;font-variant:normal;font-weight:normal;font-stretch:normal;font-size:8.81944px;font-family:sans-serif;-inkscape-font-specification:'sans-serif, Italic';font-variant-ligatures:normal;font-variant-caps:normal;font-variant-numeric:normal;font-variant-east-asian:normal;fill:none;stroke:#000000;stroke-width:0.264583"
         d="m 139.10748,162.24879 h -0.0431 q -0.17226,-0.0431 -0.32298,-0.0603 -0.14641,-0.0215 -0.35743,-0.0215 -0.4048,0 -0.80529,0.18518 -0.39618,0.18086 -0.76222,0.43925 l -0.77515,3.41494 h -0.81821 l 1.09812,-4.81021 h 0.81821 l -0.16364,0.71055 q 0.57275,-0.40049 0.96893,-0.55552 0.4005,-0.15503 0.76654,-0.15503 0.21101,0 0.30575,0.0129 0.0947,0.009 0.27561,0.0388 z m -5.24515,1.02922 q 0.0215,-0.12488 0.0301,-0.21101 0.009,-0.0861 0.009,-0.18948 0,-0.46078 -0.25407,-0.71916 -0.24977,-0.25838 -0.80529,-0.25838 -0.61151,0 -1.08521,0.37896 -0.4737,0.37896 -0.64165,0.99907 z m -1.6192,3.0403 q -0.99907,0 -1.56751,-0.46939 -0.56845,-0.4694 -0.56845,-1.37373 0,-1.32206 0.83544,-2.26515 0.83544,-0.9474 2.06706,-0.9474 0.81821,0 1.25315,0.4091 0.43494,0.4048 0.43494,1.14119 0,0.12919 -0.0388,0.4091 -0.0344,0.27992 -0.11627,0.65026 h -3.54414 q -0.0258,0.12489 -0.0387,0.24547 -0.009,0.12057 -0.009,0.22393 0,0.6072 0.37035,0.95601 0.37035,0.34451 1.05075,0.34451 0.4737,0 0.97324,-0.18517 0.50385,-0.18518 0.84405,-0.41772 h 0.0474 l -0.17656,0.87419 q -0.21532,0.0775 -0.38757,0.14211 -0.17226,0.0646 -0.43925,0.12919 -0.267,0.0646 -0.4737,0.0991 -0.20671,0.0344 -0.51677,0.0344 z m -2.31682,-6.81267 -1.55029,6.7007 h -0.8096 l 0.11627,-0.50384 q -0.54691,0.37465 -0.8828,0.50384 -0.33159,0.1335 -0.72347,0.1335 -0.68041,0 -1.0809,-0.43063 -0.39619,-0.43064 -0.39619,-1.25316 0,-0.69332 0.21532,-1.30913 0.21532,-0.62012 0.58567,-1.08521 0.36604,-0.46078 0.86558,-0.72777 0.49954,-0.2713 1.05936,-0.2713 0.38327,0 0.70625,0.0818 0.32297,0.0818 0.60289,0.24546 l 0.48231,-2.08428 z m -1.44694,2.75607 q -0.28853,-0.15072 -0.56844,-0.21962 -0.27561,-0.0732 -0.58997,-0.0732 -0.44787,0 -0.80099,0.21532 -0.34881,0.21532 -0.59858,0.58997 -0.22824,0.3402 -0.35312,0.81821 -0.12058,0.47801 -0.12058,0.92587 0,0.52538 0.22393,0.80529 0.22824,0.27561 0.73639,0.27561 0.36173,0 0.73639,-0.18087 0.37896,-0.18087 0.69763,-0.39619 z m -3.88435,-0.0129 h -0.0431 q -0.17225,-0.0431 -0.32298,-0.0603 -0.14641,-0.0215 -0.35743,-0.0215 -0.40479,0 -0.80529,0.18518 -0.39618,0.18086 -0.76222,0.43925 l -0.77515,3.41494 h -0.81821 l 1.09812,-4.81021 h 0.81821 l -0.16364,0.71055 q 0.57275,-0.40049 0.96893,-0.55552 0.4005,-0.15503 0.76654,-0.15503 0.21101,0 0.30575,0.0129 0.0947,0.009 0.27561,0.0388 z m -4.50876,0.84836 q 0,0.64595 -0.19809,1.24023 -0.1981,0.59428 -0.55983,1.03353 -0.37466,0.45647 -0.86558,0.71486 -0.49093,0.25407 -1.1455,0.25407 -0.85696,0 -1.33928,-0.48662 -0.478,-0.49092 -0.478,-1.3522 0,-0.64595 0.19378,-1.23162 0.1981,-0.58566 0.56844,-1.04214 0.35743,-0.43925 0.8742,-0.70194 0.52107,-0.26268 1.13688,-0.26268 0.83113,0 1.32205,0.4737 0.49093,0.4737 0.49093,1.36081 z m -1.31775,1.81728 q 0.23254,-0.3445 0.35312,-0.79667 0.12489,-0.45217 0.12489,-0.95602 0,-0.60289 -0.28853,-0.91295 -0.28853,-0.31006 -0.8139,-0.31006 -0.41772,0 -0.74931,0.2024 -0.33159,0.1981 -0.57275,0.54691 -0.23254,0.34021 -0.35743,0.79668 -0.12488,0.45648 -0.12488,0.9474 0,0.59428 0.28853,0.91295 0.28852,0.31867 0.81821,0.31867 0.41341,0 0.7493,-0.19809 0.3359,-0.19809 0.57275,-0.55122 z m -4.17287,-2.42017 q 0,0.10335 -0.0215,0.27991 -0.0172,0.17656 -0.0517,0.31006 l -0.72347,3.12211 h -0.80959 l 0.63303,-2.73884 q 0.0517,-0.22824 0.0775,-0.39619 0.0301,-0.17226 0.0301,-0.3402 0,-0.36174 -0.18087,-0.54261 -0.17656,-0.18517 -0.64164,-0.18517 -0.32729,0 -0.72347,0.18087 -0.39188,0.18087 -0.76654,0.43063 l -0.83113,3.59151 h -0.80959 l 1.54598,-6.7007 h 0.8096 l -0.55983,2.42448 q 0.46078,-0.32298 0.86127,-0.49523 0.4048,-0.17225 0.83113,-0.17225 0.62873,0 0.97755,0.31867 0.35312,0.31436 0.35312,0.91295 z m -8.03999,3.82836 q -1.2187,0 -1.91202,-0.62873 -0.69333,-0.63304 -0.69333,-1.79145 0,-0.88711 0.267,-1.65365 0.26699,-0.76653 0.76653,-1.34358 0.49523,-0.56844 1.2187,-0.89573 0.72347,-0.33159 1.61489,-0.33159 0.55552,0 1.05075,0.13781 0.49523,0.13349 1.0163,0.42633 l -0.19378,0.96462 h -0.0646 q -0.14211,-0.14211 -0.28852,-0.26269 -0.14211,-0.12488 -0.43064,-0.2713 -0.23685,-0.12488 -0.56413,-0.2067 -0.32729,-0.0861 -0.72347,-0.0861 -0.6029,0 -1.10674,0.25408 -0.50385,0.24976 -0.87419,0.70193 -0.36174,0.43925 -0.56844,1.06798 -0.20671,0.62873 -0.20671,1.33928 0,0.88711 0.46078,1.38235 0.46078,0.49092 1.33067,0.49092 0.4091,0 0.77515,-0.0904 0.37034,-0.0947 0.67179,-0.23685 0.27991,-0.1335 0.50384,-0.27992 0.22393,-0.14641 0.38327,-0.2713 h 0.0603 l -0.2024,0.99047 q -0.45217,0.22824 -1.04214,0.41341 -0.58567,0.18087 -1.24885,0.18087 z m -3.83266,-2.53215 h -2.68718 l 0.18087,-0.77945 h 2.68717 z m -3.871428,-1.33066 q 0,0.14211 -0.02153,0.30144 -0.01722,0.15934 -0.05598,0.32298 l -0.72347,3.12211 h -0.809597 l 0.633036,-2.73884 q 0.05168,-0.22824 0.08182,-0.42203 0.03445,-0.19379 0.03445,-0.36173 0,-0.32729 -0.163642,-0.50385 -0.163642,-0.17656 -0.624423,-0.17656 -0.340203,0 -0.719164,0.18948 -0.37896,0.18948 -0.753614,0.44356 -0.0086,0.10766 -0.03014,0.24546 -0.01723,0.1378 -0.04306,0.24546 l -0.710551,3.07905 H 94.13609 l 0.633036,-2.73884 q 0.05598,-0.267 0.09043,-0.43495 0.03445,-0.17225 0.03445,-0.34881 0,-0.39188 -0.215319,-0.53399 -0.215318,-0.14642 -0.581359,-0.14642 -0.258382,0 -0.577053,0.1335 -0.318672,0.12919 -0.848355,0.478 l -0.831129,3.59151 h -0.809597 l 1.111043,-4.81021 h 0.809597 l -0.124884,0.53399 q 0.452168,-0.31436 0.835435,-0.49092 0.387573,-0.17656 0.813903,-0.17656 0.48662,0 0.788065,0.2067 0.305752,0.20671 0.404799,0.57275 0.56844,-0.41341 1.020609,-0.59428 0.452168,-0.18517 0.891418,-0.18517 0.633036,0 0.951707,0.31436 0.318671,0.31436 0.318671,0.88281 z m -9.594586,1.21008 q -0.663181,0.0258 -1.179945,0.10336 -0.512458,0.0732 -0.848354,0.21532 -0.348816,0.14211 -0.529683,0.38757 -0.180868,0.24116 -0.180868,0.60289 0,0.31006 0.211012,0.4737 0.211012,0.16364 0.654568,0.16364 0.391879,0 0.796678,-0.17225 0.409105,-0.17656 0.762227,-0.42203 z m -0.469394,2.024 q -0.116272,0.0689 -0.318672,0.19809 -0.198092,0.12488 -0.404798,0.21532 -0.219625,0.099 -0.490926,0.16364 -0.271301,0.0689 -0.624423,0.0689 -0.572747,0 -0.930175,-0.33159 -0.357429,-0.33589 -0.357429,-0.87419 0,-0.57275 0.249769,-0.96463 0.254076,-0.39618 0.749308,-0.64595 0.48662,-0.24547 1.171332,-0.35312 0.689019,-0.11197 1.567518,-0.13781 0.02584,-0.12058 0.04306,-0.2067 0.01723,-0.0904 0.01723,-0.18518 0,-0.2067 -0.08182,-0.33589 -0.08182,-0.1292 -0.232544,-0.20671 -0.150723,-0.0775 -0.353122,-0.10335 -0.198093,-0.0301 -0.439249,-0.0301 -0.366042,0 -0.835436,0.12058 -0.469394,0.11627 -0.762227,0.23255 h -0.04306 l 0.159335,-0.8096 q 0.245463,-0.0646 0.719164,-0.14642 0.4737,-0.0818 0.908643,-0.0818 0.895724,0 1.343587,0.27991 0.447862,0.27992 0.447862,0.88712 0,0.11627 -0.02153,0.24977 -0.01723,0.12919 -0.04306,0.24546 l -0.753614,3.26422 h -0.805291 z m -6.274377,0.62873 q -1.218702,0 -1.912027,-0.62873 -0.693325,-0.63304 -0.693325,-1.79145 0,-0.88711 0.266994,-1.65365 0.266995,-0.76653 0.766534,-1.34358 0.495232,-0.56844 1.218702,-0.89573 0.723469,-0.33159 1.614887,-0.33159 0.555522,0 1.050754,0.13781 0.495232,0.13349 1.016303,0.42633 l -0.193787,0.96462 h -0.06459 q -0.142111,-0.14211 -0.288527,-0.26269 -0.14211,-0.12488 -0.430637,-0.2713 -0.23685,-0.12488 -0.564134,-0.2067 -0.327284,-0.0861 -0.723469,-0.0861 -0.602892,0 -1.106737,0.25408 -0.503845,0.24976 -0.874192,0.70193 -0.361735,0.43925 -0.568441,1.06798 -0.206705,0.62873 -0.206705,1.33928 0,0.88711 0.460781,1.38235 0.460781,0.49092 1.330667,0.49092 0.409105,0 0.775146,-0.0904 0.370348,-0.0947 0.671794,-0.23685 0.279914,-0.1335 0.503845,-0.27992 0.223931,-0.14641 0.383266,-0.2713 h 0.06029 l -0.202399,0.99047 q -0.452168,0.22824 -1.042141,0.41341 -0.585666,0.18087 -1.248846,0.18087 z m -8.331956,-6.38917 c -2.979603,-0.5 -5.054103,-2.97631 -6.527983,-7.79237 -0.889391,-2.90619 -1.901473,-7.91058 -2.043824,-10.10602 l -0.140605,-2.16851 -1.727975,-0.7344 c -0.950386,-0.40392 -2.054513,-0.70014 -2.453619,-0.65828 -0.399103,0.0419 -1.318204,-0.1788 -2.042446,-0.49036 -0.87032,-0.3744 -1.94909,-0.58218 -3.181588,-0.61279 -1.678818,-0.0417 -1.947982,-0.12546 -2.699087,-0.84006 -1.289837,-1.22714 -1.580813,-2.00752 -1.580813,-4.23969 0,-4.29826 2.677128,-9.61991 5.743419,-11.41687 2.297115,-1.3462 4.377632,-0.90311 5.838386,1.2434 0.369792,0.5434 1.23635,1.19668 2.248958,1.69547 1.1844,0.5834 1.758897,1.04737 2.044237,1.65094 0.27985,0.59195 1.107832,1.2746 2.807976,2.3151 1.326107,0.81158 2.584598,1.47561 2.796648,1.47561 0.659183,0 2.448674,-1.73311 3.180271,-3.08007 0.384037,-0.70705 1.068882,-2.53571 1.521881,-4.06368 1.655818,-5.58508 2.201005,-6.13251 8.655494,-8.69112 2.522091,-0.99977 12.411391,-4.31699 15.503141,-5.2003 1.23991,-0.35424 1.60469,-0.59258 1.95246,-1.27575 1.8975,-3.7274 5.28798,-6.12839 13.30368,-9.421061 4.45342,-1.82937 6.02862,-2.22009 9.04032,-2.24242 2.36016,-0.0175 2.60308,0.0309 3.46849,0.69098 2.02198,1.54224 2.41172,4.669311 0.85578,6.866291 -1.44803,2.04461 -3.26826,3.03539 -9.41854,5.12663 -3.80502,1.2938 -5.63173,2.03668 -5.6028,2.27853 0.0236,0.19736 0.31752,1.38999 0.65314,2.65028 0.55316,2.07718 0.57957,2.43981 0.28244,3.87837 -0.25699,1.24422 -0.25872,1.73852 -0.008,2.2888 0.37159,0.81556 0.4439,0.80739 3.63311,-0.41045 2.3068,-0.88089 2.2247,-0.77633 2.5452,-3.24157 0.20652,-1.58853 0.8011,-3.30955 1.35475,-3.92133 0.65027,-0.71854 4.27743,-2.12292 5.53196,-2.14188 1.45356,-0.022 3.23284,1.00731 4.33719,2.509 1.57216,2.13779 3.42765,6.29645 4.23339,9.48812 1.28417,5.08688 1.64677,12.06184 0.79713,15.33357 -0.37031,1.42591 -1.43688,2.2593 -3.68647,2.88049 -1.08848,0.30057 -2.35054,0.54649 -2.80457,0.54649 -0.81102,0 -2.37826,-0.93465 -3.83325,-2.28602 l -0.67937,-0.63099 -5.00917,1.41454 -5.00917,1.41453 -0.0502,1.61071 c -0.0811,2.60321 -1.2535,4.32885 -3.83622,5.64645 -0.57068,0.29115 -3.14439,1.30472 -5.71935,2.2524 -2.57496,0.94767 -6.05097,2.23462 -7.72446,2.85987 -4.62709,1.72879 -23.907752,7.83109 -24.631152,7.79572 -0.350104,-0.0171 -1.213575,-0.12795 -1.918822,-0.2463 z M 70.83019,140.56556 c -0.545507,-0.89432 -0.808802,-1.9082 -0.880721,-3.3914 -0.04203,-0.86676 -0.03124,-0.87456 2.603632,-1.88414 4.953892,-1.89812 8.632169,-3.12498 9.369068,-3.12498 0.846905,0 1.313728,0.45739 2.136892,2.09371 0.687467,1.36657 0.796708,2.78836 0.254407,3.31114 -0.210807,0.20321 -2.288283,0.98187 -4.616617,1.73036 -2.328333,0.74848 -4.713562,1.53285 -5.300512,1.74304 -0.586949,0.21019 -1.511434,0.38216 -2.05441,0.38216 -0.829818,0 -1.070864,-0.13711 -1.511739,-0.85989 z m 7.608956,-1.44568 c 3.796348,-1.24869 5.480135,-1.92478 5.668042,-2.27589 0.207727,-0.38814 0.07033,-0.89164 -0.616299,-2.25849 -0.844859,-1.68184 -0.924242,-1.75771 -1.809663,-1.72948 -0.74296,0.0237 -10.907596,3.51384 -11.260018,3.86626 -0.150866,0.15086 0.548388,2.9224 0.902898,3.57869 0.208032,0.38512 0.567449,0.59532 1.017945,0.59532 0.383005,0 3.1267,-0.79938 6.097095,-1.77641 z m -0.112424,13.43463 c -0.482605,-0.56364 -2.457952,-6.43228 -2.463104,-7.31774 -0.0019,-0.30487 0.205134,-0.74158 0.459796,-0.97047 0.646623,-0.58118 3.936659,-1.85013 7.360838,-2.83903 1.590471,-0.45932 4.171114,-1.30248 5.734758,-1.87369 1.56365,-0.5712 3.19018,-1.03854 3.61451,-1.03854 1.12242,0 1.97083,1.16999 2.63602,3.63521 0.70015,2.5948 0.73594,4.33296 0.10075,4.89336 -1.27331,1.12337 -8.213189,4.04557 -12.754709,5.37066 -2.744671,0.80082 -4.088829,0.84103 -4.688859,0.14024 z m 3.722855,-0.30465 c 4.312742,-1.26743 9.896933,-3.44357 12.237703,-4.76898 1.47212,-0.83355 1.7858,-1.43635 1.51988,-2.92073 -0.36854,-2.0572 -1.22599,-4.50271 -1.81713,-5.18257 l -0.63494,-0.73025 -2.86037,1.01939 c -1.5732,0.56066 -4.270481,1.42733 -5.993956,1.92592 -3.922718,1.13481 -7.810738,2.71097 -8.121992,3.29256 -0.319897,0.59772 1.725314,6.82348 2.448801,7.45432 0.6754,0.5889 0.937898,0.5816 3.222004,-0.0897 z m 31.126383,-9.23984 c 2.88571,-0.907 3.43027,-1.16167 3.43027,-1.60425 0,-0.76243 -0.61463,-0.88484 -2.02677,-0.40368 -2.05118,0.69891 -2.74407,0.57635 -3.96378,-0.70112 -4.24541,-4.44644 -5.54922,-9.4304 -3.674,-14.04429 0.35983,-0.88532 0.49445,-1.4919 0.31662,-1.4266 -0.25152,0.0924 -3.76031,1.22584 -5.15264,1.66452 -0.24035,0.0757 -0.10325,0.41129 0.45096,1.10368 0.43797,0.54719 1.03962,1.54729 1.337,2.22245 0.70185,1.59343 2.82214,9.46307 3.38567,12.56616 l 0.43887,2.41665 1.01377,-0.35768 c 0.55757,-0.19672 2.55739,-0.84285 4.44403,-1.43584 z m -2.05731,-3.3705 c -2.5717,-2.7474 -4.05131,-5.98846 -4.06655,-8.90773 -0.0121,-2.31797 0.13279,-2.97683 1.15288,-5.24222 0.75562,-1.67809 0.87973,-1.80977 2.15414,-2.28563 2.12614,-0.79391 3.59085,-1.19169 3.76111,-1.02143 0.086,0.086 -0.0965,0.83246 -0.40565,1.65871 -1.68453,4.50233 -0.4129,9.66479 3.36549,13.66296 0.50601,0.53544 0.85801,1.1351 0.78223,1.33257 -0.11888,0.30982 -4.68449,1.79495 -5.51804,1.79495 -0.16328,0 -0.71481,-0.44648 -1.22561,-0.99218 z m 19.88092,-1.35622 c -2.97707,-2.19526 -4.73866,-5.37322 -6.32468,-11.40993 -1.0157,-3.86596 -1.35897,-7.64486 -0.96397,-10.61171 0.41518,-3.11827 0.83336,-4.00553 2.17252,-4.6094 0.57581,-0.25966 1.10815,-0.41089 1.18297,-0.33607 0.0748,0.0748 -0.0491,0.83759 -0.2755,1.69505 -1.01385,3.84065 -0.76812,7.99645 0.81466,13.77762 1.44347,5.27233 3.43773,8.82915 5.98502,10.67439 0.59768,0.43296 0.90941,0.7872 0.69273,0.7872 -0.21668,0 -0.80617,-0.32128 -1.30996,-0.71397 -5.21671,-4.06613 -8.69311,-17.78438 -6.41152,-25.3005 0.13906,-0.45808 0.10446,-0.4605 -0.69213,-0.0486 -1.46324,0.75667 -1.72518,1.79302 -1.70569,6.74846 0.0158,4.02567 0.0821,4.61069 0.85138,7.51273 1.18423,4.46755 2.02913,6.51367 3.59241,8.6999 1.77599,2.48369 3.41932,3.62625 4.99141,3.47037 0.84781,-0.0841 0.99848,-0.0495 0.6018,0.138 -1.00861,0.47678 -2.13951,0.30949 -3.20145,-0.47357 z m -13.81754,-1.06047 c -2.6159,-3.14332 -3.75308,-5.91694 -3.74766,-9.14071 0.006,-3.378 1.0342,-6.01879 2.65564,-6.81844 0.85796,-0.42312 2.10372,-0.62979 2.10372,-0.34901 0,0.0697 -0.3215,1.05197 -0.71445,2.18282 -0.9869,2.84016 -1.02343,6.39273 -0.0878,8.53838 0.73957,1.69603 1.84838,3.42289 3.11225,4.84703 0.49326,0.55581 0.85376,1.1398 0.80111,1.29775 -0.0808,0.24248 -2.04263,0.98228 -2.63845,0.99495 -0.10383,0.002 -0.7718,-0.69654 -1.48436,-1.55277 z m 18.90211,-8.29894 c -0.0612,-0.32742 -0.24828,-1.66687 -0.41567,-2.97656 -0.20265,-1.58569 -0.57465,-2.97063 -1.11344,-4.14536 -0.8558,-1.86593 -0.82717,-2.33693 0.14205,-2.33693 1.11561,0 2.33447,3.02027 2.81341,6.97146 0.21249,1.75309 0.2065,2.43439 -0.0239,2.71198 -0.48088,0.57943 -1.2759,0.45212 -1.40246,-0.22459 z m 0.88182,-2.3151 c -0.41138,-3.30483 -1.60604,-6.61459 -2.38753,-6.61459 -0.13972,0 0.0536,0.60714 0.42966,1.34921 0.71225,1.40556 1.44189,4.595 1.44189,6.30289 0,0.54503 0.0814,1.07232 0.1808,1.17176 0.44037,0.44037 0.56376,-0.37295 0.33518,-2.20927 z m -44.30453,-0.16962 c -1.38337,-0.34486 -2.68993,-0.96018 -2.68993,-1.26681 0,-0.53633 6.24755,-2.58368 8.32378,-2.72774 1.46574,-0.10171 2.09071,-0.003 3.59193,0.56531 0.99959,0.37864 2.08634,0.68844 2.41499,0.68844 0.6202,0 1.3767,0.6539 1.00594,0.8695 -0.83762,0.48709 -5.55575,1.60586 -6.95816,1.64994 -0.94589,0.0297 -2.4937,0.12138 -3.43959,0.20366 -0.94588,0.0823 -1.95791,0.0902 -2.24896,0.0177 z m 19.12312,-17.38359 c -0.74807,-1.56872 -2.77976,-2.12011 -5.39005,-1.46283 -0.65209,0.1642 -1.25147,0.2327 -1.33194,0.15223 -0.55612,-0.55612 2.19433,-3.78219 4.56765,-5.35751 1.77269,-1.17665 2.19,-0.97453 1.43301,0.69406 -0.29193,0.64348 -0.5334,1.4426 -0.5366,1.77582 -0.009,0.9196 0.90818,2.51989 1.98647,3.46663 0.99946,0.87754 1.08249,1.61606 0.1817,1.61606 -0.29337,0 -0.65693,-0.35326 -0.91024,-0.88446 z m -0.9389,37.87902 c 2.09016,-0.83285 3.74615,-1.67642 4.36563,-2.22386 1.21264,-1.07162 0.88958,-1.11145 -1.91234,-0.23575 -5.09142,1.59125 -5.83537,1.93614 -6.30618,2.92342 -0.24238,0.50829 -0.4407,0.99239 -0.4407,1.07579 0,0.17552 -0.10723,0.21397 4.29359,-1.5396 z m -47.361992,-9.07069 c -1.253316,-0.60063 -1.924,-1.07858 -1.949228,-1.38906 -0.162205,-1.99628 0.439613,-3.61734 2.538129,-6.83675 1.62776,-2.4972 2.145412,-2.89687 3.221938,-2.48758 1.023233,0.38904 4.597146,2.64362 4.597146,2.90009 0,0.11663 -0.52464,0.51952 -1.165866,0.8953 -1.382868,0.81042 -2.344946,2.27725 -3.615711,5.51269 -0.584353,1.4878 -1.05079,2.3113 -1.311304,2.31511 -0.222388,0.003 -1.264184,-0.40616 -2.315104,-0.9098 z m -4.440743,-1.09055 c -3.604736,-1.91564 -4.113919,-2.61301 -3.596384,-4.9256 0.597504,-2.66993 4.368626,-7.62587 6.060176,-7.96418 0.792628,-0.15853 2.542074,0.30198 4.365665,1.14919 0.817382,0.37974 0.969161,1.19756 0.264583,1.42566 -0.644234,0.20856 -3.413866,4.16189 -4.365633,6.23144 -0.528386,1.14894 -0.803569,2.19118 -0.833252,3.1559 -0.02437,0.79224 -0.166799,1.48126 -0.316497,1.53115 -0.149696,0.0499 -0.860092,-0.2217 -1.578658,-0.60356 z m -3.903083,-0.37938 c -1.068253,-0.32066 -1.522623,-0.7687 -2.099758,-2.07049 -1.463037,-3.30005 1.754646,-10.90359 5.40153,-12.7641 1.447567,-0.73849 2.492743,-0.65695 3.416224,0.26653 1.003048,1.00305 0.974976,1.24657 -0.168429,1.46107 -2.46195,0.46186 -6.800622,6.6222 -6.845387,9.71953 -0.01529,1.05888 0.110585,1.37776 0.841901,2.1326 1.316167,1.35851 1.140907,1.76124 -0.546081,1.25486 z m 25.879301,-11.84634 c 1.40833,-3.59541 1.86019,-4.42862 3.043343,-5.61177 1.291329,-1.29133 1.915994,-1.60883 8.389774,-4.26436 8.77282,-3.59857 12.45862,-4.61035 14.42771,-3.96049 0.93383,0.3082 2.28898,1.55942 2.83059,2.61353 0.71633,1.39415 0.2342,4.13294 -0.89208,5.06767 -0.55796,0.46307 -0.52168,1.12206 0.14742,2.67741 0.61755,1.43553 0.60154,1.42618 1.75343,1.02463 0.80032,-0.279 0.80553,-0.29336 0.66574,-1.83493 -0.12326,-1.35934 -0.0505,-1.70789 0.58115,-2.78579 0.70582,-1.2044 0.71462,-1.27159 0.39199,-2.99371 -1.21766,-6.49975 -1.96066,-7.07891 -7.18256,-5.5987 -7.61885,2.15964 -18.780168,6.09388 -22.221236,7.83274 -1.722869,0.87061 -2.457791,1.96796 -3.264969,4.87511 -0.867283,3.12361 -1.630445,5.10887 -2.282677,5.93805 l -0.503163,0.63967 1.554615,-0.525 1.554615,-0.52501 z M 84.090366,124.07 c 0.540898,-2.28339 1.070052,-3.50101 2.012836,-4.63169 l 0.737399,-0.88436 -0.988081,0.7484 c -1.208574,0.9154 -1.794647,1.84075 -3.099588,4.8939 l -1.010195,2.36354 0.957442,-0.33147 c 0.903356,-0.31276 0.981885,-0.43468 1.390187,-2.15832 z m 7.203494,-0.67212 c 6.63424,-2.24747 7.7078,-2.36008 11.28945,-1.18424 1.75507,0.57618 2.56012,0.70764 3.66588,0.5986 0.7793,-0.0769 1.46603,-0.18883 1.52605,-0.24886 0.06,-0.06 -0.12848,-0.63288 -0.41892,-1.27301 -0.76474,-1.68554 -0.68082,-2.50771 0.41892,-4.10449 0.8219,-1.19337 0.93323,-1.52707 0.7807,-2.34013 -0.0978,-0.52155 -0.54155,-1.36245 -0.98601,-1.86866 -0.71114,-0.80995 -0.96,-0.92039 -2.07401,-0.92039 -1.71938,0 -4.78391,0.9307 -10.45323,3.17465 -5.1969,2.05696 -6.19824,2.74212 -7.927507,5.42431 -1.139433,1.76733 -2.105287,4.63021 -1.562097,4.63021 0.09223,0 2.675578,-0.84959 5.740774,-1.88799 z m 23.00563,-2.49888 1.22712,-0.41812 -0.43064,-1.07626 c -0.35883,-0.89681 -0.37911,-1.26887 -0.12164,-2.23151 0.44003,-1.64521 0.38827,-2.60557 -0.25789,-4.78568 -0.59098,-1.99392 -0.64439,-2.06452 -1.26477,-1.67187 -0.32366,0.20484 -0.31439,0.52064 0.0661,2.25242 0.62187,2.8301 0.57394,3.95057 -0.21887,5.1173 -0.36381,0.53539 -0.65984,1.21368 -0.65785,1.50732 0.004,0.51793 0.26727,1.72452 0.37699,1.72452 0.0299,0 0.6065,-0.18815 1.28141,-0.41812 z" />
    </g>
  </g>
</svg>
